<?xml version="1.0" encoding="UTF-8" standalone="no"?><svg xmlns="http://www.w3.org/2000/svg" xmlns:xlink="http://www.w3.org/1999/xlink" clip-rule="evenodd" stroke-miterlimit="4.00" viewBox="0 0 1024 768"><desc>SVG generated by Keynote</desc><defs></defs><g transform="matrix(1.00, 0.00, -0.00, -1.00, 0.0, 768.0)"><path d="M 0.0 768.0 L 1024.0 768.0 L 1024.0 0.0 L 0.0 0.0 Z M 0.0 768.0 " fill="#FEFFFF"></path><g><clipPath id="clip-981"><path d="M 77.0 475.0 L 572.0 475.0 L 572.0 131.0 L 77.0 131.0 Z M 76.9 474.6 "></path></clipPath><g clip-path="url(#clip-981)"><g><clipPath id="clip-982"><path d="M 55.0 131.0 L 572.0 131.0 L 572.0 475.0 L 55.0 475.0 Z M 55.0 131.0 "></path></clipPath><g clip-path="url(#clip-982)"><path d="M 55.0 475.0 L 572.0 475.0 L 572.0 131.0 L 55.0 131.0 Z M 55.0 475.0 " fill="#FEFFFF" fill-opacity="0.00"></path></g></g></g></g><g><clipPath id="clip-983"><path d="M 77.0 475.0 L 572.0 475.0 L 572.0 131.0 L 77.0 131.0 Z M 76.9 474.6 "></path></clipPath><g clip-path="url(#clip-983)"><g><clipPath id="clip-984"><path d="M 56.2 475.0 L 572.0 475.0 L 572.0 131.0 L 56.2 131.0 Z M 56.2 475.0 "></path></clipPath><g clip-path="url(#clip-984)"><g><clipPath id="clip-985"><path d="M 56.2 131.0 L 572.0 131.0 L 572.0 475.0 L 56.2 475.0 Z M 56.2 131.0 "></path></clipPath><g clip-path="url(#clip-985)"><text xml:space="preserve" font-family="Cambria" font-size="50.0" fill="#000000" transform="matrix(0.66, 0.00, -0.00, -0.66, -10.8, -1365.9)">!</text></g></g></g></g></g></g><g><clipPath id="clip-986"><path d="M 77.0 475.0 L 572.0 475.0 L 572.0 131.0 L 77.0 131.0 Z M 76.9 474.6 "></path></clipPath><g clip-path="url(#clip-986)"><g><clipPath id="clip-987"><path d="M 56.2 475.0 L 572.0 475.0 L 572.0 131.0 L 56.2 131.0 Z M 56.2 475.0 "></path></clipPath><g clip-path="url(#clip-987)"><g><clipPath id="clip-988"><path d="M 55.0 131.0 L 55.0 131.0 L 55.0 131.0 L 55.0 131.0 Z M 55.0 131.0 "></path></clipPath><g clip-path="url(#clip-988)"><text xml:space="preserve" font-family="Cambria" font-size="50.0" fill="#000000" transform="matrix(0.66, 0.00, -0.00, -0.66, 1248.2, -1366.6)">3</text><text xml:space="preserve" font-family="Cambria" font-size="50.0" fill="#000000" transform="matrix(0.66, 0.00, -0.00, -0.66, 1266.6, -1366.6)">2</text><text xml:space="preserve" font-family="Cambria" font-size="50.0" fill="#000000" transform="matrix(0.66, 0.00, -0.00, -0.66, 1285.0, -1366.6)">!</text></g></g></g></g></g></g><g><clipPath id="clip-989"><path d="M 77.0 475.0 L 572.0 475.0 L 572.0 131.0 L 77.0 131.0 Z M 76.9 474.6 "></path></clipPath><g clip-path="url(#clip-989)"><g><clipPath id="clip-990"><path d="M 56.2 475.0 L 572.0 475.0 L 572.0 131.0 L 56.2 131.0 Z M 56.2 475.0 "></path></clipPath><g clip-path="url(#clip-990)"><g><clipPath id="clip-991"><path d="M 56.2 131.0 L 572.0 131.0 L 572.0 475.0 L 56.2 475.0 Z M 56.2 131.0 "></path></clipPath><g clip-path="url(#clip-991)"><text xml:space="preserve" font-family="TimesNewRomanPSMT" font-size="50.0" fill="#000000" transform="matrix(0.66, 0.00, -0.00, -0.66, 1284.8, -776.0)"> </text><text xml:space="preserve" font-family="Cambria" font-size="50.0" fill="#000000" transform="matrix(0.66, 0.00, -0.00, -0.66, -115.8, -776.0)">6</text><text xml:space="preserve" font-family="Cambria" font-size="50.0" fill="#000000" transform="matrix(0.66, 0.00, -0.00, -0.66, -97.2, -776.0)">5</text><text xml:space="preserve" font-family="Cambria" font-size="50.0" fill="#000000" transform="matrix(0.66, 0.00, -0.00, -0.66, -78.6, -776.0)">3</text><text xml:space="preserve" font-family="Cambria" font-size="50.0" fill="#000000" transform="matrix(0.66, 0.00, -0.00, -0.66, -60.6, -776.0)">!</text><text xml:space="preserve" font-family="TimesNewRomanPSMT" font-size="50.0" fill="#000000" transform="matrix(0.66, 0.00, -0.00, -0.66, -10.8, -872.3)">F</text><text xml:space="preserve" font-family="TimesNewRomanPSMT" font-size="50.0" fill="#000000" transform="matrix(0.66, 0.00, -0.00, -0.66, 7.7, -872.3)">i</text><text xml:space="preserve" font-family="TimesNewRomanPSMT" font-size="50.0" fill="#000000" transform="matrix(0.66, 0.00, -0.00, -0.66, 16.9, -872.3)">g</text><text xml:space="preserve" font-family="TimesNewRomanPSMT" font-size="50.0" fill="#000000" transform="matrix(0.66, 0.00, -0.00, -0.66, 33.5, -872.3)">u</text><text xml:space="preserve" font-family="TimesNewRomanPSMT" font-size="50.0" fill="#000000" transform="matrix(0.66, 0.00, -0.00, -0.66, 50.1, -872.3)">r</text><text xml:space="preserve" font-family="TimesNewRomanPSMT" font-size="50.0" fill="#000000" transform="matrix(0.66, 0.00, -0.00, -0.66, 61.2, -872.3)">e</text><text xml:space="preserve" font-family="TimesNewRomanPSMT" font-size="50.0" fill="#000000" transform="matrix(0.66, 0.00, -0.00, -0.66, 75.9, -872.3)"> </text><text xml:space="preserve" font-family="TimesNewRomanPSMT" font-size="50.0" fill="#000000" transform="matrix(0.66, 0.00, -0.00, -0.66, 84.2, -872.3)">3</text><text xml:space="preserve" font-family="TimesNewRomanPSMT" font-size="50.0" fill="#000000" transform="matrix(0.66, 0.00, -0.00, -0.66, 100.9, -872.3)"> </text><text xml:space="preserve" font-family="Cambria" font-size="50.0" fill="#000000" transform="matrix(0.66, 0.00, -0.00, -0.66, -115.8, -872.3)">6</text><text xml:space="preserve" font-family="Cambria" font-size="50.0" fill="#000000" transform="matrix(0.66, 0.00, -0.00, -0.66, -97.2, -872.3)">5</text><text xml:space="preserve" font-family="Cambria" font-size="50.0" fill="#000000" transform="matrix(0.66, 0.00, -0.00, -0.66, -78.6, -872.3)">4</text><text xml:space="preserve" font-family="Cambria" font-size="50.0" fill="#000000" transform="matrix(0.66, 0.00, -0.00, -0.66, -60.6, -872.3)">!</text></g></g></g></g></g></g><g><clipPath id="clip-992"><path d="M 77.0 475.0 L 572.0 475.0 L 572.0 131.0 L 77.0 131.0 Z M 76.9 474.6 "></path></clipPath><g clip-path="url(#clip-992)"><g><clipPath id="clip-993"><path d="M 56.2 475.0 L 572.0 475.0 L 572.0 131.0 L 56.2 131.0 Z M 56.2 475.0 "></path></clipPath><g clip-path="url(#clip-993)"><g><clipPath id="clip-994"><path d="M -10.8 519.4 L 1284.8 519.4 L 1284.8 -776.0 L -10.8 -776.0 Z M -10.8 519.4 "></path></clipPath><g clip-path="url(#clip-994)"><g><clipPath id="clip-995"><path d="M 56.2 131.0 L 572.0 131.0 L 572.0 475.0 L 56.2 475.0 Z M 56.2 131.0 "></path></clipPath><g clip-path="url(#clip-995)"><image xlink:href="../../C424D849-8908-4A5C-81B2-DF74E22B34CE/assets/2F85893813181C7C7A844D177F9D71C2.png" width="2400.00" height="2400.00" transform="matrix(0.54, 0.00, -0.00, -0.54, -10.8, 519.4)"></image></g></g></g></g></g></g></g></g><text xml:space="preserve" font-family="Helvetica-Light" font-size="36.0" fill="#000000" transform="matrix(1.00, 0.00, -0.00, -1.00, 138.0, 510.0)">W</text><text xml:space="preserve" font-family="Helvetica-Light" font-size="36.0" fill="#000000" transform="matrix(1.00, 0.00, -0.00, -1.00, 170.0, 510.0)">i</text><text xml:space="preserve" font-family="Helvetica-Light" font-size="36.0" fill="#000000" transform="matrix(1.00, 0.00, -0.00, -1.00, 178.0, 510.0)">t</text><text xml:space="preserve" font-family="Helvetica-Light" font-size="36.0" fill="#000000" transform="matrix(1.00, 0.00, -0.00, -1.00, 188.0, 510.0)">h</text><text xml:space="preserve" font-family="Helvetica-Light" font-size="36.0" fill="#000000" transform="matrix(1.00, 0.00, -0.00, -1.00, 208.0, 510.0)">o</text><text xml:space="preserve" font-family="Helvetica-Light" font-size="36.0" fill="#000000" transform="matrix(1.00, 0.00, -0.00, -1.00, 228.0, 510.0)">u</text><text xml:space="preserve" font-family="Helvetica-Light" font-size="36.0" fill="#000000" transform="matrix(1.00, 0.00, -0.00, -1.00, 248.1, 510.0)">t</text><text xml:space="preserve" font-family="Helvetica-Light" font-size="36.0" fill="#000000" transform="matrix(1.00, 0.00, -0.00, -1.00, 258.1, 510.0)"> </text><text xml:space="preserve" font-family="Helvetica-Light" font-size="36.0" fill="#000000" transform="matrix(1.00, 0.00, -0.00, -1.00, 268.1, 510.0)">p</text><text xml:space="preserve" font-family="Helvetica-Light" font-size="36.0" fill="#000000" transform="matrix(1.00, 0.00, -0.00, -1.00, 290.1, 510.0)">r</text><text xml:space="preserve" font-family="Helvetica-Light" font-size="36.0" fill="#000000" transform="matrix(1.00, 0.00, -0.00, -1.00, 301.4, 510.0)">o</text><text xml:space="preserve" font-family="Helvetica-Light" font-size="36.0" fill="#000000" transform="matrix(1.00, 0.00, -0.00, -1.00, 321.4, 510.0)">t</text><text xml:space="preserve" font-family="Helvetica-Light" font-size="36.0" fill="#000000" transform="matrix(1.00, 0.00, -0.00, -1.00, 331.4, 510.0)">e</text><text xml:space="preserve" font-family="Helvetica-Light" font-size="36.0" fill="#000000" transform="matrix(1.00, 0.00, -0.00, -1.00, 351.4, 510.0)">c</text><text xml:space="preserve" font-family="Helvetica-Light" font-size="36.0" fill="#000000" transform="matrix(1.00, 0.00, -0.00, -1.00, 371.5, 510.0)">t</text><text xml:space="preserve" font-family="Helvetica-Light" font-size="36.0" fill="#000000" transform="matrix(1.00, 0.00, -0.00, -1.00, 381.5, 510.0)">e</text><text xml:space="preserve" font-family="Helvetica-Light" font-size="36.0" fill="#000000" transform="matrix(1.00, 0.00, -0.00, -1.00, 401.5, 510.0)">d</text><text xml:space="preserve" font-family="Helvetica-Light" font-size="36.0" fill="#000000" transform="matrix(1.00, 0.00, -0.00, -1.00, 423.5, 510.0)"> </text><text xml:space="preserve" font-family="Helvetica-Light" font-size="36.0" fill="#000000" transform="matrix(1.00, 0.00, -0.00, -1.00, 433.5, 510.0)">a</text><text xml:space="preserve" font-family="Helvetica-Light" font-size="36.0" fill="#000000" transform="matrix(1.00, 0.00, -0.00, -1.00, 453.5, 510.0)">r</text><text xml:space="preserve" font-family="Helvetica-Light" font-size="36.0" fill="#000000" transform="matrix(1.00, 0.00, -0.00, -1.00, 464.8, 510.0)">e</text><text xml:space="preserve" font-family="Helvetica-Light" font-size="36.0" fill="#000000" transform="matrix(1.00, 0.00, -0.00, -1.00, 484.9, 510.0)">a</text><text xml:space="preserve" font-family="Helvetica-Light" font-size="36.0" fill="#000000" transform="matrix(1.00, 0.00, -0.00, -1.00, 504.9, 510.0)">s</text><text xml:space="preserve" font-family="Helvetica-Light" font-size="36.0" fill="#000000" transform="matrix(1.00, 0.00, -0.00, -1.00, 429.0, 68.0)">C</text><text xml:space="preserve" font-family="Helvetica-Light" font-size="36.0" fill="#000000" transform="matrix(1.00, 0.00, -0.00, -1.00, 455.0, 68.0)">l</text><text xml:space="preserve" font-family="Helvetica-Light" font-size="36.0" fill="#000000" transform="matrix(1.00, 0.00, -0.00, -1.00, 463.0, 68.0)">i</text><text xml:space="preserve" font-family="Helvetica-Light" font-size="36.0" fill="#000000" transform="matrix(1.00, 0.00, -0.00, -1.00, 471.0, 68.0)">m</text><text xml:space="preserve" font-family="Helvetica-Light" font-size="36.0" fill="#000000" transform="matrix(1.00, 0.00, -0.00, -1.00, 501.0, 68.0)">a</text><text xml:space="preserve" font-family="Helvetica-Light" font-size="36.0" fill="#000000" transform="matrix(1.00, 0.00, -0.00, -1.00, 521.0, 68.0)">t</text><text xml:space="preserve" font-family="Helvetica-Light" font-size="36.0" fill="#000000" transform="matrix(1.00, 0.00, -0.00, -1.00, 531.0, 68.0)">e</text><text xml:space="preserve" font-family="Helvetica-Light" font-size="36.0" fill="#000000" transform="matrix(1.00, 0.00, -0.00, -1.00, 551.0, 68.0)"> </text><text xml:space="preserve" font-family="Helvetica-Light" font-size="36.0" fill="#000000" transform="matrix(1.00, 0.00, -0.00, -1.00, 561.0, 68.0)">v</text><text xml:space="preserve" font-family="Helvetica-Light" font-size="36.0" fill="#000000" transform="matrix(1.00, 0.00, -0.00, -1.00, 579.0, 68.0)">e</text><text xml:space="preserve" font-family="Helvetica-Light" font-size="36.0" fill="#000000" transform="matrix(1.00, 0.00, -0.00, -1.00, 599.0, 68.0)">l</text><text xml:space="preserve" font-family="Helvetica-Light" font-size="36.0" fill="#000000" transform="matrix(1.00, 0.00, -0.00, -1.00, 607.0, 68.0)">o</text><text xml:space="preserve" font-family="Helvetica-Light" font-size="36.0" fill="#000000" transform="matrix(1.00, 0.00, -0.00, -1.00, 627.0, 68.0)">c</text><text xml:space="preserve" font-family="Helvetica-Light" font-size="36.0" fill="#000000" transform="matrix(1.00, 0.00, -0.00, -1.00, 647.1, 68.0)">i</text><text xml:space="preserve" font-family="Helvetica-Light" font-size="36.0" fill="#000000" transform="matrix(1.00, 0.00, -0.00, -1.00, 655.0, 68.0)">t</text><text xml:space="preserve" font-family="Helvetica-Light" font-size="36.0" fill="#000000" transform="matrix(1.00, 0.00, -0.00, -1.00, 665.1, 68.0)">y</text><text xml:space="preserve" font-family="Helvetica-Light" font-size="36.0" fill="#000000" transform="matrix(0.00, 1.00, 1.00, -0.00, 52.0, 205.0)">H</text><text xml:space="preserve" font-family="Helvetica-Light" font-size="36.0" fill="#000000" transform="matrix(0.00, 1.00, 1.00, -0.00, 52.0, 231.0)">a</text><text xml:space="preserve" font-family="Helvetica-Light" font-size="36.0" fill="#000000" transform="matrix(0.00, 1.00, 1.00, -0.00, 52.0, 251.0)">r</text><text xml:space="preserve" font-family="Helvetica-Light" font-size="36.0" fill="#000000" transform="matrix(0.00, 1.00, 1.00, -0.00, 52.0, 263.0)">v</text><text xml:space="preserve" font-family="Helvetica-Light" font-size="36.0" fill="#000000" transform="matrix(0.00, 1.00, 1.00, -0.00, 52.0, 281.0)">e</text><text xml:space="preserve" font-family="Helvetica-Light" font-size="36.0" fill="#000000" transform="matrix(0.00, 1.00, 1.00, -0.00, 52.0, 301.0)">s</text><text xml:space="preserve" font-family="Helvetica-Light" font-size="36.0" fill="#000000" transform="matrix(0.00, 1.00, 1.00, -0.00, 52.0, 319.0)">t</text><text xml:space="preserve" font-family="Helvetica-Light" font-size="36.0" fill="#000000" transform="matrix(0.00, 1.00, 1.00, -0.00, 52.0, 329.0)"> </text><text xml:space="preserve" font-family="Helvetica-Light" font-size="36.0" fill="#000000" transform="matrix(0.00, 1.00, 1.00, -0.00, 52.0, 339.0)">r</text><text xml:space="preserve" font-family="Helvetica-Light" font-size="36.0" fill="#000000" transform="matrix(0.00, 1.00, 1.00, -0.00, 52.0, 351.0)">a</text><text xml:space="preserve" font-family="Helvetica-Light" font-size="36.0" fill="#000000" transform="matrix(0.00, 1.00, 1.00, -0.00, 52.0, 371.0)">t</text><text xml:space="preserve" font-family="Helvetica-Light" font-size="36.0" fill="#000000" transform="matrix(0.00, 1.00, 1.00, -0.00, 52.0, 381.0)">e</text><text xml:space="preserve" font-family="Helvetica-Light" font-size="68.8" fill="#000000" transform="matrix(1.00, 0.00, -0.00, -1.00, 81.0, 622.0)">P</text><text xml:space="preserve" font-family="Helvetica-Light" font-size="68.8" fill="#000000" transform="matrix(1.00, 0.00, -0.00, -1.00, 117.9, 622.0)">A</text><text xml:space="preserve" font-family="Helvetica-Light" font-size="68.8" fill="#000000" transform="matrix(1.00, 0.00, -0.00, -1.00, 163.8, 622.0)">s</text><text xml:space="preserve" font-family="Helvetica-Light" font-size="68.8" fill="#000000" transform="matrix(1.00, 0.00, -0.00, -1.00, 198.2, 622.0)"> </text><text xml:space="preserve" font-family="Helvetica-Light" font-size="68.8" fill="#000000" transform="matrix(1.00, 0.00, -0.00, -1.00, 217.4, 622.0)">r</text><text xml:space="preserve" font-family="Helvetica-Light" font-size="68.8" fill="#000000" transform="matrix(1.00, 0.00, -0.00, -1.00, 239.0, 622.0)">e</text><text xml:space="preserve" font-family="Helvetica-Light" font-size="68.8" fill="#000000" transform="matrix(1.00, 0.00, -0.00, -1.00, 277.3, 622.0)">d</text><text xml:space="preserve" font-family="Helvetica-Light" font-size="68.8" fill="#000000" transform="matrix(1.00, 0.00, -0.00, -1.00, 319.3, 622.0)">u</text><text xml:space="preserve" font-family="Helvetica-Light" font-size="68.8" fill="#000000" transform="matrix(1.00, 0.00, -0.00, -1.00, 357.6, 622.0)">c</text><text xml:space="preserve" font-family="Helvetica-Light" font-size="68.8" fill="#000000" transform="matrix(1.00, 0.00, -0.00, -1.00, 395.8, 622.0)">e</text><text xml:space="preserve" font-family="Helvetica-Light" font-size="68.8" fill="#000000" transform="matrix(1.00, 0.00, -0.00, -1.00, 434.1, 622.0)"> </text><text xml:space="preserve" font-family="Helvetica-Light" font-size="68.8" fill="#000000" transform="matrix(1.00, 0.00, -0.00, -1.00, 453.2, 622.0)">h</text><text xml:space="preserve" font-family="Helvetica-Light" font-size="68.8" fill="#000000" transform="matrix(1.00, 0.00, -0.00, -1.00, 491.5, 622.0)">a</text><text xml:space="preserve" font-family="Helvetica-Light" font-size="68.8" fill="#000000" transform="matrix(1.00, 0.00, -0.00, -1.00, 529.7, 622.0)">r</text><text xml:space="preserve" font-family="Helvetica-Light" font-size="68.8" fill="#000000" transform="matrix(1.00, 0.00, -0.00, -1.00, 552.6, 622.0)">v</text><text xml:space="preserve" font-family="Helvetica-Light" font-size="68.8" fill="#000000" transform="matrix(1.00, 0.00, -0.00, -1.00, 587.0, 622.0)">e</text><text xml:space="preserve" font-family="Helvetica-Light" font-size="68.8" fill="#000000" transform="matrix(1.00, 0.00, -0.00, -1.00, 625.3, 622.0)">s</text><text xml:space="preserve" font-family="Helvetica-Light" font-size="68.8" fill="#000000" transform="matrix(1.00, 0.00, -0.00, -1.00, 659.7, 622.0)">t</text><text xml:space="preserve" font-family="Helvetica-Light" font-size="68.8" fill="#000000" transform="matrix(1.00, 0.00, -0.00, -1.00, 678.8, 622.0)"> </text><text xml:space="preserve" font-family="Helvetica-Light" font-size="68.8" fill="#000000" transform="matrix(1.00, 0.00, -0.00, -1.00, 697.9, 622.0)">i</text><text xml:space="preserve" font-family="Helvetica-Light" font-size="68.8" fill="#000000" transform="matrix(1.00, 0.00, -0.00, -1.00, 713.2, 622.0)">m</text><text xml:space="preserve" font-family="Helvetica-Light" font-size="68.8" fill="#000000" transform="matrix(1.00, 0.00, -0.00, -1.00, 770.5, 622.0)">p</text><text xml:space="preserve" font-family="Helvetica-Light" font-size="68.8" fill="#000000" transform="matrix(1.00, 0.00, -0.00, -1.00, 812.6, 622.0)">a</text><text xml:space="preserve" font-family="Helvetica-Light" font-size="68.8" fill="#000000" transform="matrix(1.00, 0.00, -0.00, -1.00, 850.8, 622.0)">c</text><text xml:space="preserve" font-family="Helvetica-Light" font-size="68.8" fill="#000000" transform="matrix(1.00, 0.00, -0.00, -1.00, 889.1, 622.0)">t</text><text xml:space="preserve" font-family="Helvetica-Light" font-size="68.8" fill="#000000" transform="matrix(1.00, 0.00, -0.00, -1.00, 908.2, 622.0)">s</text><g><clipPath id="clip-996"><path d="M 771.0 35.0 L 915.0 35.0 L 915.0 570.0 L 771.0 570.0 Z M 771.0 35.0 "></path></clipPath><g clip-path="url(#clip-996)"><path d="M 771.0 570.0 L 915.0 570.0 L 915.0 35.0 L 771.0 35.0 Z M 771.0 570.0 " fill="#FEFFFF" fill-opacity="0.00"></path></g></g><g><clipPath id="clip-997"><path d="M 771.7 569.4 L 914.5 569.4 L 914.5 35.9 L 771.7 35.9 Z M 771.7 569.4 "></path></clipPath><g clip-path="url(#clip-997)"><g><clipPath id="clip-998"><path d="M 771.7 35.9 L 914.5 35.9 L 914.5 569.4 L 771.7 569.4 Z M 771.7 35.9 "></path></clipPath><g clip-path="url(#clip-998)"><text xml:space="preserve" font-family="Cambria" font-size="50.0" fill="#000000" transform="matrix(0.59, 0.00, -0.00, -0.59, -215.6, -790.8)">!</text></g></g></g></g><g><clipPath id="clip-999"><path d="M 771.7 569.4 L 914.5 569.4 L 914.5 35.9 L 771.7 35.9 Z M 771.7 569.4 "></path></clipPath><g clip-path="url(#clip-999)"><g><clipPath id="clip-1000"><path d="M 771.0 35.0 L 771.0 35.0 L 771.0 35.0 L 771.0 35.0 Z M 771.0 35.0 "></path></clipPath><g clip-path="url(#clip-1000)"><text xml:space="preserve" font-family="Cambria" font-size="50.0" fill="#000000" transform="matrix(0.59, 0.00, -0.00, -0.59, 898.3, -791.4)">3</text><text xml:space="preserve" font-family="Cambria" font-size="50.0" fill="#000000" transform="matrix(0.59, 0.00, -0.00, -0.59, 914.5, -791.4)">2</text><text xml:space="preserve" font-family="Cambria" font-size="50.0" fill="#000000" transform="matrix(0.59, 0.00, -0.00, -0.59, 930.8, -791.4)">!</text></g></g></g></g><g><clipPath id="clip-1001"><path d="M 771.7 569.4 L 914.5 569.4 L 914.5 35.9 L 771.7 35.9 Z M 771.7 569.4 "></path></clipPath><g clip-path="url(#clip-1001)"><g><clipPath id="clip-1002"><path d="M 771.7 35.9 L 914.5 35.9 L 914.5 569.4 L 771.7 569.4 Z M 771.7 35.9 "></path></clipPath><g clip-path="url(#clip-1002)"><text xml:space="preserve" font-family="TimesNewRomanPSMT" font-size="50.0" fill="#000000" transform="matrix(0.59, 0.00, -0.00, -0.59, 930.6, -268.1)"> </text><text xml:space="preserve" font-family="Cambria" font-size="50.0" fill="#000000" transform="matrix(0.59, 0.00, -0.00, -0.59, -308.4, -268.1)">6</text><text xml:space="preserve" font-family="Cambria" font-size="50.0" fill="#000000" transform="matrix(0.59, 0.00, -0.00, -0.59, -292.0, -268.1)">5</text><text xml:space="preserve" font-family="Cambria" font-size="50.0" fill="#000000" transform="matrix(0.59, 0.00, -0.00, -0.59, -275.5, -268.1)">3</text><text xml:space="preserve" font-family="Cambria" font-size="50.0" fill="#000000" transform="matrix(0.59, 0.00, -0.00, -0.59, -259.6, -268.1)">!</text><text xml:space="preserve" font-family="TimesNewRomanPSMT" font-size="50.0" fill="#000000" transform="matrix(0.59, 0.00, -0.00, -0.59, -215.6, -353.4)">F</text><text xml:space="preserve" font-family="TimesNewRomanPSMT" font-size="50.0" fill="#000000" transform="matrix(0.59, 0.00, -0.00, -0.59, -199.2, -353.4)">i</text><text xml:space="preserve" font-family="TimesNewRomanPSMT" font-size="50.0" fill="#000000" transform="matrix(0.59, 0.00, -0.00, -0.59, -191.0, -353.4)">g</text><text xml:space="preserve" font-family="TimesNewRomanPSMT" font-size="50.0" fill="#000000" transform="matrix(0.59, 0.00, -0.00, -0.59, -176.4, -353.4)">u</text><text xml:space="preserve" font-family="TimesNewRomanPSMT" font-size="50.0" fill="#000000" transform="matrix(0.59, 0.00, -0.00, -0.59, -161.7, -353.4)">r</text><text xml:space="preserve" font-family="TimesNewRomanPSMT" font-size="50.0" fill="#000000" transform="matrix(0.59, 0.00, -0.00, -0.59, -151.9, -353.4)">e</text><text xml:space="preserve" font-family="TimesNewRomanPSMT" font-size="50.0" fill="#000000" transform="matrix(0.59, 0.00, -0.00, -0.59, -138.8, -353.4)"> </text><text xml:space="preserve" font-family="TimesNewRomanPSMT" font-size="50.0" fill="#000000" transform="matrix(0.59, 0.00, -0.00, -0.59, -131.5, -353.4)">3</text><text xml:space="preserve" font-family="TimesNewRomanPSMT" font-size="50.0" fill="#000000" transform="matrix(0.59, 0.00, -0.00, -0.59, -116.8, -353.4)"> </text><text xml:space="preserve" font-family="Cambria" font-size="50.0" fill="#000000" transform="matrix(0.59, 0.00, -0.00, -0.59, -308.4, -353.4)">6</text><text xml:space="preserve" font-family="Cambria" font-size="50.0" fill="#000000" transform="matrix(0.59, 0.00, -0.00, -0.59, -292.0, -353.4)">5</text><text xml:space="preserve" font-family="Cambria" font-size="50.0" fill="#000000" transform="matrix(0.59, 0.00, -0.00, -0.59, -275.5, -353.4)">4</text><text xml:space="preserve" font-family="Cambria" font-size="50.0" fill="#000000" transform="matrix(0.59, 0.00, -0.00, -0.59, -259.6, -353.4)">!</text></g></g></g></g><g><clipPath id="clip-1003"><path d="M 771.7 569.4 L 914.5 569.4 L 914.5 35.9 L 771.7 35.9 Z M 771.7 569.4 "></path></clipPath><g clip-path="url(#clip-1003)"><g><clipPath id="clip-1004"><path d="M -215.6 879.8 L 930.6 879.8 L 930.6 -268.1 L -215.6 -268.1 Z M -215.6 879.8 "></path></clipPath><g clip-path="url(#clip-1004)"><g><clipPath id="clip-1005"><path d="M 771.7 35.9 L 914.5 35.9 L 914.5 569.4 L 771.7 569.4 Z M 771.7 35.9 "></path></clipPath><g clip-path="url(#clip-1005)"><image xlink:href="../../C424D849-8908-4A5C-81B2-DF74E22B34CE/assets/2F85893813181C7C7A844D177F9D71C2.png" width="2400.00" height="2400.00" transform="matrix(0.48, 0.00, -0.00, -0.48, -215.6, 879.8)"></image></g></g></g></g></g></g><text xml:space="preserve" font-family="Helvetica-Light" font-size="36.0" fill="#000000" transform="matrix(0.00, 1.00, 1.00, -0.00, 741.0, 140.0)">E</text><text xml:space="preserve" font-family="Helvetica-Light" font-size="36.0" fill="#000000" transform="matrix(0.00, 1.00, 1.00, -0.00, 741.0, 162.0)">q</text><text xml:space="preserve" font-family="Helvetica-Light" font-size="36.0" fill="#000000" transform="matrix(0.00, 1.00, 1.00, -0.00, 741.0, 184.0)">u</text><text xml:space="preserve" font-family="Helvetica-Light" font-size="36.0" fill="#000000" transform="matrix(0.00, 1.00, 1.00, -0.00, 741.0, 204.0)">i</text><text xml:space="preserve" font-family="Helvetica-Light" font-size="36.0" fill="#000000" transform="matrix(0.00, 1.00, 1.00, -0.00, 741.0, 212.0)">l</text><text xml:space="preserve" font-family="Helvetica-Light" font-size="36.0" fill="#000000" transform="matrix(0.00, 1.00, 1.00, -0.00, 741.0, 220.0)">i</text><text xml:space="preserve" font-family="Helvetica-Light" font-size="36.0" fill="#000000" transform="matrix(0.00, 1.00, 1.00, -0.00, 741.0, 228.0)">b</text><text xml:space="preserve" font-family="Helvetica-Light" font-size="36.0" fill="#000000" transform="matrix(0.00, 1.00, 1.00, -0.00, 741.0, 250.0)">r</text><text xml:space="preserve" font-family="Helvetica-Light" font-size="36.0" fill="#000000" transform="matrix(0.00, 1.00, 1.00, -0.00, 741.0, 262.0)">i</text><text xml:space="preserve" font-family="Helvetica-Light" font-size="36.0" fill="#000000" transform="matrix(0.00, 1.00, 1.00, -0.00, 741.0, 270.0)">u</text><text xml:space="preserve" font-family="Helvetica-Light" font-size="36.0" fill="#000000" transform="matrix(0.00, 1.00, 1.00, -0.00, 741.0, 290.0)">m</text><text xml:space="preserve" font-family="Helvetica-Light" font-size="36.0" fill="#000000" transform="matrix(0.00, 1.00, 1.00, -0.00, 741.0, 320.0)"> </text><text xml:space="preserve" font-family="Helvetica-Light" font-size="36.0" fill="#000000" transform="matrix(0.00, 1.00, 1.00, -0.00, 741.0, 330.0)">b</text><text xml:space="preserve" font-family="Helvetica-Light" font-size="36.0" fill="#000000" transform="matrix(0.00, 1.00, 1.00, -0.00, 741.0, 352.0)">i</text><text xml:space="preserve" font-family="Helvetica-Light" font-size="36.0" fill="#000000" transform="matrix(0.00, 1.00, 1.00, -0.00, 741.0, 360.0)">o</text><text xml:space="preserve" font-family="Helvetica-Light" font-size="36.0" fill="#000000" transform="matrix(0.00, 1.00, 1.00, -0.00, 741.0, 380.0)">m</text><text xml:space="preserve" font-family="Helvetica-Light" font-size="36.0" fill="#000000" transform="matrix(0.00, 1.00, 1.00, -0.00, 741.0, 410.0)">a</text><text xml:space="preserve" font-family="Helvetica-Light" font-size="36.0" fill="#000000" transform="matrix(0.00, 1.00, 1.00, -0.00, 741.0, 430.0)">s</text><text xml:space="preserve" font-family="Helvetica-Light" font-size="36.0" fill="#000000" transform="matrix(0.00, 1.00, 1.00, -0.00, 741.0, 448.0)">s</text><text xml:space="preserve" font-family="Helvetica-Light" font-size="20.0" fill="#000000" transform="matrix(1.00, 0.00, -0.00, -1.00, 842.0, 31.0)">F</text><text xml:space="preserve" font-family="Helvetica-Light" font-size="20.0" fill="#000000" transform="matrix(1.00, 0.00, -0.00, -1.00, 853.1, 31.0)">u</text><text xml:space="preserve" font-family="Helvetica-Light" font-size="20.0" fill="#000000" transform="matrix(1.00, 0.00, -0.00, -1.00, 864.2, 31.0)">l</text><text xml:space="preserve" font-family="Helvetica-Light" font-size="20.0" fill="#000000" transform="matrix(1.00, 0.00, -0.00, -1.00, 868.7, 31.0)">l</text><text xml:space="preserve" font-family="Helvetica-Light" font-size="20.0" fill="#000000" transform="matrix(1.00, 0.00, -0.00, -1.00, 873.1, 31.0)">e</text><text xml:space="preserve" font-family="Helvetica-Light" font-size="20.0" fill="#000000" transform="matrix(1.00, 0.00, -0.00, -1.00, 884.2, 31.0)">r</text><text xml:space="preserve" font-family="Helvetica-Light" font-size="20.0" fill="#000000" transform="matrix(1.00, 0.00, -0.00, -1.00, 890.9, 31.0)"> </text><text xml:space="preserve" font-family="Helvetica-Light" font-size="20.0" fill="#000000" transform="matrix(1.00, 0.00, -0.00, -1.00, 896.5, 31.0)">e</text><text xml:space="preserve" font-family="Helvetica-Light" font-size="20.0" fill="#000000" transform="matrix(1.00, 0.00, -0.00, -1.00, 907.6, 31.0)">t</text><text xml:space="preserve" font-family="Helvetica-Light" font-size="20.0" fill="#000000" transform="matrix(1.00, 0.00, -0.00, -1.00, 913.1, 31.0)"> </text><text xml:space="preserve" font-family="Helvetica-Light" font-size="20.0" fill="#000000" transform="matrix(1.00, 0.00, -0.00, -1.00, 918.7, 31.0)">a</text><text xml:space="preserve" font-family="Helvetica-Light" font-size="20.0" fill="#000000" transform="matrix(1.00, 0.00, -0.00, -1.00, 929.8, 31.0)">l</text><text xml:space="preserve" font-family="Helvetica-Light" font-size="20.0" fill="#000000" transform="matrix(1.00, 0.00, -0.00, -1.00, 934.3, 31.0)">.</text><text xml:space="preserve" font-family="Helvetica-Light" font-size="20.0" fill="#000000" transform="matrix(1.00, 0.00, -0.00, -1.00, 939.8, 31.0)"> </text><text xml:space="preserve" font-family="Helvetica-Light" font-size="20.0" fill="#000000" transform="matrix(1.00, 0.00, -0.00, -1.00, 945.4, 31.0)">(</text><text xml:space="preserve" font-family="Helvetica-Light" font-size="20.0" fill="#000000" transform="matrix(1.00, 0.00, -0.00, -1.00, 952.0, 31.0)">2</text><text xml:space="preserve" font-family="Helvetica-Light" font-size="20.0" fill="#000000" transform="matrix(1.00, 0.00, -0.00, -1.00, 963.2, 31.0)">0</text><text xml:space="preserve" font-family="Helvetica-Light" font-size="20.0" fill="#000000" transform="matrix(1.00, 0.00, -0.00, -1.00, 974.3, 31.0)">1</text><text xml:space="preserve" font-family="Helvetica-Light" font-size="20.0" fill="#000000" transform="matrix(1.00, 0.00, -0.00, -1.00, 985.4, 31.0)">5</text><text xml:space="preserve" font-family="Helvetica-Light" font-size="20.0" fill="#000000" transform="matrix(1.00, 0.00, -0.00, -1.00, 996.5, 31.0)">)</text></g></svg>