<?xml version="1.0" encoding="UTF-8" standalone="no"?><svg xmlns="http://www.w3.org/2000/svg" xmlns:xlink="http://www.w3.org/1999/xlink" clip-rule="evenodd" stroke-miterlimit="4.00" viewBox="0 0 1024 768"><desc>SVG generated by Keynote</desc><defs></defs><g transform="matrix(1.00, 0.00, -0.00, -1.00, 0.0, 768.0)"><path d="M 0.0 768.0 L 1024.0 768.0 L 1024.0 0.0 L 0.0 0.0 Z M 0.0 768.0 " fill="#FEFFFF"></path><g><clipPath id="clip-1111"><path d="M 77.0 475.0 L 572.0 475.0 L 572.0 131.0 L 77.0 131.0 Z M 76.9 474.6 "></path></clipPath><g clip-path="url(#clip-1111)"><g><clipPath id="clip-1112"><path d="M 76.9 131.0 L 572.0 131.0 L 572.0 474.6 L 76.9 474.6 Z M 76.9 131.0 "></path></clipPath><g clip-path="url(#clip-1112)"><path d="M 55.0 475.0 L 572.0 475.0 L 572.0 131.0 L 55.0 131.0 Z M 55.0 475.0 " fill="#FEFFFF" fill-opacity="0.00"></path></g></g></g></g><g><clipPath id="clip-1113"><path d="M 77.0 475.0 L 572.0 475.0 L 572.0 131.0 L 77.0 131.0 Z M 76.9 474.6 "></path></clipPath><g clip-path="url(#clip-1113)"><g><clipPath id="clip-1114"><path d="M 56.2 475.0 L 572.0 475.0 L 572.0 131.0 L 56.2 131.0 Z M 56.2 475.0 "></path></clipPath><g clip-path="url(#clip-1114)"><g><clipPath id="clip-1115"><path d="M 76.9 131.0 L 572.0 131.0 L 572.0 474.6 L 76.9 474.6 Z M 76.9 131.0 "></path></clipPath><g clip-path="url(#clip-1115)"><text xml:space="preserve" font-family="Cambria" font-size="50.0" fill="#000000" transform="matrix(0.66, 0.00, -0.00, -0.66, -10.8, -1365.9)">!</text></g></g></g></g></g></g><g><clipPath id="clip-1116"><path d="M 77.0 475.0 L 572.0 475.0 L 572.0 131.0 L 77.0 131.0 Z M 76.9 474.6 "></path></clipPath><g clip-path="url(#clip-1116)"><g><clipPath id="clip-1117"><path d="M 56.2 475.0 L 572.0 475.0 L 572.0 131.0 L 56.2 131.0 Z M 56.2 475.0 "></path></clipPath><g clip-path="url(#clip-1117)"><g><clipPath id="clip-1118"><path d="M 0.0 0.0 L 0.0 0.0 L 0.0 0.0 L 0.0 0.0 Z M 0.0 0.0 "></path></clipPath><g clip-path="url(#clip-1118)"><text xml:space="preserve" font-family="Cambria" font-size="50.0" fill="#000000" transform="matrix(0.66, 0.00, -0.00, -0.66, 1248.2, -1366.6)">3</text><text xml:space="preserve" font-family="Cambria" font-size="50.0" fill="#000000" transform="matrix(0.66, 0.00, -0.00, -0.66, 1266.6, -1366.6)">2</text><text xml:space="preserve" font-family="Cambria" font-size="50.0" fill="#000000" transform="matrix(0.66, 0.00, -0.00, -0.66, 1285.0, -1366.6)">!</text></g></g></g></g></g></g><g><clipPath id="clip-1119"><path d="M 77.0 475.0 L 572.0 475.0 L 572.0 131.0 L 77.0 131.0 Z M 76.9 474.6 "></path></clipPath><g clip-path="url(#clip-1119)"><g><clipPath id="clip-1120"><path d="M 56.2 475.0 L 572.0 475.0 L 572.0 131.0 L 56.2 131.0 Z M 56.2 475.0 "></path></clipPath><g clip-path="url(#clip-1120)"><g><clipPath id="clip-1121"><path d="M 76.9 131.0 L 572.0 131.0 L 572.0 474.6 L 76.9 474.6 Z M 76.9 131.0 "></path></clipPath><g clip-path="url(#clip-1121)"><text xml:space="preserve" font-family="TimesNewRomanPSMT" font-size="50.0" fill="#000000" transform="matrix(0.66, 0.00, -0.00, -0.66, 1284.8, -776.0)"> </text><text xml:space="preserve" font-family="Cambria" font-size="50.0" fill="#000000" transform="matrix(0.66, 0.00, -0.00, -0.66, -115.8, -776.0)">6</text><text xml:space="preserve" font-family="Cambria" font-size="50.0" fill="#000000" transform="matrix(0.66, 0.00, -0.00, -0.66, -97.2, -776.0)">5</text><text xml:space="preserve" font-family="Cambria" font-size="50.0" fill="#000000" transform="matrix(0.66, 0.00, -0.00, -0.66, -78.6, -776.0)">3</text><text xml:space="preserve" font-family="Cambria" font-size="50.0" fill="#000000" transform="matrix(0.66, 0.00, -0.00, -0.66, -60.6, -776.0)">!</text><text xml:space="preserve" font-family="TimesNewRomanPSMT" font-size="50.0" fill="#000000" transform="matrix(0.66, 0.00, -0.00, -0.66, -10.8, -872.3)">F</text><text xml:space="preserve" font-family="TimesNewRomanPSMT" font-size="50.0" fill="#000000" transform="matrix(0.66, 0.00, -0.00, -0.66, 7.7, -872.3)">i</text><text xml:space="preserve" font-family="TimesNewRomanPSMT" font-size="50.0" fill="#000000" transform="matrix(0.66, 0.00, -0.00, -0.66, 16.9, -872.3)">g</text><text xml:space="preserve" font-family="TimesNewRomanPSMT" font-size="50.0" fill="#000000" transform="matrix(0.66, 0.00, -0.00, -0.66, 33.5, -872.3)">u</text><text xml:space="preserve" font-family="TimesNewRomanPSMT" font-size="50.0" fill="#000000" transform="matrix(0.66, 0.00, -0.00, -0.66, 50.1, -872.3)">r</text><text xml:space="preserve" font-family="TimesNewRomanPSMT" font-size="50.0" fill="#000000" transform="matrix(0.66, 0.00, -0.00, -0.66, 61.2, -872.3)">e</text><text xml:space="preserve" font-family="TimesNewRomanPSMT" font-size="50.0" fill="#000000" transform="matrix(0.66, 0.00, -0.00, -0.66, 75.9, -872.3)"> </text><text xml:space="preserve" font-family="TimesNewRomanPSMT" font-size="50.0" fill="#000000" transform="matrix(0.66, 0.00, -0.00, -0.66, 84.2, -872.3)">3</text><text xml:space="preserve" font-family="TimesNewRomanPSMT" font-size="50.0" fill="#000000" transform="matrix(0.66, 0.00, -0.00, -0.66, 100.9, -872.3)"> </text><text xml:space="preserve" font-family="Cambria" font-size="50.0" fill="#000000" transform="matrix(0.66, 0.00, -0.00, -0.66, -115.8, -872.3)">6</text><text xml:space="preserve" font-family="Cambria" font-size="50.0" fill="#000000" transform="matrix(0.66, 0.00, -0.00, -0.66, -97.2, -872.3)">5</text><text xml:space="preserve" font-family="Cambria" font-size="50.0" fill="#000000" transform="matrix(0.66, 0.00, -0.00, -0.66, -78.6, -872.3)">4</text><text xml:space="preserve" font-family="Cambria" font-size="50.0" fill="#000000" transform="matrix(0.66, 0.00, -0.00, -0.66, -60.6, -872.3)">!</text></g></g></g></g></g></g><g><clipPath id="clip-1122"><path d="M 77.0 475.0 L 572.0 475.0 L 572.0 131.0 L 77.0 131.0 Z M 76.9 474.6 "></path></clipPath><g clip-path="url(#clip-1122)"><g><clipPath id="clip-1123"><path d="M 56.2 475.0 L 572.0 475.0 L 572.0 131.0 L 56.2 131.0 Z M 56.2 475.0 "></path></clipPath><g clip-path="url(#clip-1123)"><g><clipPath id="clip-1124"><path d="M -10.8 519.4 L 1284.8 519.4 L 1284.8 -776.0 L -10.8 -776.0 Z M -10.8 519.4 "></path></clipPath><g clip-path="url(#clip-1124)"><g><clipPath id="clip-1125"><path d="M 76.9 131.0 L 572.0 131.0 L 572.0 474.6 L 76.9 474.6 Z M 76.9 131.0 "></path></clipPath><g clip-path="url(#clip-1125)"><image xlink:href="../../C424D849-8908-4A5C-81B2-DF74E22B34CE/assets/2F85893813181C7C7A844D177F9D71C2.png" width="2400.00" height="2400.00" transform="matrix(0.54, 0.00, -0.00, -0.54, -10.8, 519.4)"></image></g></g></g></g></g></g></g></g><g><clipPath id="clip-1126"><path d="M 558.0 465.0 L 949.0 465.0 L 949.0 189.0 L 558.0 189.0 Z M 557.8 465.4 "></path></clipPath><g clip-path="url(#clip-1126)"><g><clipPath id="clip-1127"><path d="M 555.3 186.5 L 951.2 186.5 L 951.2 467.9 L 555.3 467.9 Z M 555.3 186.5 "></path></clipPath><g clip-path="url(#clip-1127)"><text xml:space="preserve" font-family="Cambria" font-size="50.0" fill="#000000" transform="matrix(0.68, 0.00, -0.00, -0.68, 371.0, -987.2)">!</text></g></g></g></g><g><clipPath id="clip-1128"><path d="M 558.0 465.0 L 949.0 465.0 L 949.0 189.0 L 558.0 189.0 Z M 557.8 465.4 "></path></clipPath><g clip-path="url(#clip-1128)"><g><clipPath id="clip-1129"><path d="M 0.0 0.0 L 0.0 0.0 L 0.0 0.0 L 0.0 0.0 Z M 0.0 0.0 "></path></clipPath><g clip-path="url(#clip-1129)"><text xml:space="preserve" font-family="Cambria" font-size="50.0" fill="#000000" transform="matrix(0.68, 0.00, -0.00, -0.68, 1663.1, -987.8)">3</text><text xml:space="preserve" font-family="Cambria" font-size="50.0" fill="#000000" transform="matrix(0.68, 0.00, -0.00, -0.68, 1682.0, -987.8)">2</text><text xml:space="preserve" font-family="Cambria" font-size="50.0" fill="#000000" transform="matrix(0.68, 0.00, -0.00, -0.68, 1700.9, -987.8)">!</text></g></g></g></g><g><clipPath id="clip-1130"><path d="M 558.0 465.0 L 949.0 465.0 L 949.0 189.0 L 558.0 189.0 Z M 557.8 465.4 "></path></clipPath><g clip-path="url(#clip-1130)"><g><clipPath id="clip-1131"><path d="M 555.3 186.5 L 951.2 186.5 L 951.2 467.9 L 555.3 467.9 Z M 555.3 186.5 "></path></clipPath><g clip-path="url(#clip-1131)"><text xml:space="preserve" font-family="TimesNewRomanPSMT" font-size="50.0" fill="#000000" transform="matrix(0.68, 0.00, -0.00, -0.68, 1700.6, -382.1)"> </text><text xml:space="preserve" font-family="Cambria" font-size="50.0" fill="#000000" transform="matrix(0.68, 0.00, -0.00, -0.68, 263.3, -382.1)">6</text><text xml:space="preserve" font-family="Cambria" font-size="50.0" fill="#000000" transform="matrix(0.68, 0.00, -0.00, -0.68, 282.4, -382.1)">5</text><text xml:space="preserve" font-family="Cambria" font-size="50.0" fill="#000000" transform="matrix(0.68, 0.00, -0.00, -0.68, 301.5, -382.1)">3</text><text xml:space="preserve" font-family="Cambria" font-size="50.0" fill="#000000" transform="matrix(0.68, 0.00, -0.00, -0.68, 319.9, -382.1)">!</text><text xml:space="preserve" font-family="TimesNewRomanPSMT" font-size="50.0" fill="#000000" transform="matrix(0.68, 0.00, -0.00, -0.68, 371.0, -480.9)">F</text><text xml:space="preserve" font-family="TimesNewRomanPSMT" font-size="50.0" fill="#000000" transform="matrix(0.68, 0.00, -0.00, -0.68, 390.0, -480.9)">i</text><text xml:space="preserve" font-family="TimesNewRomanPSMT" font-size="50.0" fill="#000000" transform="matrix(0.68, 0.00, -0.00, -0.68, 399.5, -480.9)">g</text><text xml:space="preserve" font-family="TimesNewRomanPSMT" font-size="50.0" fill="#000000" transform="matrix(0.68, 0.00, -0.00, -0.68, 416.5, -480.9)">u</text><text xml:space="preserve" font-family="TimesNewRomanPSMT" font-size="50.0" fill="#000000" transform="matrix(0.68, 0.00, -0.00, -0.68, 433.6, -480.9)">r</text><text xml:space="preserve" font-family="TimesNewRomanPSMT" font-size="50.0" fill="#000000" transform="matrix(0.68, 0.00, -0.00, -0.68, 444.9, -480.9)">e</text><text xml:space="preserve" font-family="TimesNewRomanPSMT" font-size="50.0" fill="#000000" transform="matrix(0.68, 0.00, -0.00, -0.68, 460.0, -480.9)"> </text><text xml:space="preserve" font-family="TimesNewRomanPSMT" font-size="50.0" fill="#000000" transform="matrix(0.68, 0.00, -0.00, -0.68, 468.6, -480.9)">3</text><text xml:space="preserve" font-family="TimesNewRomanPSMT" font-size="50.0" fill="#000000" transform="matrix(0.68, 0.00, -0.00, -0.68, 485.6, -480.9)"> </text><text xml:space="preserve" font-family="Cambria" font-size="50.0" fill="#000000" transform="matrix(0.68, 0.00, -0.00, -0.68, 263.3, -480.9)">6</text><text xml:space="preserve" font-family="Cambria" font-size="50.0" fill="#000000" transform="matrix(0.68, 0.00, -0.00, -0.68, 282.4, -480.9)">5</text><text xml:space="preserve" font-family="Cambria" font-size="50.0" fill="#000000" transform="matrix(0.68, 0.00, -0.00, -0.68, 301.5, -480.9)">4</text><text xml:space="preserve" font-family="Cambria" font-size="50.0" fill="#000000" transform="matrix(0.68, 0.00, -0.00, -0.68, 319.9, -480.9)">!</text></g></g></g></g><g><clipPath id="clip-1132"><path d="M 558.0 465.0 L 949.0 465.0 L 949.0 189.0 L 558.0 189.0 Z M 557.8 465.4 "></path></clipPath><g clip-path="url(#clip-1132)"><g><clipPath id="clip-1133"><path d="M 371.0 946.7 L 1700.6 946.7 L 1700.6 -382.1 L 371.0 -382.1 Z M 371.0 946.7 "></path></clipPath><g clip-path="url(#clip-1133)"><g><clipPath id="clip-1134"><path d="M 555.3 186.5 L 951.2 186.5 L 951.2 467.9 L 555.3 467.9 Z M 555.3 186.5 "></path></clipPath><g clip-path="url(#clip-1134)"><image xlink:href="../../C424D849-8908-4A5C-81B2-DF74E22B34CE/assets/2F85893813181C7C7A844D177F9D71C2.png" width="2400.00" height="2400.00" transform="matrix(0.55, 0.00, -0.00, -0.55, 371.0, 946.7)"></image></g></g></g></g></g></g><g><clipPath id="clip-1135"><path d="M 555.3 186.5 L 951.2 186.5 L 951.2 467.9 L 555.3 467.9 Z M 555.3 186.5 "></path></clipPath><g clip-path="url(#clip-1135)"><path d="M 0.0 0.0 L 0.0 276.4 L 390.9 276.4 L 390.9 0.0 L 0.0 0.0 Z M 0.0 0.0 " fill="none" stroke="#FEFFFE" stroke-width="5.00" transform="matrix(1.00, 0.00, 0.00, -1.00, 557.8, 465.4)"></path></g></g><g><clipPath id="clip-1136"><path d="M 612.0 181.0 L 951.0 181.0 L 951.0 139.0 L 612.0 139.0 Z M 612.0 180.8 "></path></clipPath><g clip-path="url(#clip-1136)"><g><clipPath id="clip-1137"><path d="M 609.5 136.2 L 953.3 136.2 L 953.3 183.3 L 609.5 183.3 Z M 609.5 136.2 "></path></clipPath><g clip-path="url(#clip-1137)"><text xml:space="preserve" font-family="Cambria" font-size="50.0" fill="#000000" transform="matrix(0.67, 0.00, -0.00, -0.67, 371.1, -956.9)">!</text></g></g></g></g><g><clipPath id="clip-1138"><path d="M 612.0 181.0 L 951.0 181.0 L 951.0 139.0 L 612.0 139.0 Z M 612.0 180.8 "></path></clipPath><g clip-path="url(#clip-1138)"><g><clipPath id="clip-1139"><path d="M 0.0 0.0 L 0.0 0.0 L 0.0 0.0 L 0.0 0.0 Z M 0.0 0.0 "></path></clipPath><g clip-path="url(#clip-1139)"><text xml:space="preserve" font-family="Cambria" font-size="50.0" fill="#000000" transform="matrix(0.67, 0.00, -0.00, -0.67, 1632.9, -957.6)">3</text><text xml:space="preserve" font-family="Cambria" font-size="50.0" fill="#000000" transform="matrix(0.67, 0.00, -0.00, -0.67, 1651.3, -957.6)">2</text><text xml:space="preserve" font-family="Cambria" font-size="50.0" fill="#000000" transform="matrix(0.67, 0.00, -0.00, -0.67, 1669.7, -957.6)">!</text></g></g></g></g><g><clipPath id="clip-1140"><path d="M 612.0 181.0 L 951.0 181.0 L 951.0 139.0 L 612.0 139.0 Z M 612.0 180.8 "></path></clipPath><g clip-path="url(#clip-1140)"><g><clipPath id="clip-1141"><path d="M 609.5 136.2 L 953.3 136.2 L 953.3 183.3 L 609.5 183.3 Z M 609.5 136.2 "></path></clipPath><g clip-path="url(#clip-1141)"><text xml:space="preserve" font-family="TimesNewRomanPSMT" font-size="50.0" fill="#000000" transform="matrix(0.67, 0.00, -0.00, -0.67, 1669.5, -365.5)"> </text><text xml:space="preserve" font-family="Cambria" font-size="50.0" fill="#000000" transform="matrix(0.67, 0.00, -0.00, -0.67, 265.8, -365.5)">6</text><text xml:space="preserve" font-family="Cambria" font-size="50.0" fill="#000000" transform="matrix(0.67, 0.00, -0.00, -0.67, 284.5, -365.5)">5</text><text xml:space="preserve" font-family="Cambria" font-size="50.0" fill="#000000" transform="matrix(0.67, 0.00, -0.00, -0.67, 303.1, -365.5)">3</text><text xml:space="preserve" font-family="Cambria" font-size="50.0" fill="#000000" transform="matrix(0.67, 0.00, -0.00, -0.67, 321.1, -365.5)">!</text><text xml:space="preserve" font-family="TimesNewRomanPSMT" font-size="50.0" fill="#000000" transform="matrix(0.67, 0.00, -0.00, -0.67, 371.1, -462.1)">F</text><text xml:space="preserve" font-family="TimesNewRomanPSMT" font-size="50.0" fill="#000000" transform="matrix(0.67, 0.00, -0.00, -0.67, 389.6, -462.1)">i</text><text xml:space="preserve" font-family="TimesNewRomanPSMT" font-size="50.0" fill="#000000" transform="matrix(0.67, 0.00, -0.00, -0.67, 398.8, -462.1)">g</text><text xml:space="preserve" font-family="TimesNewRomanPSMT" font-size="50.0" fill="#000000" transform="matrix(0.67, 0.00, -0.00, -0.67, 415.5, -462.1)">u</text><text xml:space="preserve" font-family="TimesNewRomanPSMT" font-size="50.0" fill="#000000" transform="matrix(0.67, 0.00, -0.00, -0.67, 432.1, -462.1)">r</text><text xml:space="preserve" font-family="TimesNewRomanPSMT" font-size="50.0" fill="#000000" transform="matrix(0.67, 0.00, -0.00, -0.67, 443.2, -462.1)">e</text><text xml:space="preserve" font-family="TimesNewRomanPSMT" font-size="50.0" fill="#000000" transform="matrix(0.67, 0.00, -0.00, -0.67, 458.0, -462.1)"> </text><text xml:space="preserve" font-family="TimesNewRomanPSMT" font-size="50.0" fill="#000000" transform="matrix(0.67, 0.00, -0.00, -0.67, 466.3, -462.1)">3</text><text xml:space="preserve" font-family="TimesNewRomanPSMT" font-size="50.0" fill="#000000" transform="matrix(0.67, 0.00, -0.00, -0.67, 482.9, -462.1)"> </text><text xml:space="preserve" font-family="Cambria" font-size="50.0" fill="#000000" transform="matrix(0.67, 0.00, -0.00, -0.67, 265.8, -462.1)">6</text><text xml:space="preserve" font-family="Cambria" font-size="50.0" fill="#000000" transform="matrix(0.67, 0.00, -0.00, -0.67, 284.5, -462.1)">5</text><text xml:space="preserve" font-family="Cambria" font-size="50.0" fill="#000000" transform="matrix(0.67, 0.00, -0.00, -0.67, 303.1, -462.1)">4</text><text xml:space="preserve" font-family="Cambria" font-size="50.0" fill="#000000" transform="matrix(0.67, 0.00, -0.00, -0.67, 321.1, -462.1)">!</text></g></g></g></g><g><clipPath id="clip-1142"><path d="M 612.0 181.0 L 951.0 181.0 L 951.0 139.0 L 612.0 139.0 Z M 612.0 180.8 "></path></clipPath><g clip-path="url(#clip-1142)"><g><clipPath id="clip-1143"><path d="M 371.1 933.2 L 1669.5 933.2 L 1669.5 -365.5 L 371.1 -365.5 Z M 371.1 933.2 "></path></clipPath><g clip-path="url(#clip-1143)"><g><clipPath id="clip-1144"><path d="M 609.5 136.2 L 953.3 136.2 L 953.3 183.3 L 609.5 183.3 Z M 609.5 136.2 "></path></clipPath><g clip-path="url(#clip-1144)"><image xlink:href="../../C424D849-8908-4A5C-81B2-DF74E22B34CE/assets/2F85893813181C7C7A844D177F9D71C2.png" width="2400.00" height="2400.00" transform="matrix(0.54, 0.00, -0.00, -0.54, 371.1, 933.2)"></image></g></g></g></g></g></g><g><clipPath id="clip-1145"><path d="M 609.5 136.2 L 953.3 136.2 L 953.3 183.3 L 609.5 183.3 Z M 609.5 136.2 "></path></clipPath><g clip-path="url(#clip-1145)"><path d="M 0.0 0.0 L 0.0 42.1 L 338.8 42.1 L 338.8 0.0 L 0.0 0.0 Z M 0.0 0.0 " fill="none" stroke="#FEFFFE" stroke-width="5.00" transform="matrix(1.00, 0.00, 0.00, -1.00, 612.0, 180.8)"></path></g></g><text xml:space="preserve" font-family="Helvetica-Light" font-size="36.0" fill="#000000" transform="matrix(1.00, 0.00, -0.00, -1.00, 429.0, 68.0)">C</text><text xml:space="preserve" font-family="Helvetica-Light" font-size="36.0" fill="#000000" transform="matrix(1.00, 0.00, -0.00, -1.00, 455.0, 68.0)">l</text><text xml:space="preserve" font-family="Helvetica-Light" font-size="36.0" fill="#000000" transform="matrix(1.00, 0.00, -0.00, -1.00, 463.0, 68.0)">i</text><text xml:space="preserve" font-family="Helvetica-Light" font-size="36.0" fill="#000000" transform="matrix(1.00, 0.00, -0.00, -1.00, 471.0, 68.0)">m</text><text xml:space="preserve" font-family="Helvetica-Light" font-size="36.0" fill="#000000" transform="matrix(1.00, 0.00, -0.00, -1.00, 501.0, 68.0)">a</text><text xml:space="preserve" font-family="Helvetica-Light" font-size="36.0" fill="#000000" transform="matrix(1.00, 0.00, -0.00, -1.00, 521.0, 68.0)">t</text><text xml:space="preserve" font-family="Helvetica-Light" font-size="36.0" fill="#000000" transform="matrix(1.00, 0.00, -0.00, -1.00, 531.0, 68.0)">e</text><text xml:space="preserve" font-family="Helvetica-Light" font-size="36.0" fill="#000000" transform="matrix(1.00, 0.00, -0.00, -1.00, 551.0, 68.0)"> </text><text xml:space="preserve" font-family="Helvetica-Light" font-size="36.0" fill="#000000" transform="matrix(1.00, 0.00, -0.00, -1.00, 561.0, 68.0)">v</text><text xml:space="preserve" font-family="Helvetica-Light" font-size="36.0" fill="#000000" transform="matrix(1.00, 0.00, -0.00, -1.00, 579.0, 68.0)">e</text><text xml:space="preserve" font-family="Helvetica-Light" font-size="36.0" fill="#000000" transform="matrix(1.00, 0.00, -0.00, -1.00, 599.0, 68.0)">l</text><text xml:space="preserve" font-family="Helvetica-Light" font-size="36.0" fill="#000000" transform="matrix(1.00, 0.00, -0.00, -1.00, 607.0, 68.0)">o</text><text xml:space="preserve" font-family="Helvetica-Light" font-size="36.0" fill="#000000" transform="matrix(1.00, 0.00, -0.00, -1.00, 627.0, 68.0)">c</text><text xml:space="preserve" font-family="Helvetica-Light" font-size="36.0" fill="#000000" transform="matrix(1.00, 0.00, -0.00, -1.00, 647.1, 68.0)">i</text><text xml:space="preserve" font-family="Helvetica-Light" font-size="36.0" fill="#000000" transform="matrix(1.00, 0.00, -0.00, -1.00, 655.0, 68.0)">t</text><text xml:space="preserve" font-family="Helvetica-Light" font-size="36.0" fill="#000000" transform="matrix(1.00, 0.00, -0.00, -1.00, 665.1, 68.0)">y</text><text xml:space="preserve" font-family="Helvetica-Light" font-size="36.0" fill="#000000" transform="matrix(0.00, 1.00, 1.00, -0.00, 52.0, 205.0)">H</text><text xml:space="preserve" font-family="Helvetica-Light" font-size="36.0" fill="#000000" transform="matrix(0.00, 1.00, 1.00, -0.00, 52.0, 231.0)">a</text><text xml:space="preserve" font-family="Helvetica-Light" font-size="36.0" fill="#000000" transform="matrix(0.00, 1.00, 1.00, -0.00, 52.0, 251.0)">r</text><text xml:space="preserve" font-family="Helvetica-Light" font-size="36.0" fill="#000000" transform="matrix(0.00, 1.00, 1.00, -0.00, 52.0, 263.0)">v</text><text xml:space="preserve" font-family="Helvetica-Light" font-size="36.0" fill="#000000" transform="matrix(0.00, 1.00, 1.00, -0.00, 52.0, 281.0)">e</text><text xml:space="preserve" font-family="Helvetica-Light" font-size="36.0" fill="#000000" transform="matrix(0.00, 1.00, 1.00, -0.00, 52.0, 301.0)">s</text><text xml:space="preserve" font-family="Helvetica-Light" font-size="36.0" fill="#000000" transform="matrix(0.00, 1.00, 1.00, -0.00, 52.0, 319.0)">t</text><text xml:space="preserve" font-family="Helvetica-Light" font-size="36.0" fill="#000000" transform="matrix(0.00, 1.00, 1.00, -0.00, 52.0, 329.0)"> </text><text xml:space="preserve" font-family="Helvetica-Light" font-size="36.0" fill="#000000" transform="matrix(0.00, 1.00, 1.00, -0.00, 52.0, 339.0)">r</text><text xml:space="preserve" font-family="Helvetica-Light" font-size="36.0" fill="#000000" transform="matrix(0.00, 1.00, 1.00, -0.00, 52.0, 351.0)">a</text><text xml:space="preserve" font-family="Helvetica-Light" font-size="36.0" fill="#000000" transform="matrix(0.00, 1.00, 1.00, -0.00, 52.0, 371.0)">t</text><text xml:space="preserve" font-family="Helvetica-Light" font-size="36.0" fill="#000000" transform="matrix(0.00, 1.00, 1.00, -0.00, 52.0, 381.0)">e</text><text xml:space="preserve" font-family="Helvetica-Light" font-size="68.8" fill="#000000" transform="matrix(1.00, 0.00, -0.00, -1.00, 81.0, 622.0)">P</text><text xml:space="preserve" font-family="Helvetica-Light" font-size="68.8" fill="#000000" transform="matrix(1.00, 0.00, -0.00, -1.00, 117.9, 622.0)">A</text><text xml:space="preserve" font-family="Helvetica-Light" font-size="68.8" fill="#000000" transform="matrix(1.00, 0.00, -0.00, -1.00, 163.8, 622.0)">s</text><text xml:space="preserve" font-family="Helvetica-Light" font-size="68.8" fill="#000000" transform="matrix(1.00, 0.00, -0.00, -1.00, 198.2, 622.0)"> </text><text xml:space="preserve" font-family="Helvetica-Light" font-size="68.8" fill="#000000" transform="matrix(1.00, 0.00, -0.00, -1.00, 217.4, 622.0)">r</text><text xml:space="preserve" font-family="Helvetica-Light" font-size="68.8" fill="#000000" transform="matrix(1.00, 0.00, -0.00, -1.00, 239.0, 622.0)">e</text><text xml:space="preserve" font-family="Helvetica-Light" font-size="68.8" fill="#000000" transform="matrix(1.00, 0.00, -0.00, -1.00, 277.3, 622.0)">d</text><text xml:space="preserve" font-family="Helvetica-Light" font-size="68.8" fill="#000000" transform="matrix(1.00, 0.00, -0.00, -1.00, 319.3, 622.0)">u</text><text xml:space="preserve" font-family="Helvetica-Light" font-size="68.8" fill="#000000" transform="matrix(1.00, 0.00, -0.00, -1.00, 357.6, 622.0)">c</text><text xml:space="preserve" font-family="Helvetica-Light" font-size="68.8" fill="#000000" transform="matrix(1.00, 0.00, -0.00, -1.00, 395.8, 622.0)">e</text><text xml:space="preserve" font-family="Helvetica-Light" font-size="68.8" fill="#000000" transform="matrix(1.00, 0.00, -0.00, -1.00, 434.1, 622.0)"> </text><text xml:space="preserve" font-family="Helvetica-Light" font-size="68.8" fill="#000000" transform="matrix(1.00, 0.00, -0.00, -1.00, 453.2, 622.0)">h</text><text xml:space="preserve" font-family="Helvetica-Light" font-size="68.8" fill="#000000" transform="matrix(1.00, 0.00, -0.00, -1.00, 491.5, 622.0)">a</text><text xml:space="preserve" font-family="Helvetica-Light" font-size="68.8" fill="#000000" transform="matrix(1.00, 0.00, -0.00, -1.00, 529.7, 622.0)">r</text><text xml:space="preserve" font-family="Helvetica-Light" font-size="68.8" fill="#000000" transform="matrix(1.00, 0.00, -0.00, -1.00, 552.6, 622.0)">v</text><text xml:space="preserve" font-family="Helvetica-Light" font-size="68.8" fill="#000000" transform="matrix(1.00, 0.00, -0.00, -1.00, 587.0, 622.0)">e</text><text xml:space="preserve" font-family="Helvetica-Light" font-size="68.8" fill="#000000" transform="matrix(1.00, 0.00, -0.00, -1.00, 625.3, 622.0)">s</text><text xml:space="preserve" font-family="Helvetica-Light" font-size="68.8" fill="#000000" transform="matrix(1.00, 0.00, -0.00, -1.00, 659.7, 622.0)">t</text><text xml:space="preserve" font-family="Helvetica-Light" font-size="68.8" fill="#000000" transform="matrix(1.00, 0.00, -0.00, -1.00, 678.8, 622.0)"> </text><text xml:space="preserve" font-family="Helvetica-Light" font-size="68.8" fill="#000000" transform="matrix(1.00, 0.00, -0.00, -1.00, 697.9, 622.0)">i</text><text xml:space="preserve" font-family="Helvetica-Light" font-size="68.8" fill="#000000" transform="matrix(1.00, 0.00, -0.00, -1.00, 713.2, 622.0)">m</text><text xml:space="preserve" font-family="Helvetica-Light" font-size="68.8" fill="#000000" transform="matrix(1.00, 0.00, -0.00, -1.00, 770.5, 622.0)">p</text><text xml:space="preserve" font-family="Helvetica-Light" font-size="68.8" fill="#000000" transform="matrix(1.00, 0.00, -0.00, -1.00, 812.6, 622.0)">a</text><text xml:space="preserve" font-family="Helvetica-Light" font-size="68.8" fill="#000000" transform="matrix(1.00, 0.00, -0.00, -1.00, 850.8, 622.0)">c</text><text xml:space="preserve" font-family="Helvetica-Light" font-size="68.8" fill="#000000" transform="matrix(1.00, 0.00, -0.00, -1.00, 889.1, 622.0)">t</text><text xml:space="preserve" font-family="Helvetica-Light" font-size="68.8" fill="#000000" transform="matrix(1.00, 0.00, -0.00, -1.00, 908.2, 622.0)">s</text><path d="M 563.1 298.8 C 561.3 298.7 558.9 298.8 558.4 301.5 C 557.9 304.1 559.7 306.4 562.5 306.5 C 565.2 306.7 564.5 305.2 570.9 305.5 C 573.3 305.6 573.6 300.7 571.2 300.6 C 565.6 300.4 566.5 299.0 563.1 298.8 C 563.1 298.8 563.1 298.8 563.1 298.8 Z M 817.7 233.4 C 818.2 233.0 818.5 232.5 818.8 232.1 C 820.1 229.7 819.6 228.2 817.8 227.0 C 816.1 225.7 814.4 226.0 813.0 227.4 C 812.9 227.2 812.5 227.6 812.1 228.0 C 810.0 230.2 811.2 231.1 807.6 234.5 C 805.6 236.4 809.3 239.6 810.9 238.1 C 814.8 234.4 815.3 235.9 817.7 233.4 C 817.7 233.4 817.7 233.4 817.7 233.4 Z M 571.4 300.6 C 569.3 300.5 569.0 305.5 571.5 305.6 C 574.1 305.7 579.9 305.0 581.4 305.1 C 582.9 305.3 587.1 306.2 588.4 306.2 C 589.7 306.3 596.1 304.8 598.8 305.2 C 601.6 305.5 602.3 305.3 604.2 305.2 C 606.1 305.2 609.1 304.8 610.8 304.6 C 612.6 304.4 614.3 305.6 616.6 305.1 C 618.9 304.7 620.2 305.1 621.8 305.0 C 624.4 304.8 623.9 299.9 621.5 300.1 C 619.2 300.2 617.6 300.0 615.7 300.2 C 613.7 300.4 612.1 301.0 610.2 300.6 C 608.3 300.2 604.7 300.8 602.5 301.2 C 600.3 301.6 597.8 301.5 596.0 301.3 C 592.5 300.9 584.0 301.8 582.8 301.3 C 581.6 300.9 577.7 301.2 576.3 301.2 C 575.0 301.1 574.2 300.8 571.4 300.6 C 571.4 300.6 571.4 300.6 571.4 300.6 Z M 672.1 298.7 C 674.4 298.3 674.0 293.4 671.2 293.9 C 668.5 294.4 663.6 295.7 662.1 295.8 C 660.7 295.9 654.5 296.5 653.2 296.7 C 651.9 296.9 647.4 298.2 644.7 298.1 C 642.0 298.1 639.4 299.2 637.6 299.1 C 635.3 299.1 634.1 299.5 632.3 299.7 C 630.6 300.0 627.8 299.3 626.3 299.8 C 624.8 300.3 624.0 299.9 621.9 300.1 C 619.8 300.2 620.1 305.1 622.1 304.9 C 624.1 304.8 625.8 304.6 627.8 304.3 C 629.7 304.0 632.1 303.8 634.2 303.5 C 636.2 303.4 639.1 303.7 641.3 303.1 C 643.5 302.5 646.7 302.0 648.0 301.8 C 649.6 301.5 653.1 301.2 654.6 300.7 C 656.4 300.1 659.8 300.1 661.0 300.3 C 662.3 300.6 663.1 299.9 665.7 299.5 C 667.3 299.3 669.8 299.1 672.1 298.7 C 672.1 298.7 672.1 298.7 672.1 298.7 Z M 672.8 298.6 C 675.5 298.1 679.8 296.6 680.8 296.4 C 681.9 296.2 685.5 295.8 687.2 295.3 C 688.9 294.9 689.4 294.4 692.2 293.6 C 695.7 292.7 698.1 292.6 698.3 292.6 C 698.8 292.7 700.7 292.7 703.0 292.0 C 706.2 291.0 707.2 291.2 708.6 290.7 C 710.9 289.4 711.2 289.9 713.1 289.3 C 714.9 288.7 716.1 288.6 717.4 288.0 C 718.9 287.2 720.3 287.5 721.7 287.0 C 724.0 286.4 722.4 281.7 720.2 282.4 C 719.0 282.7 717.9 283.6 716.6 283.9 C 715.2 284.3 714.0 284.6 712.6 284.7 C 711.1 284.9 708.3 286.0 706.0 286.5 C 703.7 286.9 699.9 287.6 697.3 288.3 C 694.7 289.1 693.3 290.6 687.7 291.0 C 685.9 291.2 682.5 292.1 681.1 292.4 C 678.6 292.9 673.8 293.4 671.7 293.8 C 669.2 294.3 670.2 299.0 672.8 298.6 C 672.8 298.6 672.8 298.6 672.8 298.6 Z M 769.0 268.6 C 771.2 267.5 769.2 263.0 766.7 264.3 C 764.3 265.6 759.9 268.2 758.5 268.7 C 757.1 269.3 751.4 271.5 750.2 272.0 C 749.0 272.5 744.9 274.9 742.3 275.4 C 739.6 276.0 737.4 277.6 735.6 278.0 C 733.4 278.5 732.3 279.1 730.7 279.7 C 729.1 280.4 726.2 280.2 724.9 281.0 C 723.7 281.9 722.7 281.7 720.8 282.2 C 718.8 282.8 720.1 287.5 722.0 286.9 C 723.9 286.4 725.5 285.8 727.3 285.2 C 729.1 284.5 731.4 283.7 733.4 283.0 C 735.2 282.4 738.2 282.1 740.2 281.0 C 742.2 280.0 745.2 278.7 746.4 278.2 C 747.9 277.5 751.2 276.3 752.5 275.5 C 754.1 274.4 757.4 273.6 758.7 273.4 C 760.0 273.3 760.5 272.4 763.0 271.3 C 764.5 270.7 766.9 269.7 769.0 268.6 C 769.0 268.6 769.0 268.6 769.0 268.6 Z M 769.7 268.2 C 772.2 266.9 775.8 264.1 776.8 263.5 C 777.8 262.9 781.2 261.2 782.6 260.2 C 783.9 259.2 784.2 258.6 786.4 256.9 C 789.3 254.8 791.5 253.8 791.6 253.7 C 792.1 253.6 793.8 252.9 795.7 251.3 C 798.1 249.1 799.1 248.9 800.1 247.8 C 801.7 245.7 802.2 246.0 803.6 244.6 C 805.0 243.3 806.1 242.6 807.0 241.4 C 808.1 240.0 809.4 239.7 810.5 238.5 C 812.3 236.8 808.7 233.5 807.1 235.0 C 806.1 236.0 805.5 237.2 804.5 238.2 C 803.4 239.2 802.4 239.9 801.2 240.7 C 799.9 241.5 797.9 243.7 796.1 245.0 C 794.2 246.4 791.1 248.5 789.0 250.2 C 787.0 251.8 786.3 253.8 781.4 256.1 C 779.9 256.8 777.0 258.9 775.7 259.6 C 773.5 261.0 769.0 263.1 767.2 264.0 C 764.9 265.2 767.2 269.5 769.7 268.2 C 769.7 268.2 769.7 268.2 769.7 268.2 Z M 813.6 226.3 C 812.6 227.7 811.5 229.9 813.5 231.7 C 815.6 233.4 818.4 233.0 819.9 230.7 C 821.5 228.5 819.8 228.3 823.4 223.0 C 824.7 221.1 820.8 218.2 819.4 220.2 C 816.2 224.9 815.5 223.5 813.6 226.3 C 813.6 226.3 813.6 226.3 813.6 226.3 Z M 843.5 196.1 C 845.4 193.4 845.1 191.6 843.0 190.1 C 840.8 188.5 838.7 189.3 837.1 191.7 C 835.4 194.1 836.7 194.9 833.9 198.9 C 832.4 201.1 836.7 203.5 837.9 201.7 C 840.9 197.4 841.7 198.8 843.5 196.1 C 843.5 196.1 843.5 196.1 843.5 196.1 Z M 837.7 202.1 C 838.4 201.1 834.5 198.2 833.7 199.3 C 832.9 200.5 831.8 202.8 831.3 203.4 C 830.8 203.9 828.8 206.3 828.5 206.9 C 828.1 207.4 827.4 209.8 826.3 210.7 C 825.2 211.6 825.1 213.1 824.4 213.7 C 823.5 214.6 823.4 215.2 823.0 216.0 C 822.5 216.8 821.0 217.4 820.9 218.2 C 820.8 219.1 820.2 219.2 819.6 220.0 C 819.0 220.9 823.0 223.6 823.6 222.8 C 824.1 222.0 824.5 221.3 825.0 220.4 C 825.5 219.5 826.1 218.5 826.7 217.6 C 827.2 216.8 828.5 215.9 828.9 214.8 C 829.3 213.7 830.1 212.3 830.4 211.7 C 830.8 211.0 831.9 209.7 832.1 208.9 C 832.4 207.9 833.7 206.8 834.4 206.6 C 835.1 206.3 834.9 205.6 835.7 204.6 C 836.2 204.0 837.1 203.0 837.7 202.1 C 837.7 202.1 837.7 202.1 837.7 202.1 Z M 837.7 202.1 " fill="#2AA198"></path><path d="M 173.6 270.2 C 171.8 270.1 169.3 270.2 168.9 272.9 C 168.4 275.6 170.3 277.8 173.0 277.9 C 175.8 278.0 175.0 276.6 181.4 276.8 C 183.8 276.9 184.1 272.0 181.7 271.9 C 176.1 271.7 176.9 270.3 173.6 270.2 C 173.6 270.2 173.6 270.2 173.6 270.2 Z M 416.9 223.8 C 417.4 223.4 417.8 223.0 418.1 222.6 C 419.7 220.4 419.3 218.9 417.8 217.5 C 416.2 216.0 414.5 216.0 412.9 217.3 C 412.9 217.1 412.5 217.4 412.0 217.7 C 409.8 219.5 410.8 220.6 406.8 223.5 C 404.7 225.0 407.9 228.7 409.7 227.4 C 414.0 224.3 414.2 225.9 416.9 223.8 C 416.9 223.8 416.9 223.8 416.9 223.8 Z M 181.9 271.9 C 179.9 271.8 179.7 276.7 182.0 276.8 C 184.4 276.9 189.8 276.1 191.2 276.3 C 192.6 276.4 196.4 277.4 197.7 277.4 C 198.9 277.4 204.8 275.9 207.3 276.3 C 209.9 276.7 210.6 276.4 212.3 276.4 C 214.1 276.4 216.8 276.0 218.5 275.8 C 220.2 275.7 221.7 276.9 223.8 276.5 C 226.0 276.0 227.2 276.5 228.7 276.4 C 231.1 276.3 230.7 271.4 228.5 271.5 C 226.3 271.6 224.9 271.4 223.0 271.5 C 221.2 271.7 219.7 272.3 217.9 271.8 C 216.2 271.4 212.9 272.0 210.8 272.4 C 208.7 272.7 206.4 272.6 204.8 272.4 C 201.5 272.0 193.6 272.9 192.5 272.5 C 191.3 272.1 187.7 272.4 186.5 272.3 C 185.2 272.3 184.5 272.0 181.9 271.9 C 181.9 271.9 181.9 271.9 181.9 271.9 Z M 275.6 272.0 C 277.8 271.7 277.5 266.8 274.9 267.2 C 272.4 267.5 267.8 268.5 266.4 268.6 C 265.0 268.7 259.3 269.0 258.0 269.1 C 256.8 269.3 252.6 270.4 250.1 270.2 C 247.5 270.1 245.1 271.1 243.4 271.0 C 241.2 270.9 240.1 271.2 238.5 271.4 C 236.9 271.7 234.3 270.8 232.9 271.3 C 231.5 271.8 230.7 271.4 228.8 271.5 C 226.8 271.6 227.1 276.5 228.9 276.4 C 230.8 276.3 232.4 276.1 234.2 275.9 C 236.0 275.7 238.2 275.4 240.2 275.3 C 242.0 275.2 244.7 275.6 246.8 275.1 C 248.9 274.6 251.9 274.2 253.1 274.0 C 254.6 273.8 257.9 273.6 259.2 273.2 C 261.0 272.7 264.1 272.8 265.3 273.1 C 266.4 273.4 267.2 272.7 269.6 272.5 C 271.1 272.4 273.4 272.3 275.6 272.0 C 275.6 272.0 275.6 272.0 275.6 272.0 Z M 276.3 271.9 C 278.8 271.6 282.8 270.3 283.8 270.2 C 284.8 270.0 288.2 269.9 289.7 269.5 C 291.3 269.2 291.8 268.7 294.4 268.1 C 297.7 267.4 299.9 267.5 300.1 267.6 C 300.6 267.6 302.3 267.8 304.5 267.3 C 307.4 266.5 308.4 266.8 309.7 266.3 C 311.9 265.3 312.2 265.8 313.9 265.4 C 315.6 264.9 316.7 264.9 318.1 264.3 C 319.5 263.7 320.8 264.1 322.1 263.8 C 324.3 263.3 323.0 258.5 321.0 259.0 C 319.8 259.2 318.8 260.0 317.5 260.3 C 316.2 260.6 315.0 260.7 313.6 260.8 C 312.3 260.8 309.7 261.7 307.5 262.0 C 305.4 262.3 301.8 262.7 299.3 263.2 C 296.9 263.8 295.5 265.2 290.4 265.3 C 288.7 265.3 285.5 266.0 284.1 266.2 C 281.8 266.6 277.3 266.8 275.4 267.1 C 273.1 267.4 273.8 272.3 276.3 271.9 C 276.3 271.9 276.3 271.9 276.3 271.9 Z M 367.5 250.6 C 369.6 249.8 368.1 245.1 365.7 246.0 C 363.4 246.9 359.1 249.0 357.8 249.3 C 356.5 249.7 350.9 251.2 349.8 251.5 C 348.6 251.9 344.7 253.8 342.2 254.1 C 339.6 254.3 337.5 255.7 335.8 256.0 C 333.6 256.2 332.6 256.8 331.0 257.2 C 329.4 257.7 326.8 257.4 325.5 258.1 C 324.3 258.8 323.4 258.5 321.5 258.9 C 319.6 259.3 320.6 264.1 322.4 263.7 C 324.2 263.3 325.8 262.9 327.5 262.3 C 329.3 261.8 331.4 261.2 333.4 260.8 C 335.1 260.3 337.9 260.2 339.8 259.4 C 341.8 258.6 344.7 257.6 345.8 257.2 C 347.3 256.8 350.4 256.0 351.7 255.3 C 353.3 254.4 356.4 253.9 357.6 254.0 C 358.8 254.0 359.4 253.2 361.8 252.4 C 363.2 252.0 365.5 251.4 367.5 250.6 C 367.5 250.6 367.5 250.6 367.5 250.6 Z M 368.2 250.3 C 370.5 249.4 374.1 247.2 375.1 246.7 C 376.0 246.3 379.3 245.3 380.7 244.5 C 382.1 243.7 382.4 243.1 384.8 241.8 C 387.7 240.1 389.8 239.5 390.0 239.4 C 390.5 239.4 392.2 239.0 394.1 237.7 C 396.6 236.0 397.6 235.9 398.6 235.0 C 400.3 233.3 400.8 233.6 402.2 232.5 C 403.7 231.5 404.7 231.0 405.7 230.0 C 406.8 228.8 408.1 228.7 409.3 227.8 C 411.1 226.5 408.0 222.7 406.3 223.9 C 405.3 224.6 404.7 225.7 403.6 226.5 C 402.5 227.2 401.5 227.8 400.3 228.4 C 399.0 228.9 396.9 230.7 395.1 231.7 C 393.2 232.7 390.0 234.3 387.9 235.6 C 385.8 236.9 385.0 238.6 380.1 240.2 C 378.5 240.7 375.6 242.3 374.4 242.8 C 372.2 243.8 368.0 245.2 366.1 245.9 C 364.0 246.7 365.8 251.3 368.2 250.3 C 368.2 250.3 368.2 250.3 368.2 250.3 Z M 413.7 216.2 C 412.5 217.6 411.1 219.6 412.9 221.6 C 414.8 223.6 417.6 223.5 419.4 221.4 C 421.2 219.4 419.6 219.0 423.8 214.2 C 425.4 212.4 421.8 209.1 420.2 210.9 C 416.4 215.2 415.9 213.7 413.7 216.2 C 413.7 216.2 413.7 216.2 413.7 216.2 Z M 441.7 196.1 C 443.8 193.6 443.8 191.8 441.9 190.1 C 439.9 188.2 437.7 188.8 435.8 191.0 C 433.9 193.2 435.1 194.0 431.8 197.7 C 430.0 199.7 434.0 202.6 435.4 201.0 C 438.9 197.0 439.5 198.6 441.7 196.1 C 441.7 196.1 441.7 196.1 441.7 196.1 Z M 435.2 201.3 C 435.7 200.7 432.1 197.3 431.5 198.0 C 430.9 198.7 430.1 200.3 429.7 200.7 C 429.3 201.0 427.7 202.4 427.4 202.7 C 427.1 203.0 426.6 204.7 425.7 205.1 C 424.8 205.5 424.8 206.7 424.2 207.1 C 423.5 207.5 423.4 208.0 423.1 208.5 C 422.8 209.0 421.4 209.0 421.4 209.7 C 421.4 210.3 420.8 210.2 420.3 210.8 C 419.9 211.3 423.5 214.5 424.0 214.0 C 424.4 213.5 424.7 213.0 425.1 212.5 C 425.5 211.9 425.9 211.2 426.4 210.7 C 426.8 210.2 427.9 209.9 428.2 209.1 C 428.5 208.3 429.1 207.4 429.3 207.0 C 429.7 206.6 430.6 205.8 430.7 205.2 C 430.9 204.5 432.0 204.0 432.6 204.0 C 433.1 203.9 432.9 203.3 433.6 202.7 C 434.0 202.4 434.7 201.9 435.2 201.3 C 435.2 201.3 435.2 201.3 435.2 201.3 Z M 435.2 201.3 " fill="#2AA198"></path><path d="M 0.0 0.0 L 34.2 0.0 L 36.2 0.0 " fill="none" stroke="#2AA198" stroke-width="4.00" transform="matrix(0.00, 1.00, 1.00, 0.00, 578.0, 237.3)"></path><path d="M 586.4 271.5 L 578.0 288.3 L 569.6 271.5 Z M 586.4 271.5 " fill="#2AA198"></path><text xml:space="preserve" font-family="Helvetica-Light" font-size="36.0" fill="#000000" transform="matrix(1.00, 0.00, -0.00, -1.00, 591.0, 506.0)">W</text><text xml:space="preserve" font-family="Helvetica-Light" font-size="36.0" fill="#000000" transform="matrix(1.00, 0.00, -0.00, -1.00, 623.0, 506.0)">i</text><text xml:space="preserve" font-family="Helvetica-Light" font-size="36.0" fill="#000000" transform="matrix(1.00, 0.00, -0.00, -1.00, 631.0, 506.0)">t</text><text xml:space="preserve" font-family="Helvetica-Light" font-size="36.0" fill="#000000" transform="matrix(1.00, 0.00, -0.00, -1.00, 641.0, 506.0)">h</text><text xml:space="preserve" font-family="Helvetica-Light" font-size="36.0" fill="#000000" transform="matrix(1.00, 0.00, -0.00, -1.00, 661.0, 506.0)"> </text><text xml:space="preserve" font-family="Helvetica-Light" font-size="36.0" fill="#000000" transform="matrix(1.00, 0.00, -0.00, -1.00, 671.0, 506.0)">p</text><text xml:space="preserve" font-family="Helvetica-Light" font-size="36.0" fill="#000000" transform="matrix(1.00, 0.00, -0.00, -1.00, 693.0, 506.0)">r</text><text xml:space="preserve" font-family="Helvetica-Light" font-size="36.0" fill="#000000" transform="matrix(1.00, 0.00, -0.00, -1.00, 704.4, 506.0)">o</text><text xml:space="preserve" font-family="Helvetica-Light" font-size="36.0" fill="#000000" transform="matrix(1.00, 0.00, -0.00, -1.00, 724.4, 506.0)">t</text><text xml:space="preserve" font-family="Helvetica-Light" font-size="36.0" fill="#000000" transform="matrix(1.00, 0.00, -0.00, -1.00, 734.4, 506.0)">e</text><text xml:space="preserve" font-family="Helvetica-Light" font-size="36.0" fill="#000000" transform="matrix(1.00, 0.00, -0.00, -1.00, 754.4, 506.0)">c</text><text xml:space="preserve" font-family="Helvetica-Light" font-size="36.0" fill="#000000" transform="matrix(1.00, 0.00, -0.00, -1.00, 774.4, 506.0)">t</text><text xml:space="preserve" font-family="Helvetica-Light" font-size="36.0" fill="#000000" transform="matrix(1.00, 0.00, -0.00, -1.00, 784.4, 506.0)">e</text><text xml:space="preserve" font-family="Helvetica-Light" font-size="36.0" fill="#000000" transform="matrix(1.00, 0.00, -0.00, -1.00, 804.4, 506.0)">d</text><text xml:space="preserve" font-family="Helvetica-Light" font-size="36.0" fill="#000000" transform="matrix(1.00, 0.00, -0.00, -1.00, 826.4, 506.0)"> </text><text xml:space="preserve" font-family="Helvetica-Light" font-size="36.0" fill="#000000" transform="matrix(1.00, 0.00, -0.00, -1.00, 836.4, 506.0)">a</text><text xml:space="preserve" font-family="Helvetica-Light" font-size="36.0" fill="#000000" transform="matrix(1.00, 0.00, -0.00, -1.00, 856.5, 506.0)">r</text><text xml:space="preserve" font-family="Helvetica-Light" font-size="36.0" fill="#000000" transform="matrix(1.00, 0.00, -0.00, -1.00, 867.8, 506.0)">e</text><text xml:space="preserve" font-family="Helvetica-Light" font-size="36.0" fill="#000000" transform="matrix(1.00, 0.00, -0.00, -1.00, 887.8, 506.0)">a</text><text xml:space="preserve" font-family="Helvetica-Light" font-size="36.0" fill="#000000" transform="matrix(1.00, 0.00, -0.00, -1.00, 907.8, 506.0)">s</text><text xml:space="preserve" font-family="Helvetica-Light" font-size="36.0" fill="#000000" transform="matrix(1.00, 0.00, -0.00, -1.00, 138.0, 510.0)">W</text><text xml:space="preserve" font-family="Helvetica-Light" font-size="36.0" fill="#000000" transform="matrix(1.00, 0.00, -0.00, -1.00, 170.0, 510.0)">i</text><text xml:space="preserve" font-family="Helvetica-Light" font-size="36.0" fill="#000000" transform="matrix(1.00, 0.00, -0.00, -1.00, 178.0, 510.0)">t</text><text xml:space="preserve" font-family="Helvetica-Light" font-size="36.0" fill="#000000" transform="matrix(1.00, 0.00, -0.00, -1.00, 188.0, 510.0)">h</text><text xml:space="preserve" font-family="Helvetica-Light" font-size="36.0" fill="#000000" transform="matrix(1.00, 0.00, -0.00, -1.00, 208.0, 510.0)">o</text><text xml:space="preserve" font-family="Helvetica-Light" font-size="36.0" fill="#000000" transform="matrix(1.00, 0.00, -0.00, -1.00, 228.0, 510.0)">u</text><text xml:space="preserve" font-family="Helvetica-Light" font-size="36.0" fill="#000000" transform="matrix(1.00, 0.00, -0.00, -1.00, 248.1, 510.0)">t</text><text xml:space="preserve" font-family="Helvetica-Light" font-size="36.0" fill="#000000" transform="matrix(1.00, 0.00, -0.00, -1.00, 258.1, 510.0)"> </text><text xml:space="preserve" font-family="Helvetica-Light" font-size="36.0" fill="#000000" transform="matrix(1.00, 0.00, -0.00, -1.00, 268.1, 510.0)">p</text><text xml:space="preserve" font-family="Helvetica-Light" font-size="36.0" fill="#000000" transform="matrix(1.00, 0.00, -0.00, -1.00, 290.1, 510.0)">r</text><text xml:space="preserve" font-family="Helvetica-Light" font-size="36.0" fill="#000000" transform="matrix(1.00, 0.00, -0.00, -1.00, 301.4, 510.0)">o</text><text xml:space="preserve" font-family="Helvetica-Light" font-size="36.0" fill="#000000" transform="matrix(1.00, 0.00, -0.00, -1.00, 321.4, 510.0)">t</text><text xml:space="preserve" font-family="Helvetica-Light" font-size="36.0" fill="#000000" transform="matrix(1.00, 0.00, -0.00, -1.00, 331.4, 510.0)">e</text><text xml:space="preserve" font-family="Helvetica-Light" font-size="36.0" fill="#000000" transform="matrix(1.00, 0.00, -0.00, -1.00, 351.4, 510.0)">c</text><text xml:space="preserve" font-family="Helvetica-Light" font-size="36.0" fill="#000000" transform="matrix(1.00, 0.00, -0.00, -1.00, 371.5, 510.0)">t</text><text xml:space="preserve" font-family="Helvetica-Light" font-size="36.0" fill="#000000" transform="matrix(1.00, 0.00, -0.00, -1.00, 381.5, 510.0)">e</text><text xml:space="preserve" font-family="Helvetica-Light" font-size="36.0" fill="#000000" transform="matrix(1.00, 0.00, -0.00, -1.00, 401.5, 510.0)">d</text><text xml:space="preserve" font-family="Helvetica-Light" font-size="36.0" fill="#000000" transform="matrix(1.00, 0.00, -0.00, -1.00, 423.5, 510.0)"> </text><text xml:space="preserve" font-family="Helvetica-Light" font-size="36.0" fill="#000000" transform="matrix(1.00, 0.00, -0.00, -1.00, 433.5, 510.0)">a</text><text xml:space="preserve" font-family="Helvetica-Light" font-size="36.0" fill="#000000" transform="matrix(1.00, 0.00, -0.00, -1.00, 453.5, 510.0)">r</text><text xml:space="preserve" font-family="Helvetica-Light" font-size="36.0" fill="#000000" transform="matrix(1.00, 0.00, -0.00, -1.00, 464.8, 510.0)">e</text><text xml:space="preserve" font-family="Helvetica-Light" font-size="36.0" fill="#000000" transform="matrix(1.00, 0.00, -0.00, -1.00, 484.9, 510.0)">a</text><text xml:space="preserve" font-family="Helvetica-Light" font-size="36.0" fill="#000000" transform="matrix(1.00, 0.00, -0.00, -1.00, 504.9, 510.0)">s</text><text xml:space="preserve" font-family="Helvetica-Light" font-size="20.0" fill="#000000" transform="matrix(1.00, 0.00, -0.00, -1.00, 842.0, 31.0)">F</text><text xml:space="preserve" font-family="Helvetica-Light" font-size="20.0" fill="#000000" transform="matrix(1.00, 0.00, -0.00, -1.00, 853.1, 31.0)">u</text><text xml:space="preserve" font-family="Helvetica-Light" font-size="20.0" fill="#000000" transform="matrix(1.00, 0.00, -0.00, -1.00, 864.2, 31.0)">l</text><text xml:space="preserve" font-family="Helvetica-Light" font-size="20.0" fill="#000000" transform="matrix(1.00, 0.00, -0.00, -1.00, 868.7, 31.0)">l</text><text xml:space="preserve" font-family="Helvetica-Light" font-size="20.0" fill="#000000" transform="matrix(1.00, 0.00, -0.00, -1.00, 873.1, 31.0)">e</text><text xml:space="preserve" font-family="Helvetica-Light" font-size="20.0" fill="#000000" transform="matrix(1.00, 0.00, -0.00, -1.00, 884.2, 31.0)">r</text><text xml:space="preserve" font-family="Helvetica-Light" font-size="20.0" fill="#000000" transform="matrix(1.00, 0.00, -0.00, -1.00, 890.9, 31.0)"> </text><text xml:space="preserve" font-family="Helvetica-Light" font-size="20.0" fill="#000000" transform="matrix(1.00, 0.00, -0.00, -1.00, 896.5, 31.0)">e</text><text xml:space="preserve" font-family="Helvetica-Light" font-size="20.0" fill="#000000" transform="matrix(1.00, 0.00, -0.00, -1.00, 907.6, 31.0)">t</text><text xml:space="preserve" font-family="Helvetica-Light" font-size="20.0" fill="#000000" transform="matrix(1.00, 0.00, -0.00, -1.00, 913.1, 31.0)"> </text><text xml:space="preserve" font-family="Helvetica-Light" font-size="20.0" fill="#000000" transform="matrix(1.00, 0.00, -0.00, -1.00, 918.7, 31.0)">a</text><text xml:space="preserve" font-family="Helvetica-Light" font-size="20.0" fill="#000000" transform="matrix(1.00, 0.00, -0.00, -1.00, 929.8, 31.0)">l</text><text xml:space="preserve" font-family="Helvetica-Light" font-size="20.0" fill="#000000" transform="matrix(1.00, 0.00, -0.00, -1.00, 934.3, 31.0)">.</text><text xml:space="preserve" font-family="Helvetica-Light" font-size="20.0" fill="#000000" transform="matrix(1.00, 0.00, -0.00, -1.00, 939.8, 31.0)"> </text><text xml:space="preserve" font-family="Helvetica-Light" font-size="20.0" fill="#000000" transform="matrix(1.00, 0.00, -0.00, -1.00, 945.4, 31.0)">(</text><text xml:space="preserve" font-family="Helvetica-Light" font-size="20.0" fill="#000000" transform="matrix(1.00, 0.00, -0.00, -1.00, 952.0, 31.0)">2</text><text xml:space="preserve" font-family="Helvetica-Light" font-size="20.0" fill="#000000" transform="matrix(1.00, 0.00, -0.00, -1.00, 963.2, 31.0)">0</text><text xml:space="preserve" font-family="Helvetica-Light" font-size="20.0" fill="#000000" transform="matrix(1.00, 0.00, -0.00, -1.00, 974.3, 31.0)">1</text><text xml:space="preserve" font-family="Helvetica-Light" font-size="20.0" fill="#000000" transform="matrix(1.00, 0.00, -0.00, -1.00, 985.4, 31.0)">5</text><text xml:space="preserve" font-family="Helvetica-Light" font-size="20.0" fill="#000000" transform="matrix(1.00, 0.00, -0.00, -1.00, 996.5, 31.0)">)</text></g></svg>