<?xml version="1.0" encoding="UTF-8" standalone="no"?><svg xmlns="http://www.w3.org/2000/svg" xmlns:xlink="http://www.w3.org/1999/xlink" clip-rule="evenodd" stroke-miterlimit="4.00" viewBox="0 0 1024 768"><desc>SVG generated by Keynote</desc><defs></defs><g transform="matrix(1.00, 0.00, -0.00, -1.00, 0.0, 768.0)"><path d="M 0.0 768.0 L 1024.0 768.0 L 1024.0 0.0 L 0.0 0.0 Z M 0.0 768.0 " fill="#FEFFFF"></path><path d="M 416.4 213.1 C 416.9 213.7 418.4 213.2 419.3 213.4 C 423.6 214.2 428.9 216.3 433.2 217.4 C 439.0 218.8 446.6 220.7 452.5 221.6 C 457.2 222.4 463.4 222.8 468.1 223.3 C 470.1 223.6 472.8 223.5 474.7 224.2 C 479.8 226.2 484.7 232.1 489.4 235.0 C 491.3 236.2 494.0 238.7 496.0 238.4 C 496.4 238.3 496.9 237.7 497.1 237.3 C 497.5 236.5 497.4 235.3 497.4 234.4 C 497.4 233.8 497.2 233.0 497.1 232.4 C 497.1 231.7 497.1 230.8 497.1 230.2 C 497.1 229.6 496.9 228.9 497.1 228.5 C 497.5 227.8 498.8 227.6 499.4 227.0 C 499.7 226.7 499.8 225.9 500.2 225.6 C 506.8 221.5 518.8 223.1 526.9 222.8 C 529.8 222.7 533.5 223.5 536.3 223.1 C 537.4 222.9 538.7 222.2 539.7 221.9 C 541.8 221.3 544.6 220.9 546.5 219.9 C 547.2 219.6 547.8 218.7 548.5 218.5 C 549.4 218.2 550.7 218.7 551.7 218.5 C 552.5 218.3 553.4 217.6 554.2 217.4 C 554.8 217.2 555.6 217.1 556.2 217.1 C 556.8 217.0 557.6 217.3 558.2 217.1 C 559.0 216.8 559.7 215.6 560.5 215.4 C 561.4 215.2 562.8 216.3 563.6 216.0 C 564.1 215.8 564.3 214.8 564.7 214.5 C 565.5 214.1 566.7 214.0 567.6 214.0 C 568.1 214.0 568.8 214.4 569.3 214.2 C 569.8 214.0 569.9 212.8 570.4 212.5 C 571.0 212.2 572.0 212.4 572.7 212.5 C 573.2 212.6 573.9 213.1 574.4 213.1 C 575.2 213.1 576.2 212.4 576.9 212.0 C 577.9 211.5 579.1 210.2 580.1 210.3 C 583.5 210.4 587.1 215.0 590.3 216.8 C 593.7 218.7 598.2 221.3 601.9 222.2 C 603.9 222.7 607.3 223.7 608.5 222.5 C 610.9 220.0 600.7 215.0 597.4 211.7 C 596.3 210.6 595.1 208.7 593.7 208.0 C 593.2 207.8 592.2 207.5 592.0 207.7 C 591.7 208.0 593.6 206.0 594.3 205.2 C 595.6 203.6 597.3 201.5 598.2 199.8 C 599.3 198.0 600.0 195.4 600.8 193.5 C 601.3 192.3 602.7 190.7 602.5 189.5 C 602.3 188.6 599.4 189.8 598.2 190.4 C 596.5 191.2 594.7 193.2 593.1 194.4 C 591.1 195.9 588.3 197.8 586.3 199.5 C 585.2 200.4 583.9 201.8 582.9 202.9 C 582.2 203.6 581.5 204.7 580.6 205.2 C 580.2 205.4 579.5 205.7 578.9 205.7 C 577.3 205.7 575.2 204.6 573.5 204.0 C 571.4 203.3 568.6 202.2 566.4 201.5 C 559.7 199.2 551.1 196.6 544.3 194.6 C 540.0 193.4 534.4 191.9 530.1 191.0 C 523.5 189.5 514.9 187.7 508.2 187.0 C 504.3 186.6 499.3 186.7 495.4 186.7 C 493.3 186.7 490.7 186.9 488.6 187.0 C 487.4 187.0 485.2 187.7 484.6 187.0 C 484.2 186.4 484.6 184.9 485.5 184.1 C 486.3 183.4 486.8 181.5 486.3 181.0 C 485.2 179.8 481.3 182.0 479.2 182.7 C 476.4 183.7 469.1 189.1 470.4 186.7 C 471.8 184.3 463.9 188.4 461.0 189.0 C 459.6 189.2 457.7 189.5 456.2 189.5 C 454.7 189.5 452.8 188.9 451.4 189.0 C 448.2 189.2 444.2 190.7 441.2 191.5 C 436.6 192.7 430.7 194.1 426.4 195.8 C 425.1 196.3 423.6 197.2 422.4 197.8 C 421.3 198.3 419.8 198.9 418.7 199.5 C 417.7 200.0 416.2 200.3 415.6 201.2 C 415.2 201.7 415.0 202.9 415.3 203.5 C 415.8 204.2 418.1 203.8 418.4 204.6 C 418.8 205.4 417.6 206.8 417.3 207.7 C 417.0 208.6 416.6 209.7 416.4 210.6 C 416.3 211.3 416.0 212.6 416.4 213.1 Z M 416.4 213.1 " fill="#222222"></path><g><clipPath id="clip-797"><path d="M 392.3 382.7 L 631.8 382.7 L 631.8 524.6 L 392.3 524.6 Z M 392.3 382.7 "></path></clipPath><g clip-path="url(#clip-797)"><path d="M 472.1 385.7 C 505.0 383.8 538.1 384.6 570.9 388.0 L 605.7 392.7 L 607.9 411.3 L 627.5 431.2 L 629.7 449.7 L 590.8 447.1 L 580.1 449.4 L 522.2 454.0 L 523.8 484.6 L 507.1 488.9 L 506.4 508.6 L 482.8 507.0 L 468.1 515.1 L 454.2 522.6 L 435.7 522.6 L 418.8 520.8 L 424.3 507.8 L 426.3 495.6 L 421.8 485.3 L 429.7 476.5 L 429.6 469.3 L 411.2 470.5 L 402.8 474.3 L 399.5 477.4 L 394.7 472.8 L 394.3 459.8 L 394.5 438.5 L 397.0 425.1 L 406.7 411.7 L 424.8 396.1 L 435.5 389.0 C 447.7 387.5 459.9 386.4 472.1 385.7 Z M 472.1 385.7 " fill="#000000"></path><path d="M 77.8 136.9 C 110.7 138.8 143.8 138.1 176.6 134.7 L 211.4 129.9 L 213.6 111.3 L 233.2 91.4 L 235.4 72.9 L 196.5 75.5 L 185.8 73.2 L 127.9 68.7 L 129.5 38.0 L 112.8 33.7 L 112.1 14.1 L 88.5 15.7 L 73.7 7.6 L 59.9 0.0 L 41.4 0.0 L 24.5 1.9 L 30.0 14.9 L 32.0 27.0 L 27.5 37.4 L 35.4 46.2 L 35.3 53.4 L 16.9 52.1 L 8.5 48.4 L 5.2 45.2 L 0.4 49.8 L 0.0 62.8 L 0.2 84.2 L 2.7 97.5 L 12.4 110.9 L 30.5 126.6 L 41.2 133.7 C 53.4 135.1 65.6 136.2 77.8 136.9 Z M 77.8 136.9 " fill="none" stroke="#000000" stroke-width="2.00" transform="matrix(1.00, 0.00, 0.00, -1.00, 394.3, 522.6)"></path></g></g><path d="M 45.9 132.6 C -4.2 99.7 -13.3 58.1 18.6 7.7 L 19.1 6.8 " fill="none" stroke="#000000" stroke-width="2.00" transform="matrix(1.00, 0.00, 0.00, -1.00, 405.0, 371.2)"></path><path d="M 0.0 0.0 L 3.0 5.0 L 6.0 0.0 M 3.0 0.0 L 3.0 5.0 " fill="none" stroke="#000000" stroke-width="1.25" stroke-miterlimit="10.00" stroke-linejoin="round" transform="matrix(-1.33, 0.89, 0.89, 1.33, 427.6, 360.9)"></path><path d="M 6.9 133.6 L 7.7 133.0 C 57.0 99.1 63.4 54.7 26.8 0.0 " fill="none" stroke="#000000" stroke-width="2.00" transform="matrix(1.00, 0.00, 0.00, -1.00, 563.0, 371.4)"></path><path d="M 0.0 0.0 L 3.0 5.0 L 6.0 0.0 M 3.0 0.0 L 3.0 5.0 " fill="none" stroke="#000000" stroke-width="1.25" stroke-miterlimit="10.00" stroke-linejoin="round" transform="matrix(0.87, -1.34, -1.34, -0.87, 568.1, 242.4)"></path><path d="M 0.0 0.0 C 0.0 25.6 0.0 51.2 0.0 76.8 L 0.0 77.8 " fill="none" stroke="#000000" stroke-width="2.00" transform="matrix(1.00, 0.00, 0.00, -1.00, 512.0, 604.5)"></path><path d="M 0.0 0.0 L 3.0 5.0 L 6.0 0.0 M 3.0 0.0 L 3.0 5.0 " fill="none" stroke="#000000" stroke-width="1.25" stroke-miterlimit="10.00" stroke-linejoin="round" transform="matrix(1.60, 0.00, 0.00, -1.60, 507.2, 527.7)"></path><text xml:space="preserve" font-family="Helvetica-Light" font-size="24.0" fill="#000000" transform="matrix(1.00, 0.00, -0.00, -1.00, 415.0, 136.0)">e</text><text xml:space="preserve" font-family="Helvetica-Light" font-size="24.0" fill="#000000" transform="matrix(1.00, 0.00, -0.00, -1.00, 428.3, 136.0)">c</text><text xml:space="preserve" font-family="Helvetica-Light" font-size="24.0" fill="#000000" transform="matrix(1.00, 0.00, -0.00, -1.00, 441.7, 136.0)">o</text><text xml:space="preserve" font-family="Helvetica-Light" font-size="24.0" fill="#000000" transform="matrix(1.00, 0.00, -0.00, -1.00, 455.0, 136.0)">l</text><text xml:space="preserve" font-family="Helvetica-Light" font-size="24.0" fill="#000000" transform="matrix(1.00, 0.00, -0.00, -1.00, 460.4, 136.0)">o</text><text xml:space="preserve" font-family="Helvetica-Light" font-size="24.0" fill="#000000" transform="matrix(1.00, 0.00, -0.00, -1.00, 473.7, 136.0)">g</text><text xml:space="preserve" font-family="Helvetica-Light" font-size="24.0" fill="#000000" transform="matrix(1.00, 0.00, -0.00, -1.00, 488.4, 136.0)">i</text><text xml:space="preserve" font-family="Helvetica-Light" font-size="24.0" fill="#000000" transform="matrix(1.00, 0.00, -0.00, -1.00, 493.7, 136.0)">c</text><text xml:space="preserve" font-family="Helvetica-Light" font-size="24.0" fill="#000000" transform="matrix(1.00, 0.00, -0.00, -1.00, 507.0, 136.0)">a</text><text xml:space="preserve" font-family="Helvetica-Light" font-size="24.0" fill="#000000" transform="matrix(1.00, 0.00, -0.00, -1.00, 520.4, 136.0)">l</text><text xml:space="preserve" font-family="Helvetica-Light" font-size="24.0" fill="#000000" transform="matrix(1.00, 0.00, -0.00, -1.00, 525.7, 136.0)"> </text><text xml:space="preserve" font-family="Helvetica-Light" font-size="24.0" fill="#000000" transform="matrix(1.00, 0.00, -0.00, -1.00, 532.4, 136.0)">s</text><text xml:space="preserve" font-family="Helvetica-Light" font-size="24.0" fill="#000000" transform="matrix(1.00, 0.00, -0.00, -1.00, 544.4, 136.0)">y</text><text xml:space="preserve" font-family="Helvetica-Light" font-size="24.0" fill="#000000" transform="matrix(1.00, 0.00, -0.00, -1.00, 556.4, 136.0)">s</text><text xml:space="preserve" font-family="Helvetica-Light" font-size="24.0" fill="#000000" transform="matrix(1.00, 0.00, -0.00, -1.00, 568.4, 136.0)">t</text><text xml:space="preserve" font-family="Helvetica-Light" font-size="24.0" fill="#000000" transform="matrix(1.00, 0.00, -0.00, -1.00, 575.1, 136.0)">e</text><text xml:space="preserve" font-family="Helvetica-Light" font-size="24.0" fill="#000000" transform="matrix(1.00, 0.00, -0.00, -1.00, 588.4, 136.0)">m</text><text xml:space="preserve" font-family="Helvetica-Light" font-size="24.0" fill="#000000" transform="matrix(1.00, 0.00, -0.00, -1.00, 475.0, 614.0)">m</text><text xml:space="preserve" font-family="Helvetica-Light" font-size="24.0" fill="#000000" transform="matrix(1.00, 0.00, -0.00, -1.00, 495.0, 614.0)">a</text><text xml:space="preserve" font-family="Helvetica-Light" font-size="24.0" fill="#000000" transform="matrix(1.00, 0.00, -0.00, -1.00, 508.3, 614.0)">r</text><text xml:space="preserve" font-family="Helvetica-Light" font-size="24.0" fill="#000000" transform="matrix(1.00, 0.00, -0.00, -1.00, 516.3, 614.0)">k</text><text xml:space="preserve" font-family="Helvetica-Light" font-size="24.0" fill="#000000" transform="matrix(1.00, 0.00, -0.00, -1.00, 528.3, 614.0)">e</text><text xml:space="preserve" font-family="Helvetica-Light" font-size="24.0" fill="#000000" transform="matrix(1.00, 0.00, -0.00, -1.00, 541.7, 614.0)">t</text></g></svg>