<?xml version="1.0" encoding="UTF-8" standalone="no"?><svg xmlns="http://www.w3.org/2000/svg" xmlns:xlink="http://www.w3.org/1999/xlink" clip-rule="evenodd" stroke-miterlimit="4.00" viewBox="0 0 1024 768"><desc>SVG generated by Keynote</desc><defs></defs><g transform="matrix(1.00, 0.00, -0.00, -1.00, 0.0, 768.0)"><path d="M 0.0 768.0 L 1024.0 768.0 L 1024.0 0.0 L 0.0 0.0 Z M 0.0 768.0 " fill="#FEFFFF"></path><text xml:space="preserve" font-family="Helvetica-Light" font-size="24.0" fill="#000000" transform="matrix(1.00, 0.00, -0.00, -1.00, 120.0, 240.0)">M</text><text xml:space="preserve" font-family="Helvetica-Light" font-size="24.0" fill="#000000" transform="matrix(1.00, 0.00, -0.00, -1.00, 140.0, 240.0)">a</text><text xml:space="preserve" font-family="Helvetica-Light" font-size="24.0" fill="#000000" transform="matrix(1.00, 0.00, -0.00, -1.00, 153.3, 240.0)">g</text><text xml:space="preserve" font-family="Helvetica-Light" font-size="24.0" fill="#000000" transform="matrix(1.00, 0.00, -0.00, -1.00, 168.0, 240.0)">n</text><text xml:space="preserve" font-family="Helvetica-Light" font-size="24.0" fill="#000000" transform="matrix(1.00, 0.00, -0.00, -1.00, 181.3, 240.0)">u</text><text xml:space="preserve" font-family="Helvetica-Light" font-size="24.0" fill="#000000" transform="matrix(1.00, 0.00, -0.00, -1.00, 194.7, 240.0)">s</text><text xml:space="preserve" font-family="Helvetica-Light" font-size="24.0" fill="#000000" transform="matrix(1.00, 0.00, -0.00, -1.00, 206.7, 240.0)">o</text><text xml:space="preserve" font-family="Helvetica-Light" font-size="24.0" fill="#000000" transform="matrix(1.00, 0.00, -0.00, -1.00, 220.0, 240.0)">n</text><text xml:space="preserve" font-family="Helvetica-Light" font-size="24.0" fill="#000000" transform="matrix(1.00, 0.00, -0.00, -1.00, 233.4, 240.0)"> </text><text xml:space="preserve" font-family="Helvetica-Light" font-size="24.0" fill="#000000" transform="matrix(1.00, 0.00, -0.00, -1.00, 240.0, 240.0)">S</text><text xml:space="preserve" font-family="Helvetica-Light" font-size="24.0" fill="#000000" transform="matrix(1.00, 0.00, -0.00, -1.00, 254.7, 240.0)">t</text><text xml:space="preserve" font-family="Helvetica-Light" font-size="24.0" fill="#000000" transform="matrix(1.00, 0.00, -0.00, -1.00, 261.4, 240.0)">e</text><text xml:space="preserve" font-family="Helvetica-Light" font-size="24.0" fill="#000000" transform="matrix(1.00, 0.00, -0.00, -1.00, 274.7, 240.0)">v</text><text xml:space="preserve" font-family="Helvetica-Light" font-size="24.0" fill="#000000" transform="matrix(1.00, 0.00, -0.00, -1.00, 286.7, 240.0)">e</text><text xml:space="preserve" font-family="Helvetica-Light" font-size="24.0" fill="#000000" transform="matrix(1.00, 0.00, -0.00, -1.00, 300.1, 240.0)">n</text><text xml:space="preserve" font-family="Helvetica-Light" font-size="24.0" fill="#000000" transform="matrix(1.00, 0.00, -0.00, -1.00, 313.4, 240.0)">s</text><text xml:space="preserve" font-family="Helvetica-Light" font-size="24.0" fill="#000000" transform="matrix(1.00, 0.00, -0.00, -1.00, 325.4, 240.0)"> </text><text xml:space="preserve" font-family="Helvetica-Light" font-size="24.0" fill="#000000" transform="matrix(1.00, 0.00, -0.00, -1.00, 332.1, 240.0)">F</text><text xml:space="preserve" font-family="Helvetica-Light" font-size="24.0" fill="#000000" transform="matrix(1.00, 0.00, -0.00, -1.00, 345.4, 240.0)">i</text><text xml:space="preserve" font-family="Helvetica-Light" font-size="24.0" fill="#000000" transform="matrix(1.00, 0.00, -0.00, -1.00, 350.8, 240.0)">s</text><text xml:space="preserve" font-family="Helvetica-Light" font-size="24.0" fill="#000000" transform="matrix(1.00, 0.00, -0.00, -1.00, 362.8, 240.0)">h</text><text xml:space="preserve" font-family="Helvetica-Light" font-size="24.0" fill="#000000" transform="matrix(1.00, 0.00, -0.00, -1.00, 376.1, 240.0)">e</text><text xml:space="preserve" font-family="Helvetica-Light" font-size="24.0" fill="#000000" transform="matrix(1.00, 0.00, -0.00, -1.00, 389.4, 240.0)">r</text><text xml:space="preserve" font-family="Helvetica-Light" font-size="24.0" fill="#000000" transform="matrix(1.00, 0.00, -0.00, -1.00, 397.9, 240.0)">y</text><text xml:space="preserve" font-family="Helvetica-Light" font-size="24.0" fill="#000000" transform="matrix(1.00, 0.00, -0.00, -1.00, 409.9, 240.0)"> </text><text xml:space="preserve" font-family="Helvetica-Light" font-size="24.0" fill="#000000" transform="matrix(1.00, 0.00, -0.00, -1.00, 416.5, 240.0)">C</text><text xml:space="preserve" font-family="Helvetica-Light" font-size="24.0" fill="#000000" transform="matrix(1.00, 0.00, -0.00, -1.00, 433.9, 240.0)">o</text><text xml:space="preserve" font-family="Helvetica-Light" font-size="24.0" fill="#000000" transform="matrix(1.00, 0.00, -0.00, -1.00, 447.2, 240.0)">n</text><text xml:space="preserve" font-family="Helvetica-Light" font-size="24.0" fill="#000000" transform="matrix(1.00, 0.00, -0.00, -1.00, 460.6, 240.0)">s</text><text xml:space="preserve" font-family="Helvetica-Light" font-size="24.0" fill="#000000" transform="matrix(1.00, 0.00, -0.00, -1.00, 472.6, 240.0)">e</text><text xml:space="preserve" font-family="Helvetica-Light" font-size="24.0" fill="#000000" transform="matrix(1.00, 0.00, -0.00, -1.00, 485.9, 240.0)">r</text><text xml:space="preserve" font-family="Helvetica-Light" font-size="24.0" fill="#000000" transform="matrix(1.00, 0.00, -0.00, -1.00, 493.9, 240.0)">v</text><text xml:space="preserve" font-family="Helvetica-Light" font-size="24.0" fill="#000000" transform="matrix(1.00, 0.00, -0.00, -1.00, 505.9, 240.0)">a</text><text xml:space="preserve" font-family="Helvetica-Light" font-size="24.0" fill="#000000" transform="matrix(1.00, 0.00, -0.00, -1.00, 519.2, 240.0)">t</text><text xml:space="preserve" font-family="Helvetica-Light" font-size="24.0" fill="#000000" transform="matrix(1.00, 0.00, -0.00, -1.00, 525.9, 240.0)">i</text><text xml:space="preserve" font-family="Helvetica-Light" font-size="24.0" fill="#000000" transform="matrix(1.00, 0.00, -0.00, -1.00, 531.2, 240.0)">o</text><text xml:space="preserve" font-family="Helvetica-Light" font-size="24.0" fill="#000000" transform="matrix(1.00, 0.00, -0.00, -1.00, 544.6, 240.0)">n</text><text xml:space="preserve" font-family="Helvetica-Light" font-size="24.0" fill="#000000" transform="matrix(1.00, 0.00, -0.00, -1.00, 557.9, 240.0)"> </text><text xml:space="preserve" font-family="Helvetica-Light" font-size="24.0" fill="#000000" transform="matrix(1.00, 0.00, -0.00, -1.00, 564.6, 240.0)">a</text><text xml:space="preserve" font-family="Helvetica-Light" font-size="24.0" fill="#000000" transform="matrix(1.00, 0.00, -0.00, -1.00, 577.9, 240.0)">n</text><text xml:space="preserve" font-family="Helvetica-Light" font-size="24.0" fill="#000000" transform="matrix(1.00, 0.00, -0.00, -1.00, 591.3, 240.0)">d</text><text xml:space="preserve" font-family="Helvetica-Light" font-size="24.0" fill="#000000" transform="matrix(1.00, 0.00, -0.00, -1.00, 606.0, 240.0)"> </text><text xml:space="preserve" font-family="Helvetica-Light" font-size="24.0" fill="#000000" transform="matrix(1.00, 0.00, -0.00, -1.00, 612.6, 240.0)">M</text><text xml:space="preserve" font-family="Helvetica-Light" font-size="24.0" fill="#000000" transform="matrix(1.00, 0.00, -0.00, -1.00, 632.6, 240.0)">a</text><text xml:space="preserve" font-family="Helvetica-Light" font-size="24.0" fill="#000000" transform="matrix(1.00, 0.00, -0.00, -1.00, 646.0, 240.0)">n</text><text xml:space="preserve" font-family="Helvetica-Light" font-size="24.0" fill="#000000" transform="matrix(1.00, 0.00, -0.00, -1.00, 659.3, 240.0)">a</text><text xml:space="preserve" font-family="Helvetica-Light" font-size="24.0" fill="#000000" transform="matrix(1.00, 0.00, -0.00, -1.00, 672.6, 240.0)">g</text><text xml:space="preserve" font-family="Helvetica-Light" font-size="24.0" fill="#000000" transform="matrix(1.00, 0.00, -0.00, -1.00, 687.3, 240.0)">e</text><text xml:space="preserve" font-family="Helvetica-Light" font-size="24.0" fill="#000000" transform="matrix(1.00, 0.00, -0.00, -1.00, 700.7, 240.0)">m</text><text xml:space="preserve" font-family="Helvetica-Light" font-size="24.0" fill="#000000" transform="matrix(1.00, 0.00, -0.00, -1.00, 720.6, 240.0)">e</text><text xml:space="preserve" font-family="Helvetica-Light" font-size="24.0" fill="#000000" transform="matrix(1.00, 0.00, -0.00, -1.00, 734.0, 240.0)">n</text><text xml:space="preserve" font-family="Helvetica-Light" font-size="24.0" fill="#000000" transform="matrix(1.00, 0.00, -0.00, -1.00, 747.3, 240.0)">t</text><text xml:space="preserve" font-family="Helvetica-Light" font-size="24.0" fill="#000000" transform="matrix(1.00, 0.00, -0.00, -1.00, 754.0, 240.0)"> </text><text xml:space="preserve" font-family="Helvetica-Light" font-size="24.0" fill="#000000" transform="matrix(1.00, 0.00, -0.00, -1.00, 760.7, 240.0)">A</text><text xml:space="preserve" font-family="Helvetica-Light" font-size="24.0" fill="#000000" transform="matrix(1.00, 0.00, -0.00, -1.00, 776.7, 240.0)">c</text><text xml:space="preserve" font-family="Helvetica-Light" font-size="24.0" fill="#000000" transform="matrix(1.00, 0.00, -0.00, -1.00, 790.0, 240.0)">t</text><text xml:space="preserve" font-family="Helvetica-Light" font-size="24.0" fill="#000000" transform="matrix(1.00, 0.00, -0.00, -1.00, 796.7, 240.0)"> </text><text xml:space="preserve" font-family="Helvetica-Light" font-size="24.0" fill="#000000" transform="matrix(1.00, 0.00, -0.00, -1.00, 803.4, 240.0)">o</text><text xml:space="preserve" font-family="Helvetica-Light" font-size="24.0" fill="#000000" transform="matrix(1.00, 0.00, -0.00, -1.00, 816.7, 240.0)">f</text><text xml:space="preserve" font-family="Helvetica-Light" font-size="24.0" fill="#000000" transform="matrix(1.00, 0.00, -0.00, -1.00, 823.4, 240.0)"> </text><text xml:space="preserve" font-family="Helvetica-Light" font-size="24.0" fill="#000000" transform="matrix(1.00, 0.00, -0.00, -1.00, 830.1, 240.0)">1</text><text xml:space="preserve" font-family="Helvetica-Light" font-size="24.0" fill="#000000" transform="matrix(1.00, 0.00, -0.00, -1.00, 843.4, 240.0)">9</text><text xml:space="preserve" font-family="Helvetica-Light" font-size="24.0" fill="#000000" transform="matrix(1.00, 0.00, -0.00, -1.00, 856.8, 240.0)">9</text><text xml:space="preserve" font-family="Helvetica-Light" font-size="24.0" fill="#000000" transform="matrix(1.00, 0.00, -0.00, -1.00, 870.1, 240.0)">6</text><text xml:space="preserve" font-family="Helvetica-Light" font-size="24.0" fill="#000000" transform="matrix(1.00, 0.00, -0.00, -1.00, 883.4, 240.0)"> </text><text xml:space="preserve" font-family="Helvetica-Light" font-size="24.0" fill="#000000" transform="matrix(1.00, 0.00, -0.00, -1.00, 890.1, 240.0)">§</text><text xml:space="preserve" font-family="Helvetica-Light" font-size="24.0" fill="#000000" transform="matrix(1.00, 0.00, -0.00, -1.00, 903.5, 240.0)"> </text><text xml:space="preserve" font-family="Helvetica-Light" font-size="24.0" fill="#000000" transform="matrix(1.00, 0.00, -0.00, -1.00, 467.0, 211.0)">1</text><text xml:space="preserve" font-family="Helvetica-Light" font-size="24.0" fill="#000000" transform="matrix(1.00, 0.00, -0.00, -1.00, 480.3, 211.0)">8</text><text xml:space="preserve" font-family="Helvetica-Light" font-size="24.0" fill="#000000" transform="matrix(1.00, 0.00, -0.00, -1.00, 493.7, 211.0)">5</text><text xml:space="preserve" font-family="Helvetica-Light" font-size="24.0" fill="#000000" transform="matrix(1.00, 0.00, -0.00, -1.00, 507.0, 211.0)">1</text><text xml:space="preserve" font-family="Helvetica-Light" font-size="24.0" fill="#000000" transform="matrix(1.00, 0.00, -0.00, -1.00, 520.4, 211.0)"> </text><text xml:space="preserve" font-family="Helvetica-Light" font-size="24.0" fill="#000000" transform="matrix(1.00, 0.00, -0.00, -1.00, 527.0, 211.0)">(</text><text xml:space="preserve" font-family="Helvetica-Light" font-size="24.0" fill="#000000" transform="matrix(1.00, 0.00, -0.00, -1.00, 535.0, 211.0)">8</text><text xml:space="preserve" font-family="Helvetica-Light" font-size="24.0" fill="#000000" transform="matrix(1.00, 0.00, -0.00, -1.00, 548.4, 211.0)">)</text><text xml:space="preserve" font-family="Helvetica-Light" font-size="38.0" fill="#000000" transform="matrix(1.00, 0.00, -0.00, -1.00, 151.0, 437.0)"> </text><text xml:space="preserve" font-family="Helvetica-Light" font-size="38.0" fill="#000000" transform="matrix(1.00, 0.00, -0.00, -1.00, 161.6, 437.0)">C</text><text xml:space="preserve" font-family="Helvetica-Light" font-size="38.0" fill="#000000" transform="matrix(1.00, 0.00, -0.00, -1.00, 189.0, 437.0)">o</text><text xml:space="preserve" font-family="Helvetica-Light" font-size="38.0" fill="#000000" transform="matrix(1.00, 0.00, -0.00, -1.00, 210.1, 437.0)">n</text><text xml:space="preserve" font-family="Helvetica-Light" font-size="38.0" fill="#000000" transform="matrix(1.00, 0.00, -0.00, -1.00, 231.3, 437.0)">s</text><text xml:space="preserve" font-family="Helvetica-Light" font-size="38.0" fill="#000000" transform="matrix(1.00, 0.00, -0.00, -1.00, 250.3, 437.0)">e</text><text xml:space="preserve" font-family="Helvetica-Light" font-size="38.0" fill="#000000" transform="matrix(1.00, 0.00, -0.00, -1.00, 271.4, 437.0)">r</text><text xml:space="preserve" font-family="Helvetica-Light" font-size="38.0" fill="#000000" transform="matrix(1.00, 0.00, -0.00, -1.00, 284.0, 437.0)">v</text><text xml:space="preserve" font-family="Helvetica-Light" font-size="38.0" fill="#000000" transform="matrix(1.00, 0.00, -0.00, -1.00, 303.0, 437.0)">a</text><text xml:space="preserve" font-family="Helvetica-Light" font-size="38.0" fill="#000000" transform="matrix(1.00, 0.00, -0.00, -1.00, 324.2, 437.0)">t</text><text xml:space="preserve" font-family="Helvetica-Light" font-size="38.0" fill="#000000" transform="matrix(1.00, 0.00, -0.00, -1.00, 334.7, 437.0)">i</text><text xml:space="preserve" font-family="Helvetica-Light" font-size="38.0" fill="#000000" transform="matrix(1.00, 0.00, -0.00, -1.00, 343.2, 437.0)">o</text><text xml:space="preserve" font-family="Helvetica-Light" font-size="38.0" fill="#000000" transform="matrix(1.00, 0.00, -0.00, -1.00, 364.3, 437.0)">n</text><text xml:space="preserve" font-family="Helvetica-Light" font-size="38.0" fill="#000000" transform="matrix(1.00, 0.00, -0.00, -1.00, 385.4, 437.0)"> </text><text xml:space="preserve" font-family="Helvetica-Light" font-size="38.0" fill="#000000" transform="matrix(1.00, 0.00, -0.00, -1.00, 396.0, 437.0)">a</text><text xml:space="preserve" font-family="Helvetica-Light" font-size="38.0" fill="#000000" transform="matrix(1.00, 0.00, -0.00, -1.00, 417.1, 437.0)">n</text><text xml:space="preserve" font-family="Helvetica-Light" font-size="38.0" fill="#000000" transform="matrix(1.00, 0.00, -0.00, -1.00, 438.2, 437.0)">d</text><text xml:space="preserve" font-family="Helvetica-Light" font-size="38.0" fill="#000000" transform="matrix(1.00, 0.00, -0.00, -1.00, 461.5, 437.0)"> </text><text xml:space="preserve" font-family="Helvetica-Light" font-size="38.0" fill="#000000" transform="matrix(1.00, 0.00, -0.00, -1.00, 472.0, 437.0)">m</text><text xml:space="preserve" font-family="Helvetica-Light" font-size="38.0" fill="#000000" transform="matrix(1.00, 0.00, -0.00, -1.00, 503.7, 437.0)">a</text><text xml:space="preserve" font-family="Helvetica-Light" font-size="38.0" fill="#000000" transform="matrix(1.00, 0.00, -0.00, -1.00, 524.8, 437.0)">n</text><text xml:space="preserve" font-family="Helvetica-Light" font-size="38.0" fill="#000000" transform="matrix(1.00, 0.00, -0.00, -1.00, 545.9, 437.0)">a</text><text xml:space="preserve" font-family="Helvetica-Light" font-size="38.0" fill="#000000" transform="matrix(1.00, 0.00, -0.00, -1.00, 567.1, 437.0)">g</text><text xml:space="preserve" font-family="Helvetica-Light" font-size="38.0" fill="#000000" transform="matrix(1.00, 0.00, -0.00, -1.00, 590.3, 437.0)">e</text><text xml:space="preserve" font-family="Helvetica-Light" font-size="38.0" fill="#000000" transform="matrix(1.00, 0.00, -0.00, -1.00, 611.4, 437.0)">m</text><text xml:space="preserve" font-family="Helvetica-Light" font-size="38.0" fill="#000000" transform="matrix(1.00, 0.00, -0.00, -1.00, 643.1, 437.0)">e</text><text xml:space="preserve" font-family="Helvetica-Light" font-size="38.0" fill="#000000" transform="matrix(1.00, 0.00, -0.00, -1.00, 664.2, 437.0)">n</text><text xml:space="preserve" font-family="Helvetica-Light" font-size="38.0" fill="#000000" transform="matrix(1.00, 0.00, -0.00, -1.00, 685.3, 437.0)">t</text><text xml:space="preserve" font-family="Helvetica-Light" font-size="38.0" fill="#000000" transform="matrix(1.00, 0.00, -0.00, -1.00, 695.9, 437.0)"> </text><text xml:space="preserve" font-family="Helvetica-Light" font-size="38.0" fill="#000000" transform="matrix(1.00, 0.00, -0.00, -1.00, 706.4, 437.0)">m</text><text xml:space="preserve" font-family="Helvetica-Light" font-size="38.0" fill="#000000" transform="matrix(1.00, 0.00, -0.00, -1.00, 738.1, 437.0)">e</text><text xml:space="preserve" font-family="Helvetica-Light" font-size="38.0" fill="#000000" transform="matrix(1.00, 0.00, -0.00, -1.00, 759.2, 437.0)">a</text><text xml:space="preserve" font-family="Helvetica-Light" font-size="38.0" fill="#000000" transform="matrix(1.00, 0.00, -0.00, -1.00, 780.4, 437.0)">s</text><text xml:space="preserve" font-family="Helvetica-Light" font-size="38.0" fill="#000000" transform="matrix(1.00, 0.00, -0.00, -1.00, 799.4, 437.0)">u</text><text xml:space="preserve" font-family="Helvetica-Light" font-size="38.0" fill="#000000" transform="matrix(1.00, 0.00, -0.00, -1.00, 820.5, 437.0)">r</text><text xml:space="preserve" font-family="Helvetica-Light" font-size="38.0" fill="#000000" transform="matrix(1.00, 0.00, -0.00, -1.00, 832.5, 437.0)">e</text><text xml:space="preserve" font-family="Helvetica-Light" font-size="38.0" fill="#000000" transform="matrix(1.00, 0.00, -0.00, -1.00, 853.6, 437.0)">s</text><text xml:space="preserve" font-family="Helvetica-Light" font-size="38.0" fill="#000000" transform="matrix(1.00, 0.00, -0.00, -1.00, 872.6, 437.0)"> </text><text xml:space="preserve" font-family="Helvetica-Light" font-size="38.0" fill="#000000" transform="matrix(1.00, 0.00, -0.00, -1.00, 148.0, 391.0)">s</text><text xml:space="preserve" font-family="Helvetica-Light" font-size="38.0" fill="#000000" transform="matrix(1.00, 0.00, -0.00, -1.00, 167.0, 391.0)">h</text><text xml:space="preserve" font-family="Helvetica-Light" font-size="38.0" fill="#000000" transform="matrix(1.00, 0.00, -0.00, -1.00, 188.1, 391.0)">a</text><text xml:space="preserve" font-family="Helvetica-Light" font-size="38.0" fill="#000000" transform="matrix(1.00, 0.00, -0.00, -1.00, 209.3, 391.0)">l</text><text xml:space="preserve" font-family="Helvetica-Light" font-size="38.0" fill="#000000" transform="matrix(1.00, 0.00, -0.00, -1.00, 217.7, 391.0)">l</text><text xml:space="preserve" font-family="Helvetica-Light" font-size="38.0" fill="#000000" transform="matrix(1.00, 0.00, -0.00, -1.00, 226.1, 391.0)">…</text><text xml:space="preserve" font-family="Helvetica-Light" font-size="38.0" fill="#000000" transform="matrix(1.00, 0.00, -0.00, -1.00, 264.1, 391.0)"> </text><text xml:space="preserve" font-family="Helvetica-Light" font-size="38.0" fill="#000000" transform="matrix(1.00, 0.00, -0.00, -1.00, 274.7, 391.0)">t</text><text xml:space="preserve" font-family="Helvetica-Light" font-size="38.0" fill="#000000" transform="matrix(1.00, 0.00, -0.00, -1.00, 285.3, 391.0)">a</text><text xml:space="preserve" font-family="Helvetica-Light" font-size="38.0" fill="#000000" transform="matrix(1.00, 0.00, -0.00, -1.00, 306.4, 391.0)">k</text><text xml:space="preserve" font-family="Helvetica-Light" font-size="38.0" fill="#000000" transform="matrix(1.00, 0.00, -0.00, -1.00, 325.4, 391.0)">e</text><text xml:space="preserve" font-family="Helvetica-Light" font-size="38.0" fill="#000000" transform="matrix(1.00, 0.00, -0.00, -1.00, 346.5, 391.0)"> </text><text xml:space="preserve" font-family="Helvetica-Light" font-size="38.0" fill="#000000" transform="matrix(1.00, 0.00, -0.00, -1.00, 357.1, 391.0)">i</text><text xml:space="preserve" font-family="Helvetica-Light" font-size="38.0" fill="#000000" transform="matrix(1.00, 0.00, -0.00, -1.00, 365.5, 391.0)">n</text><text xml:space="preserve" font-family="Helvetica-Light" font-size="38.0" fill="#000000" transform="matrix(1.00, 0.00, -0.00, -1.00, 386.6, 391.0)">t</text><text xml:space="preserve" font-family="Helvetica-Light" font-size="38.0" fill="#000000" transform="matrix(1.00, 0.00, -0.00, -1.00, 397.2, 391.0)">o</text><text xml:space="preserve" font-family="Helvetica-Light" font-size="38.0" fill="#000000" transform="matrix(1.00, 0.00, -0.00, -1.00, 418.3, 391.0)"> </text><text xml:space="preserve" font-family="Helvetica-Light" font-size="38.0" fill="#000000" transform="matrix(1.00, 0.00, -0.00, -1.00, 428.9, 391.0)">a</text><text xml:space="preserve" font-family="Helvetica-Light" font-size="38.0" fill="#000000" transform="matrix(1.00, 0.00, -0.00, -1.00, 450.0, 391.0)">c</text><text xml:space="preserve" font-family="Helvetica-Light" font-size="38.0" fill="#000000" transform="matrix(1.00, 0.00, -0.00, -1.00, 471.2, 391.0)">c</text><text xml:space="preserve" font-family="Helvetica-Light" font-size="38.0" fill="#000000" transform="matrix(1.00, 0.00, -0.00, -1.00, 492.3, 391.0)">o</text><text xml:space="preserve" font-family="Helvetica-Light" font-size="38.0" fill="#000000" transform="matrix(1.00, 0.00, -0.00, -1.00, 513.4, 391.0)">u</text><text xml:space="preserve" font-family="Helvetica-Light" font-size="38.0" fill="#000000" transform="matrix(1.00, 0.00, -0.00, -1.00, 534.5, 391.0)">n</text><text xml:space="preserve" font-family="Helvetica-Light" font-size="38.0" fill="#000000" transform="matrix(1.00, 0.00, -0.00, -1.00, 555.7, 391.0)">t</text><text xml:space="preserve" font-family="Helvetica-Light" font-size="38.0" fill="#000000" transform="matrix(1.00, 0.00, -0.00, -1.00, 566.2, 391.0)"> </text><text xml:space="preserve" font-family="Helvetica-Light" font-size="38.0" fill="#000000" transform="matrix(1.00, 0.00, -0.00, -1.00, 576.8, 391.0)">t</text><text xml:space="preserve" font-family="Helvetica-Light" font-size="38.0" fill="#000000" transform="matrix(1.00, 0.00, -0.00, -1.00, 587.4, 391.0)">h</text><text xml:space="preserve" font-family="Helvetica-Light" font-size="38.0" fill="#000000" transform="matrix(1.00, 0.00, -0.00, -1.00, 608.5, 391.0)">e</text><text xml:space="preserve" font-family="Helvetica-Light" font-size="38.0" fill="#000000" transform="matrix(1.00, 0.00, -0.00, -1.00, 629.6, 391.0)"> </text><text xml:space="preserve" font-family="Helvetica-Light" font-size="38.0" fill="#000000" transform="matrix(1.00, 0.00, -0.00, -1.00, 640.2, 391.0)">i</text><text xml:space="preserve" font-family="Helvetica-Light" font-size="38.0" fill="#000000" transform="matrix(1.00, 0.00, -0.00, -1.00, 648.6, 391.0)">m</text><text xml:space="preserve" font-family="Helvetica-Light" font-size="38.0" fill="#000000" transform="matrix(1.00, 0.00, -0.00, -1.00, 680.3, 391.0)">p</text><text xml:space="preserve" font-family="Helvetica-Light" font-size="38.0" fill="#000000" transform="matrix(1.00, 0.00, -0.00, -1.00, 703.5, 391.0)">o</text><text xml:space="preserve" font-family="Helvetica-Light" font-size="38.0" fill="#000000" transform="matrix(1.00, 0.00, -0.00, -1.00, 724.6, 391.0)">r</text><text xml:space="preserve" font-family="Helvetica-Light" font-size="38.0" fill="#000000" transform="matrix(1.00, 0.00, -0.00, -1.00, 737.9, 391.0)">t</text><text xml:space="preserve" font-family="Helvetica-Light" font-size="38.0" fill="#000000" transform="matrix(1.00, 0.00, -0.00, -1.00, 748.5, 391.0)">a</text><text xml:space="preserve" font-family="Helvetica-Light" font-size="38.0" fill="#000000" transform="matrix(1.00, 0.00, -0.00, -1.00, 769.6, 391.0)">n</text><text xml:space="preserve" font-family="Helvetica-Light" font-size="38.0" fill="#000000" transform="matrix(1.00, 0.00, -0.00, -1.00, 790.8, 391.0)">c</text><text xml:space="preserve" font-family="Helvetica-Light" font-size="38.0" fill="#000000" transform="matrix(1.00, 0.00, -0.00, -1.00, 811.9, 391.0)">e</text><text xml:space="preserve" font-family="Helvetica-Light" font-size="38.0" fill="#000000" transform="matrix(1.00, 0.00, -0.00, -1.00, 833.0, 391.0)"> </text><text xml:space="preserve" font-family="Helvetica-Light" font-size="38.0" fill="#000000" transform="matrix(1.00, 0.00, -0.00, -1.00, 843.6, 391.0)">o</text><text xml:space="preserve" font-family="Helvetica-Light" font-size="38.0" fill="#000000" transform="matrix(1.00, 0.00, -0.00, -1.00, 864.7, 391.0)">f</text><text xml:space="preserve" font-family="Helvetica-Light" font-size="38.0" fill="#000000" transform="matrix(1.00, 0.00, -0.00, -1.00, 875.3, 391.0)"> </text><text xml:space="preserve" font-family="Helvetica-Light" font-size="38.0" fill="#000000" transform="matrix(1.00, 0.00, -0.00, -1.00, 152.0, 345.0)">ﬁ</text><text xml:space="preserve" font-family="Helvetica-Light" font-size="38.0" fill="#000000" transform="matrix(1.00, 0.00, -0.00, -1.00, 171.0, 345.0)">s</text><text xml:space="preserve" font-family="Helvetica-Light" font-size="38.0" fill="#000000" transform="matrix(1.00, 0.00, -0.00, -1.00, 190.0, 345.0)">h</text><text xml:space="preserve" font-family="Helvetica-Light" font-size="38.0" fill="#000000" transform="matrix(1.00, 0.00, -0.00, -1.00, 211.1, 345.0)">e</text><text xml:space="preserve" font-family="Helvetica-Light" font-size="38.0" fill="#000000" transform="matrix(1.00, 0.00, -0.00, -1.00, 232.3, 345.0)">r</text><text xml:space="preserve" font-family="Helvetica-Light" font-size="38.0" fill="#000000" transform="matrix(1.00, 0.00, -0.00, -1.00, 245.6, 345.0)">y</text><text xml:space="preserve" font-family="Helvetica-Light" font-size="38.0" fill="#000000" transform="matrix(1.00, 0.00, -0.00, -1.00, 264.6, 345.0)"> </text><text xml:space="preserve" font-family="Helvetica-Light" font-size="38.0" fill="#000000" transform="matrix(1.00, 0.00, -0.00, -1.00, 275.2, 345.0)">r</text><text xml:space="preserve" font-family="Helvetica-Light" font-size="38.0" fill="#000000" transform="matrix(1.00, 0.00, -0.00, -1.00, 287.1, 345.0)">e</text><text xml:space="preserve" font-family="Helvetica-Light" font-size="38.0" fill="#000000" transform="matrix(1.00, 0.00, -0.00, -1.00, 308.3, 345.0)">s</text><text xml:space="preserve" font-family="Helvetica-Light" font-size="38.0" fill="#000000" transform="matrix(1.00, 0.00, -0.00, -1.00, 327.3, 345.0)">o</text><text xml:space="preserve" font-family="Helvetica-Light" font-size="38.0" fill="#000000" transform="matrix(1.00, 0.00, -0.00, -1.00, 348.4, 345.0)">u</text><text xml:space="preserve" font-family="Helvetica-Light" font-size="38.0" fill="#000000" transform="matrix(1.00, 0.00, -0.00, -1.00, 369.5, 345.0)">r</text><text xml:space="preserve" font-family="Helvetica-Light" font-size="38.0" fill="#000000" transform="matrix(1.00, 0.00, -0.00, -1.00, 381.5, 345.0)">c</text><text xml:space="preserve" font-family="Helvetica-Light" font-size="38.0" fill="#000000" transform="matrix(1.00, 0.00, -0.00, -1.00, 402.6, 345.0)">e</text><text xml:space="preserve" font-family="Helvetica-Light" font-size="38.0" fill="#000000" transform="matrix(1.00, 0.00, -0.00, -1.00, 423.7, 345.0)">s</text><text xml:space="preserve" font-family="Helvetica-Light" font-size="38.0" fill="#000000" transform="matrix(1.00, 0.00, -0.00, -1.00, 442.7, 345.0)"> </text><text xml:space="preserve" font-family="Helvetica-Light" font-size="38.0" fill="#000000" transform="matrix(1.00, 0.00, -0.00, -1.00, 453.3, 345.0)">t</text><text xml:space="preserve" font-family="Helvetica-Light" font-size="38.0" fill="#000000" transform="matrix(1.00, 0.00, -0.00, -1.00, 463.9, 345.0)">o</text><text xml:space="preserve" font-family="Helvetica-Light" font-size="38.0" fill="#000000" transform="matrix(1.00, 0.00, -0.00, -1.00, 485.0, 345.0)"> </text><text xml:space="preserve" font-family="Helvetica-Light" font-size="38.0" fill="#000000" transform="matrix(1.00, 0.00, -0.00, -1.00, 495.6, 345.0)">ﬁ</text><text xml:space="preserve" font-family="Helvetica-Light" font-size="38.0" fill="#000000" transform="matrix(1.00, 0.00, -0.00, -1.00, 514.6, 345.0)">s</text><text xml:space="preserve" font-family="Helvetica-Light" font-size="38.0" fill="#000000" transform="matrix(1.00, 0.00, -0.00, -1.00, 533.6, 345.0)">h</text><text xml:space="preserve" font-family="Helvetica-Light" font-size="38.0" fill="#000000" transform="matrix(1.00, 0.00, -0.00, -1.00, 554.7, 345.0)">i</text><text xml:space="preserve" font-family="Helvetica-Light" font-size="38.0" fill="#000000" transform="matrix(1.00, 0.00, -0.00, -1.00, 563.1, 345.0)">n</text><text xml:space="preserve" font-family="Helvetica-Light" font-size="38.0" fill="#000000" transform="matrix(1.00, 0.00, -0.00, -1.00, 584.2, 345.0)">g</text><text xml:space="preserve" font-family="Helvetica-Light" font-size="38.0" fill="#000000" transform="matrix(1.00, 0.00, -0.00, -1.00, 607.5, 345.0)"> </text><text xml:space="preserve" font-family="Helvetica-Light" font-size="38.0" fill="#000000" transform="matrix(1.00, 0.00, -0.00, -1.00, 618.0, 345.0)">c</text><text xml:space="preserve" font-family="Helvetica-Light" font-size="38.0" fill="#000000" transform="matrix(1.00, 0.00, -0.00, -1.00, 639.2, 345.0)">o</text><text xml:space="preserve" font-family="Helvetica-Light" font-size="38.0" fill="#000000" transform="matrix(1.00, 0.00, -0.00, -1.00, 660.3, 345.0)">m</text><text xml:space="preserve" font-family="Helvetica-Light" font-size="38.0" fill="#000000" transform="matrix(1.00, 0.00, -0.00, -1.00, 691.9, 345.0)">m</text><text xml:space="preserve" font-family="Helvetica-Light" font-size="38.0" fill="#000000" transform="matrix(1.00, 0.00, -0.00, -1.00, 723.6, 345.0)">u</text><text xml:space="preserve" font-family="Helvetica-Light" font-size="38.0" fill="#000000" transform="matrix(1.00, 0.00, -0.00, -1.00, 744.7, 345.0)">n</text><text xml:space="preserve" font-family="Helvetica-Light" font-size="38.0" fill="#000000" transform="matrix(1.00, 0.00, -0.00, -1.00, 765.9, 345.0)">i</text><text xml:space="preserve" font-family="Helvetica-Light" font-size="38.0" fill="#000000" transform="matrix(1.00, 0.00, -0.00, -1.00, 774.3, 345.0)">t</text><text xml:space="preserve" font-family="Helvetica-Light" font-size="38.0" fill="#000000" transform="matrix(1.00, 0.00, -0.00, -1.00, 784.9, 345.0)">i</text><text xml:space="preserve" font-family="Helvetica-Light" font-size="38.0" fill="#000000" transform="matrix(1.00, 0.00, -0.00, -1.00, 793.3, 345.0)">e</text><text xml:space="preserve" font-family="Helvetica-Light" font-size="38.0" fill="#000000" transform="matrix(1.00, 0.00, -0.00, -1.00, 814.4, 345.0)">s</text><text xml:space="preserve" font-family="Helvetica-Light" font-size="38.0" fill="#000000" transform="matrix(1.00, 0.00, -0.00, -1.00, 833.4, 345.0)">…</text></g></svg>