<?xml version="1.0" encoding="UTF-8" standalone="no"?><svg xmlns="http://www.w3.org/2000/svg" xmlns:xlink="http://www.w3.org/1999/xlink" clip-rule="evenodd" stroke-miterlimit="4.00" viewBox="0 0 1024 768"><desc>SVG generated by Keynote</desc><defs></defs><g transform="matrix(1.00, 0.00, -0.00, -1.00, 0.0, 768.0)"><path d="M 0.0 768.0 L 1024.0 768.0 L 1024.0 0.0 L 0.0 0.0 Z M 0.0 768.0 " fill="#FEFFFF"></path><g><clipPath id="clip-1589"><path d="M 147.0 19.0 L 877.0 19.0 L 877.0 749.0 L 147.0 749.0 Z M 147.0 19.0 "></path></clipPath><g clip-path="url(#clip-1589)"><path d="M 147.0 19.0 L 877.0 19.0 L 877.0 749.0 L 147.0 749.0 Z M 147.0 19.0 " fill="#FFFFFF"></path></g></g><g><clipPath id="clip-1590"><path d="M 243.2 128.1 L 873.4 128.1 L 873.4 745.4 L 243.2 745.4 Z M 243.2 128.1 "></path></clipPath><g clip-path="url(#clip-1590)"><text xml:space="preserve" font-family="ZapfDingbatsITC" font-size="21.7" fill="#000000" transform="matrix(2.53, 0.00, -0.00, -2.53, 339.6, 457.6)">●</text><text xml:space="preserve" font-family="ZapfDingbatsITC" font-size="21.7" fill="#000000" transform="matrix(2.53, 0.00, -0.00, -2.53, 536.5, 356.3)">●</text><text xml:space="preserve" font-family="ZapfDingbatsITC" font-size="21.7" fill="#000000" transform="matrix(2.53, 0.00, -0.00, -2.53, 733.5, 574.8)">●</text><path d="M 84.6 190.8 L 84.6 190.8 " fill="none" stroke="#000000" stroke-width="1.07" stroke-miterlimit="1.00" stroke-linejoin="round" transform="matrix(2.53, 0.00, 0.00, 2.53, 147.0, 19.0)"></path><path d="M 84.6 190.8 L 84.6 170.3 " fill="none" stroke="#000000" stroke-width="1.07" stroke-miterlimit="1.00" stroke-linejoin="round" transform="matrix(2.53, 0.00, 0.00, 2.53, 147.0, 19.0)"></path><path d="M 84.6 170.3 L 84.6 170.3 " fill="none" stroke="#000000" stroke-width="1.07" stroke-miterlimit="1.00" stroke-linejoin="round" transform="matrix(2.53, 0.00, 0.00, 2.53, 147.0, 19.0)"></path><path d="M 162.3 176.1 L 162.3 176.1 " fill="none" stroke="#000000" stroke-width="1.07" stroke-miterlimit="1.00" stroke-linejoin="round" transform="matrix(2.53, 0.00, 0.00, 2.53, 147.0, 19.0)"></path><path d="M 162.3 176.1 L 162.3 103.8 " fill="none" stroke="#000000" stroke-width="1.07" stroke-miterlimit="1.00" stroke-linejoin="round" transform="matrix(2.53, 0.00, 0.00, 2.53, 147.0, 19.0)"></path><path d="M 162.3 103.8 L 162.3 103.8 " fill="none" stroke="#000000" stroke-width="1.07" stroke-miterlimit="1.00" stroke-linejoin="round" transform="matrix(2.53, 0.00, 0.00, 2.53, 147.0, 19.0)"></path><path d="M 240.0 251.3 L 240.0 251.3 " fill="none" stroke="#000000" stroke-width="1.07" stroke-miterlimit="1.00" stroke-linejoin="round" transform="matrix(2.53, 0.00, 0.00, 2.53, 147.0, 19.0)"></path><path d="M 240.0 251.3 L 240.0 202.2 " fill="none" stroke="#000000" stroke-width="1.07" stroke-miterlimit="1.00" stroke-linejoin="round" transform="matrix(2.53, 0.00, 0.00, 2.53, 147.0, 19.0)"></path><path d="M 240.0 202.2 L 240.0 202.2 " fill="none" stroke="#000000" stroke-width="1.07" stroke-miterlimit="1.00" stroke-linejoin="round" transform="matrix(2.53, 0.00, 0.00, 2.53, 147.0, 19.0)"></path></g></g><g><clipPath id="clip-1591"><path d="M 147.0 19.0 L 877.0 19.0 L 877.0 749.0 L 147.0 749.0 Z M 147.0 19.0 "></path></clipPath><g clip-path="url(#clip-1591)"><path d="M 38.0 43.0 L 38.0 286.6 " fill="none" stroke="#000000" stroke-width="1.07" stroke-miterlimit="0.00" stroke-linejoin="round" transform="matrix(2.53, 0.00, 0.00, 2.53, 147.0, 19.0)"></path><text xml:space="preserve" font-family="Helvetica" font-size="10.0" fill="#000000" transform="matrix(2.53, 0.00, -0.00, -2.53, 191.6, 147.1)">0</text><text xml:space="preserve" font-family="Helvetica" font-size="10.0" fill="#000000" transform="matrix(2.53, 0.00, -0.00, -2.53, 205.7, 147.1)">.</text><text xml:space="preserve" font-family="Helvetica" font-size="10.0" fill="#000000" transform="matrix(2.53, 0.00, -0.00, -2.53, 212.7, 147.1)">0</text><text xml:space="preserve" font-family="Helvetica" font-size="10.0" fill="#000000" transform="matrix(2.53, 0.00, -0.00, -2.53, 191.6, 362.9)">0</text><text xml:space="preserve" font-family="Helvetica" font-size="10.0" fill="#000000" transform="matrix(2.53, 0.00, -0.00, -2.53, 205.7, 362.9)">.</text><text xml:space="preserve" font-family="Helvetica" font-size="10.0" fill="#000000" transform="matrix(2.53, 0.00, -0.00, -2.53, 212.7, 362.9)">5</text><text xml:space="preserve" font-family="Helvetica" font-size="10.0" fill="#000000" transform="matrix(2.53, 0.00, -0.00, -2.53, 191.6, 578.7)">1</text><text xml:space="preserve" font-family="Helvetica" font-size="10.0" fill="#000000" transform="matrix(2.53, 0.00, -0.00, -2.53, 205.7, 578.7)">.</text><text xml:space="preserve" font-family="Helvetica" font-size="10.0" fill="#000000" transform="matrix(2.53, 0.00, -0.00, -2.53, 212.7, 578.7)">0</text><path d="M 34.5 54.1 L 38.0 54.1 " fill="none" stroke="#BDBDBD" stroke-width="0.43" stroke-miterlimit="0.00" stroke-linejoin="round" transform="matrix(2.53, 0.00, 0.00, 2.53, 147.0, 19.0)"></path><path d="M 34.5 139.3 L 38.0 139.3 " fill="none" stroke="#BDBDBD" stroke-width="0.43" stroke-miterlimit="0.00" stroke-linejoin="round" transform="matrix(2.53, 0.00, 0.00, 2.53, 147.0, 19.0)"></path><path d="M 34.5 224.4 L 38.0 224.4 " fill="none" stroke="#BDBDBD" stroke-width="0.43" stroke-miterlimit="0.00" stroke-linejoin="round" transform="matrix(2.53, 0.00, 0.00, 2.53, 147.0, 19.0)"></path><path d="M 38.0 43.0 L 286.6 43.0 " fill="none" stroke="#000000" stroke-width="1.07" stroke-miterlimit="0.00" stroke-linejoin="round" transform="matrix(2.53, 0.00, 0.00, 2.53, 147.0, 19.0)"></path><path d="M 84.6 39.6 L 84.6 43.0 " fill="none" stroke="#BDBDBD" stroke-width="0.43" stroke-miterlimit="0.00" stroke-linejoin="round" transform="matrix(2.53, 0.00, 0.00, 2.53, 147.0, 19.0)"></path><path d="M 162.3 39.6 L 162.3 43.0 " fill="none" stroke="#BDBDBD" stroke-width="0.43" stroke-miterlimit="0.00" stroke-linejoin="round" transform="matrix(2.53, 0.00, 0.00, 2.53, 147.0, 19.0)"></path><path d="M 240.0 39.6 L 240.0 43.0 " fill="none" stroke="#BDBDBD" stroke-width="0.43" stroke-miterlimit="0.00" stroke-linejoin="round" transform="matrix(2.53, 0.00, 0.00, 2.53, 147.0, 19.0)"></path><text xml:space="preserve" font-family="Helvetica" font-size="10.0" fill="#000000" transform="matrix(2.53, 0.00, -0.00, -2.53, 319.2, 93.5)">g</text><text xml:space="preserve" font-family="Helvetica" font-size="10.0" fill="#000000" transform="matrix(2.53, 0.00, -0.00, -2.53, 333.3, 93.5)">e</text><text xml:space="preserve" font-family="Helvetica" font-size="10.0" fill="#000000" transform="matrix(2.53, 0.00, -0.00, -2.53, 347.4, 93.5)">n</text><text xml:space="preserve" font-family="Helvetica" font-size="10.0" fill="#000000" transform="matrix(2.53, 0.00, -0.00, -2.53, 361.5, 93.5)">e</text><text xml:space="preserve" font-family="Helvetica" font-size="10.0" fill="#000000" transform="matrix(2.53, 0.00, -0.00, -2.53, 375.6, 93.5)">r</text><text xml:space="preserve" font-family="Helvetica" font-size="10.0" fill="#000000" transform="matrix(2.53, 0.00, -0.00, -2.53, 383.8, 93.5)">a</text><text xml:space="preserve" font-family="Helvetica" font-size="10.0" fill="#000000" transform="matrix(2.53, 0.00, -0.00, -2.53, 397.9, 93.5)">l</text><text xml:space="preserve" font-family="Helvetica" font-size="10.0" fill="#000000" transform="matrix(2.53, 0.00, -0.00, -2.53, 296.0, 67.2)">p</text><text xml:space="preserve" font-family="Helvetica" font-size="10.0" fill="#000000" transform="matrix(2.53, 0.00, -0.00, -2.53, 310.1, 67.2)">a</text><text xml:space="preserve" font-family="Helvetica" font-size="10.0" fill="#000000" transform="matrix(2.53, 0.00, -0.00, -2.53, 324.2, 67.2)">r</text><text xml:space="preserve" font-family="Helvetica" font-size="10.0" fill="#000000" transform="matrix(2.53, 0.00, -0.00, -2.53, 333.7, 67.2)">t</text><text xml:space="preserve" font-family="Helvetica" font-size="10.0" fill="#000000" transform="matrix(2.53, 0.00, -0.00, -2.53, 340.7, 67.2)">i</text><text xml:space="preserve" font-family="Helvetica" font-size="10.0" fill="#000000" transform="matrix(2.53, 0.00, -0.00, -2.53, 346.4, 67.2)">c</text><text xml:space="preserve" font-family="Helvetica" font-size="10.0" fill="#000000" transform="matrix(2.53, 0.00, -0.00, -2.53, 359.0, 67.2)">i</text><text xml:space="preserve" font-family="Helvetica" font-size="10.0" fill="#000000" transform="matrix(2.53, 0.00, -0.00, -2.53, 364.7, 67.2)">p</text><text xml:space="preserve" font-family="Helvetica" font-size="10.0" fill="#000000" transform="matrix(2.53, 0.00, -0.00, -2.53, 378.8, 67.2)">a</text><text xml:space="preserve" font-family="Helvetica" font-size="10.0" fill="#000000" transform="matrix(2.53, 0.00, -0.00, -2.53, 392.9, 67.2)">n</text><text xml:space="preserve" font-family="Helvetica" font-size="10.0" fill="#000000" transform="matrix(2.53, 0.00, -0.00, -2.53, 407.0, 67.2)">t</text><text xml:space="preserve" font-family="Helvetica" font-size="10.0" fill="#000000" transform="matrix(2.53, 0.00, -0.00, -2.53, 414.0, 67.2)">s</text><text xml:space="preserve" font-family="Helvetica" font-size="10.0" fill="#000000" transform="matrix(2.53, 0.00, -0.00, -2.53, 489.6, 93.5)">l</text><text xml:space="preserve" font-family="Helvetica" font-size="10.0" fill="#000000" transform="matrix(2.53, 0.00, -0.00, -2.53, 495.2, 93.5)">i</text><text xml:space="preserve" font-family="Helvetica" font-size="10.0" fill="#000000" transform="matrix(2.53, 0.00, -0.00, -2.53, 500.9, 93.5)">m</text><text xml:space="preserve" font-family="Helvetica" font-size="10.0" fill="#000000" transform="matrix(2.53, 0.00, -0.00, -2.53, 522.0, 93.5)">i</text><text xml:space="preserve" font-family="Helvetica" font-size="10.0" fill="#000000" transform="matrix(2.53, 0.00, -0.00, -2.53, 527.6, 93.5)">t</text><text xml:space="preserve" font-family="Helvetica" font-size="10.0" fill="#000000" transform="matrix(2.53, 0.00, -0.00, -2.53, 534.6, 93.5)">e</text><text xml:space="preserve" font-family="Helvetica" font-size="10.0" fill="#000000" transform="matrix(2.53, 0.00, -0.00, -2.53, 548.7, 93.5)">d</text><text xml:space="preserve" font-family="Helvetica" font-size="10.0" fill="#000000" transform="matrix(2.53, 0.00, -0.00, -2.53, 562.8, 93.5)"> </text><text xml:space="preserve" font-family="Helvetica" font-size="10.0" fill="#000000" transform="matrix(2.53, 0.00, -0.00, -2.53, 569.9, 93.5)">e</text><text xml:space="preserve" font-family="Helvetica" font-size="10.0" fill="#000000" transform="matrix(2.53, 0.00, -0.00, -2.53, 584.0, 93.5)">n</text><text xml:space="preserve" font-family="Helvetica" font-size="10.0" fill="#000000" transform="matrix(2.53, 0.00, -0.00, -2.53, 598.1, 93.5)">t</text><text xml:space="preserve" font-family="Helvetica" font-size="10.0" fill="#000000" transform="matrix(2.53, 0.00, -0.00, -2.53, 605.1, 93.5)">r</text><text xml:space="preserve" font-family="Helvetica" font-size="10.0" fill="#000000" transform="matrix(2.53, 0.00, -0.00, -2.53, 614.3, 93.5)">y</text><text xml:space="preserve" font-family="Helvetica" font-size="10.0" fill="#000000" transform="matrix(2.53, 0.00, -0.00, -2.53, 538.9, 67.2)">e</text><text xml:space="preserve" font-family="Helvetica" font-size="10.0" fill="#000000" transform="matrix(2.53, 0.00, -0.00, -2.53, 552.3, 67.2)">x</text><text xml:space="preserve" font-family="Helvetica" font-size="10.0" fill="#000000" transform="matrix(2.53, 0.00, -0.00, -2.53, 565.0, 67.2)">i</text><text xml:space="preserve" font-family="Helvetica" font-size="10.0" fill="#000000" transform="matrix(2.53, 0.00, -0.00, -2.53, 570.6, 67.2)">t</text><text xml:space="preserve" font-family="Helvetica" font-size="10.0" fill="#000000" transform="matrix(2.53, 0.00, -0.00, -2.53, 689.7, 93.5)">c</text><text xml:space="preserve" font-family="Helvetica" font-size="10.0" fill="#000000" transform="matrix(2.53, 0.00, -0.00, -2.53, 702.4, 93.5)">a</text><text xml:space="preserve" font-family="Helvetica" font-size="10.0" fill="#000000" transform="matrix(2.53, 0.00, -0.00, -2.53, 716.5, 93.5)">t</text><text xml:space="preserve" font-family="Helvetica" font-size="10.0" fill="#000000" transform="matrix(2.53, 0.00, -0.00, -2.53, 723.5, 93.5)">c</text><text xml:space="preserve" font-family="Helvetica" font-size="10.0" fill="#000000" transform="matrix(2.53, 0.00, -0.00, -2.53, 736.2, 93.5)">h</text><text xml:space="preserve" font-family="Helvetica" font-size="10.0" fill="#000000" transform="matrix(2.53, 0.00, -0.00, -2.53, 750.3, 93.5)"> </text><text xml:space="preserve" font-family="Helvetica" font-size="10.0" fill="#000000" transform="matrix(2.53, 0.00, -0.00, -2.53, 757.3, 93.5)">s</text><text xml:space="preserve" font-family="Helvetica" font-size="10.0" fill="#000000" transform="matrix(2.53, 0.00, -0.00, -2.53, 770.0, 93.5)">h</text><text xml:space="preserve" font-family="Helvetica" font-size="10.0" fill="#000000" transform="matrix(2.53, 0.00, -0.00, -2.53, 784.1, 93.5)">a</text><text xml:space="preserve" font-family="Helvetica" font-size="10.0" fill="#000000" transform="matrix(2.53, 0.00, -0.00, -2.53, 798.2, 93.5)">r</text><text xml:space="preserve" font-family="Helvetica" font-size="10.0" fill="#000000" transform="matrix(2.53, 0.00, -0.00, -2.53, 806.6, 93.5)">e</text><text xml:space="preserve" font-family="Helvetica" font-size="10.0" fill="#000000" transform="matrix(2.53, 0.00, -0.00, -2.53, 696.2, 67.2)">p</text><text xml:space="preserve" font-family="Helvetica" font-size="10.0" fill="#000000" transform="matrix(2.53, 0.00, -0.00, -2.53, 710.3, 67.2)">a</text><text xml:space="preserve" font-family="Helvetica" font-size="10.0" fill="#000000" transform="matrix(2.53, 0.00, -0.00, -2.53, 724.4, 67.2)">r</text><text xml:space="preserve" font-family="Helvetica" font-size="10.0" fill="#000000" transform="matrix(2.53, 0.00, -0.00, -2.53, 733.9, 67.2)">t</text><text xml:space="preserve" font-family="Helvetica" font-size="10.0" fill="#000000" transform="matrix(2.53, 0.00, -0.00, -2.53, 740.9, 67.2)">i</text><text xml:space="preserve" font-family="Helvetica" font-size="10.0" fill="#000000" transform="matrix(2.53, 0.00, -0.00, -2.53, 746.5, 67.2)">c</text><text xml:space="preserve" font-family="Helvetica" font-size="10.0" fill="#000000" transform="matrix(2.53, 0.00, -0.00, -2.53, 759.2, 67.2)">i</text><text xml:space="preserve" font-family="Helvetica" font-size="10.0" fill="#000000" transform="matrix(2.53, 0.00, -0.00, -2.53, 764.9, 67.2)">p</text><text xml:space="preserve" font-family="Helvetica" font-size="10.0" fill="#000000" transform="matrix(2.53, 0.00, -0.00, -2.53, 778.9, 67.2)">a</text><text xml:space="preserve" font-family="Helvetica" font-size="10.0" fill="#000000" transform="matrix(2.53, 0.00, -0.00, -2.53, 793.0, 67.2)">n</text><text xml:space="preserve" font-family="Helvetica" font-size="10.0" fill="#000000" transform="matrix(2.53, 0.00, -0.00, -2.53, 807.1, 67.2)">t</text><text xml:space="preserve" font-family="Symbol" font-size="12.0" fill="#000000" transform="matrix(0.00, 2.53, 2.53, -0.00, 176.4, 416.4)">∆</text><text xml:space="preserve" font-family="Helvetica" font-size="12.0" fill="#000000" transform="matrix(0.00, 2.53, 2.53, -0.00, 176.4, 435.0)">H</text></g></g><text xml:space="preserve" font-family="Helvetica-Light" font-size="20.0" fill="#000000" transform="matrix(1.00, 0.00, -0.00, -1.00, 833.0, 31.0)">F</text><text xml:space="preserve" font-family="Helvetica-Light" font-size="20.0" fill="#000000" transform="matrix(1.00, 0.00, -0.00, -1.00, 844.1, 31.0)">u</text><text xml:space="preserve" font-family="Helvetica-Light" font-size="20.0" fill="#000000" transform="matrix(1.00, 0.00, -0.00, -1.00, 855.2, 31.0)">l</text><text xml:space="preserve" font-family="Helvetica-Light" font-size="20.0" fill="#000000" transform="matrix(1.00, 0.00, -0.00, -1.00, 859.7, 31.0)">l</text><text xml:space="preserve" font-family="Helvetica-Light" font-size="20.0" fill="#000000" transform="matrix(1.00, 0.00, -0.00, -1.00, 864.1, 31.0)">e</text><text xml:space="preserve" font-family="Helvetica-Light" font-size="20.0" fill="#000000" transform="matrix(1.00, 0.00, -0.00, -1.00, 875.2, 31.0)">r</text><text xml:space="preserve" font-family="Helvetica-Light" font-size="20.0" fill="#000000" transform="matrix(1.00, 0.00, -0.00, -1.00, 881.9, 31.0)"> </text><text xml:space="preserve" font-family="Helvetica-Light" font-size="20.0" fill="#000000" transform="matrix(1.00, 0.00, -0.00, -1.00, 887.5, 31.0)">e</text><text xml:space="preserve" font-family="Helvetica-Light" font-size="20.0" fill="#000000" transform="matrix(1.00, 0.00, -0.00, -1.00, 898.6, 31.0)">t</text><text xml:space="preserve" font-family="Helvetica-Light" font-size="20.0" fill="#000000" transform="matrix(1.00, 0.00, -0.00, -1.00, 904.1, 31.0)"> </text><text xml:space="preserve" font-family="Helvetica-Light" font-size="20.0" fill="#000000" transform="matrix(1.00, 0.00, -0.00, -1.00, 909.7, 31.0)">a</text><text xml:space="preserve" font-family="Helvetica-Light" font-size="20.0" fill="#000000" transform="matrix(1.00, 0.00, -0.00, -1.00, 920.8, 31.0)">l</text><text xml:space="preserve" font-family="Helvetica-Light" font-size="20.0" fill="#000000" transform="matrix(1.00, 0.00, -0.00, -1.00, 925.3, 31.0)">.</text><text xml:space="preserve" font-family="Helvetica-Light" font-size="20.0" fill="#000000" transform="matrix(1.00, 0.00, -0.00, -1.00, 930.8, 31.0)"> </text><text xml:space="preserve" font-family="Helvetica-Light" font-size="20.0" fill="#000000" transform="matrix(1.00, 0.00, -0.00, -1.00, 936.4, 31.0)">(</text><text xml:space="preserve" font-family="Helvetica-Light" font-size="20.0" fill="#000000" transform="matrix(1.00, 0.00, -0.00, -1.00, 943.0, 31.0)">i</text><text xml:space="preserve" font-family="Helvetica-Light" font-size="20.0" fill="#000000" transform="matrix(1.00, 0.00, -0.00, -1.00, 947.5, 31.0)">n</text><text xml:space="preserve" font-family="Helvetica-Light" font-size="20.0" fill="#000000" transform="matrix(1.00, 0.00, -0.00, -1.00, 958.6, 31.0)"> </text><text xml:space="preserve" font-family="Helvetica-Light" font-size="20.0" fill="#000000" transform="matrix(1.00, 0.00, -0.00, -1.00, 964.2, 31.0)">p</text><text xml:space="preserve" font-family="Helvetica-Light" font-size="20.0" fill="#000000" transform="matrix(1.00, 0.00, -0.00, -1.00, 976.4, 31.0)">r</text><text xml:space="preserve" font-family="Helvetica-Light" font-size="20.0" fill="#000000" transform="matrix(1.00, 0.00, -0.00, -1.00, 982.7, 31.0)">e</text><text xml:space="preserve" font-family="Helvetica-Light" font-size="20.0" fill="#000000" transform="matrix(1.00, 0.00, -0.00, -1.00, 993.8, 31.0)">p</text><text xml:space="preserve" font-family="Helvetica-Light" font-size="20.0" fill="#000000" transform="matrix(1.00, 0.00, -0.00, -1.00, 1006.0, 31.0)">)</text></g></svg>