<?xml version="1.0" encoding="UTF-8" standalone="no"?><svg xmlns="http://www.w3.org/2000/svg" xmlns:xlink="http://www.w3.org/1999/xlink" clip-rule="evenodd" stroke-miterlimit="4.00" viewBox="0 0 1024 768"><desc>SVG generated by Keynote</desc><defs></defs><g transform="matrix(1.00, 0.00, -0.00, -1.00, 0.0, 768.0)"><path d="M 0.0 768.0 L 1024.0 768.0 L 1024.0 0.0 L 0.0 0.0 Z M 0.0 768.0 " fill="#FEFFFF"></path><text xml:space="preserve" font-family="Helvetica-Light" font-size="55.0" fill="#859900" transform="matrix(1.00, 0.00, -0.00, -1.00, 130.0, 518.0)">c</text><text xml:space="preserve" font-family="Helvetica-Light" font-size="55.0" fill="#859900" transform="matrix(1.00, 0.00, -0.00, -1.00, 160.6, 518.0)">o</text><text xml:space="preserve" font-family="Helvetica-Light" font-size="55.0" fill="#859900" transform="matrix(1.00, 0.00, -0.00, -1.00, 191.2, 518.0)">n</text><text xml:space="preserve" font-family="Helvetica-Light" font-size="55.0" fill="#859900" transform="matrix(1.00, 0.00, -0.00, -1.00, 221.7, 518.0)">s</text><text xml:space="preserve" font-family="Helvetica-Light" font-size="55.0" fill="#859900" transform="matrix(1.00, 0.00, -0.00, -1.00, 249.2, 518.0)">e</text><text xml:space="preserve" font-family="Helvetica-Light" font-size="55.0" fill="#859900" transform="matrix(1.00, 0.00, -0.00, -1.00, 279.8, 518.0)">r</text><text xml:space="preserve" font-family="Helvetica-Light" font-size="55.0" fill="#859900" transform="matrix(1.00, 0.00, -0.00, -1.00, 298.1, 518.0)">v</text><text xml:space="preserve" font-family="Helvetica-Light" font-size="55.0" fill="#859900" transform="matrix(1.00, 0.00, -0.00, -1.00, 325.6, 518.0)">a</text><text xml:space="preserve" font-family="Helvetica-Light" font-size="55.0" fill="#859900" transform="matrix(1.00, 0.00, -0.00, -1.00, 356.2, 518.0)">t</text><text xml:space="preserve" font-family="Helvetica-Light" font-size="55.0" fill="#859900" transform="matrix(1.00, 0.00, -0.00, -1.00, 371.5, 518.0)">i</text><text xml:space="preserve" font-family="Helvetica-Light" font-size="55.0" fill="#859900" transform="matrix(1.00, 0.00, -0.00, -1.00, 383.7, 518.0)">o</text><text xml:space="preserve" font-family="Helvetica-Light" font-size="55.0" fill="#859900" transform="matrix(1.00, 0.00, -0.00, -1.00, 414.3, 518.0)">n</text><text xml:space="preserve" font-family="Helvetica-Light" font-size="55.0" fill="#859900" transform="matrix(1.00, 0.00, -0.00, -1.00, 204.0, 275.0)">h</text><text xml:space="preserve" font-family="Helvetica-Light" font-size="55.0" fill="#859900" transform="matrix(1.00, 0.00, -0.00, -1.00, 234.6, 275.0)">u</text><text xml:space="preserve" font-family="Helvetica-Light" font-size="55.0" fill="#859900" transform="matrix(1.00, 0.00, -0.00, -1.00, 265.2, 275.0)">m</text><text xml:space="preserve" font-family="Helvetica-Light" font-size="55.0" fill="#859900" transform="matrix(1.00, 0.00, -0.00, -1.00, 311.0, 275.0)">a</text><text xml:space="preserve" font-family="Helvetica-Light" font-size="55.0" fill="#859900" transform="matrix(1.00, 0.00, -0.00, -1.00, 341.6, 275.0)">n</text><text xml:space="preserve" font-family="Helvetica-Light" font-size="55.0" fill="#859900" transform="matrix(1.00, 0.00, -0.00, -1.00, 372.1, 275.0)"> </text><text xml:space="preserve" font-family="Helvetica-Light" font-size="55.0" fill="#859900" transform="matrix(1.00, 0.00, -0.00, -1.00, 387.4, 275.0)"> </text><text xml:space="preserve" font-family="Helvetica-Light" font-size="55.0" fill="#859900" transform="matrix(1.00, 0.00, -0.00, -1.00, 161.0, 209.0)">w</text><text xml:space="preserve" font-family="Helvetica-Light" font-size="55.0" fill="#859900" transform="matrix(1.00, 0.00, -0.00, -1.00, 200.7, 209.0)">e</text><text xml:space="preserve" font-family="Helvetica-Light" font-size="55.0" fill="#859900" transform="matrix(1.00, 0.00, -0.00, -1.00, 231.3, 209.0)">l</text><text xml:space="preserve" font-family="Helvetica-Light" font-size="55.0" fill="#859900" transform="matrix(1.00, 0.00, -0.00, -1.00, 243.5, 209.0)">l</text><text xml:space="preserve" font-family="Helvetica-Light" font-size="55.0" fill="#859900" transform="matrix(1.00, 0.00, -0.00, -1.00, 255.7, 209.0)">-</text><text xml:space="preserve" font-family="Helvetica-Light" font-size="55.0" fill="#859900" transform="matrix(1.00, 0.00, -0.00, -1.00, 274.0, 209.0)">b</text><text xml:space="preserve" font-family="Helvetica-Light" font-size="55.0" fill="#859900" transform="matrix(1.00, 0.00, -0.00, -1.00, 307.6, 209.0)">e</text><text xml:space="preserve" font-family="Helvetica-Light" font-size="55.0" fill="#859900" transform="matrix(1.00, 0.00, -0.00, -1.00, 338.2, 209.0)">i</text><text xml:space="preserve" font-family="Helvetica-Light" font-size="55.0" fill="#859900" transform="matrix(1.00, 0.00, -0.00, -1.00, 350.4, 209.0)">n</text><text xml:space="preserve" font-family="Helvetica-Light" font-size="55.0" fill="#859900" transform="matrix(1.00, 0.00, -0.00, -1.00, 381.0, 209.0)">g</text><path d="M 0.0 152.5 L 0.0 150.0 C 0.0 106.5 0.0 63.0 0.0 19.6 L 0.0 17.1 " fill="none" stroke="#859900" stroke-width="5.00" transform="matrix(1.00, 0.00, 0.00, -1.00, 287.7, 501.8)"></path><path d="M 0.0 0.0 L 3.0 5.0 L 6.0 0.0 M 3.0 0.0 L 3.0 5.0 " fill="none" stroke="#859900" stroke-width="1.47" stroke-miterlimit="10.00" stroke-linejoin="round" transform="matrix(-3.40, 0.00, 0.00, 3.40, 297.9, 482.2)"></path><path d="M 0.0 0.0 L 3.0 5.0 L 6.0 0.0 M 3.0 0.0 L 3.0 5.0 " fill="none" stroke="#859900" stroke-width="1.47" stroke-miterlimit="10.00" stroke-linejoin="round" transform="matrix(3.40, 0.00, 0.00, -3.40, 277.5, 351.8)"></path><text xml:space="preserve" font-family="Helvetica-Bold" font-weight="bold" font-size="50.0" fill="#859900" transform="matrix(1.00, 0.00, -0.00, -1.00, 304.0, 391.0)">?</text></g></svg>