<?xml version="1.0" encoding="UTF-8" standalone="no"?><svg xmlns="http://www.w3.org/2000/svg" xmlns:xlink="http://www.w3.org/1999/xlink" clip-rule="evenodd" stroke-miterlimit="4.00" viewBox="0 0 1024 768"><desc>SVG generated by Keynote</desc><defs></defs><g transform="matrix(1.00, 0.00, -0.00, -1.00, 0.0, 768.0)"><path d="M 0.0 768.0 L 1024.0 768.0 L 1024.0 0.0 L 0.0 0.0 Z M 0.0 768.0 " fill="#FEFFFF"></path><text xml:space="preserve" font-family="Helvetica-Light" font-size="72.8" fill="#000000" transform="matrix(1.00, 0.00, -0.00, -1.00, 84.0, 621.0)">R</text><text xml:space="preserve" font-family="Helvetica-Light" font-size="72.8" fill="#000000" transform="matrix(1.00, 0.00, -0.00, -1.00, 132.6, 621.0)">a</text><text xml:space="preserve" font-family="Helvetica-Light" font-size="72.8" fill="#000000" transform="matrix(1.00, 0.00, -0.00, -1.00, 173.0, 621.0)">n</text><text xml:space="preserve" font-family="Helvetica-Light" font-size="72.8" fill="#000000" transform="matrix(1.00, 0.00, -0.00, -1.00, 213.5, 621.0)">g</text><text xml:space="preserve" font-family="Helvetica-Light" font-size="72.8" fill="#000000" transform="matrix(1.00, 0.00, -0.00, -1.00, 258.0, 621.0)">e</text><text xml:space="preserve" font-family="Helvetica-Light" font-size="72.8" fill="#000000" transform="matrix(1.00, 0.00, -0.00, -1.00, 298.5, 621.0)"> </text><text xml:space="preserve" font-family="Helvetica-Light" font-size="72.8" fill="#000000" transform="matrix(1.00, 0.00, -0.00, -1.00, 318.7, 621.0)">s</text><text xml:space="preserve" font-family="Helvetica-Light" font-size="72.8" fill="#000000" transform="matrix(1.00, 0.00, -0.00, -1.00, 355.1, 621.0)">h</text><text xml:space="preserve" font-family="Helvetica-Light" font-size="72.8" fill="#000000" transform="matrix(1.00, 0.00, -0.00, -1.00, 395.6, 621.0)">i</text><text xml:space="preserve" font-family="Helvetica-Light" font-size="72.8" fill="#000000" transform="matrix(1.00, 0.00, -0.00, -1.00, 411.7, 621.0)">f</text><text xml:space="preserve" font-family="Helvetica-Light" font-size="72.8" fill="#000000" transform="matrix(1.00, 0.00, -0.00, -1.00, 432.0, 621.0)">t</text><text xml:space="preserve" font-family="Helvetica-Light" font-size="72.8" fill="#000000" transform="matrix(1.00, 0.00, -0.00, -1.00, 452.2, 621.0)">s</text><text xml:space="preserve" font-family="Helvetica-Light" font-size="72.8" fill="#000000" transform="matrix(1.00, 0.00, -0.00, -1.00, 488.6, 621.0)"> </text><text xml:space="preserve" font-family="Helvetica-Light" font-size="72.8" fill="#000000" transform="matrix(1.00, 0.00, -0.00, -1.00, 508.9, 621.0)">+</text><text xml:space="preserve" font-family="Helvetica-Light" font-size="72.8" fill="#000000" transform="matrix(1.00, 0.00, -0.00, -1.00, 556.9, 621.0)"> </text><text xml:space="preserve" font-family="Helvetica-Light" font-size="72.8" fill="#000000" transform="matrix(1.00, 0.00, -0.00, -1.00, 577.1, 621.0)">h</text><text xml:space="preserve" font-family="Helvetica-Light" font-size="72.8" fill="#000000" transform="matrix(1.00, 0.00, -0.00, -1.00, 617.6, 621.0)">a</text><text xml:space="preserve" font-family="Helvetica-Light" font-size="72.8" fill="#000000" transform="matrix(1.00, 0.00, -0.00, -1.00, 658.1, 621.0)">r</text><text xml:space="preserve" font-family="Helvetica-Light" font-size="72.8" fill="#000000" transform="matrix(1.00, 0.00, -0.00, -1.00, 682.3, 621.0)">v</text><text xml:space="preserve" font-family="Helvetica-Light" font-size="72.8" fill="#000000" transform="matrix(1.00, 0.00, -0.00, -1.00, 718.7, 621.0)">e</text><text xml:space="preserve" font-family="Helvetica-Light" font-size="72.8" fill="#000000" transform="matrix(1.00, 0.00, -0.00, -1.00, 759.2, 621.0)">s</text><text xml:space="preserve" font-family="Helvetica-Light" font-size="72.8" fill="#000000" transform="matrix(1.00, 0.00, -0.00, -1.00, 795.6, 621.0)">t</text><text xml:space="preserve" font-family="Helvetica-Light" font-size="72.8" fill="#000000" transform="matrix(1.00, 0.00, -0.00, -1.00, 815.9, 621.0)"> </text><text xml:space="preserve" font-family="Helvetica-Light" font-size="72.8" fill="#000000" transform="matrix(1.00, 0.00, -0.00, -1.00, 836.1, 621.0)">=</text><text xml:space="preserve" font-family="Helvetica-Light" font-size="72.8" fill="#000000" transform="matrix(1.00, 0.00, -0.00, -1.00, 884.1, 621.0)"> </text><text xml:space="preserve" font-family="Helvetica-Light" font-size="72.8" fill="#000000" transform="matrix(1.00, 0.00, -0.00, -1.00, 904.4, 621.0)">?</text><image xlink:href="69A4263F3D2BA5AE380612C15C60679A.png" width="309.00" height="374.00" transform="matrix(1.00, 0.00, -0.00, -1.00, 568.0, 587.0)"></image><g><clipPath id="clip-798"><path d="M 146.0 587.0 L 456.0 587.0 L 456.0 213.0 L 146.0 213.0 Z M 146.2 587.3 "></path></clipPath><g clip-path="url(#clip-798)"><image xlink:href="932AA40D90209B5CAEDC78FE2A48E25C.png" width="768.00" height="768.00" transform="matrix(1.00, 0.00, -0.00, -1.00, 103.0, 954.0)"></image></g></g><text xml:space="preserve" font-family="Helvetica-Light" font-size="36.0" fill="#000000" transform="matrix(1.00, 0.00, -0.00, -1.00, 188.0, 162.0)">E</text><text xml:space="preserve" font-family="Helvetica-Light" font-size="36.0" fill="#000000" transform="matrix(1.00, 0.00, -0.00, -1.00, 210.0, 162.0)">l</text><text xml:space="preserve" font-family="Helvetica-Light" font-size="36.0" fill="#000000" transform="matrix(1.00, 0.00, -0.00, -1.00, 218.0, 162.0)">e</text><text xml:space="preserve" font-family="Helvetica-Light" font-size="36.0" fill="#000000" transform="matrix(1.00, 0.00, -0.00, -1.00, 238.0, 162.0)">a</text><text xml:space="preserve" font-family="Helvetica-Light" font-size="36.0" fill="#000000" transform="matrix(1.00, 0.00, -0.00, -1.00, 258.0, 162.0)">n</text><text xml:space="preserve" font-family="Helvetica-Light" font-size="36.0" fill="#000000" transform="matrix(1.00, 0.00, -0.00, -1.00, 278.0, 162.0)">o</text><text xml:space="preserve" font-family="Helvetica-Light" font-size="36.0" fill="#000000" transform="matrix(1.00, 0.00, -0.00, -1.00, 298.1, 162.0)">r</text><text xml:space="preserve" font-family="Helvetica-Light" font-size="36.0" fill="#000000" transform="matrix(1.00, 0.00, -0.00, -1.00, 310.0, 162.0)"> </text><text xml:space="preserve" font-family="Helvetica-Light" font-size="36.0" fill="#000000" transform="matrix(1.00, 0.00, -0.00, -1.00, 320.0, 162.0)">B</text><text xml:space="preserve" font-family="Helvetica-Light" font-size="36.0" fill="#000000" transform="matrix(1.00, 0.00, -0.00, -1.00, 344.1, 162.0)">r</text><text xml:space="preserve" font-family="Helvetica-Light" font-size="36.0" fill="#000000" transform="matrix(1.00, 0.00, -0.00, -1.00, 356.0, 162.0)">u</text><text xml:space="preserve" font-family="Helvetica-Light" font-size="36.0" fill="#000000" transform="matrix(1.00, 0.00, -0.00, -1.00, 376.1, 162.0)">s</text><text xml:space="preserve" font-family="Helvetica-Light" font-size="36.0" fill="#000000" transform="matrix(1.00, 0.00, -0.00, -1.00, 394.1, 162.0)">h</text><text xml:space="preserve" font-family="Helvetica-Light" font-size="36.0" fill="#000000" transform="matrix(1.00, 0.00, -0.00, -1.00, 414.1, 162.0)"> </text><text xml:space="preserve" font-family="Helvetica-Light" font-size="28.0" fill="#000000" transform="matrix(1.00, 0.00, -0.00, -1.00, 160.0, 126.0)">C</text><text xml:space="preserve" font-family="Helvetica-Light" font-size="28.0" fill="#000000" transform="matrix(1.00, 0.00, -0.00, -1.00, 180.2, 126.0)">o</text><text xml:space="preserve" font-family="Helvetica-Light" font-size="28.0" fill="#000000" transform="matrix(1.00, 0.00, -0.00, -1.00, 195.8, 126.0)">m</text><text xml:space="preserve" font-family="Helvetica-Light" font-size="28.0" fill="#000000" transform="matrix(1.00, 0.00, -0.00, -1.00, 219.1, 126.0)">p</text><text xml:space="preserve" font-family="Helvetica-Light" font-size="28.0" fill="#000000" transform="matrix(1.00, 0.00, -0.00, -1.00, 236.2, 126.0)">u</text><text xml:space="preserve" font-family="Helvetica-Light" font-size="28.0" fill="#000000" transform="matrix(1.00, 0.00, -0.00, -1.00, 251.8, 126.0)">t</text><text xml:space="preserve" font-family="Helvetica-Light" font-size="28.0" fill="#000000" transform="matrix(1.00, 0.00, -0.00, -1.00, 259.6, 126.0)">a</text><text xml:space="preserve" font-family="Helvetica-Light" font-size="28.0" fill="#000000" transform="matrix(1.00, 0.00, -0.00, -1.00, 275.1, 126.0)">t</text><text xml:space="preserve" font-family="Helvetica-Light" font-size="28.0" fill="#000000" transform="matrix(1.00, 0.00, -0.00, -1.00, 282.9, 126.0)">i</text><text xml:space="preserve" font-family="Helvetica-Light" font-size="28.0" fill="#000000" transform="matrix(1.00, 0.00, -0.00, -1.00, 289.1, 126.0)">o</text><text xml:space="preserve" font-family="Helvetica-Light" font-size="28.0" fill="#000000" transform="matrix(1.00, 0.00, -0.00, -1.00, 304.7, 126.0)">n</text><text xml:space="preserve" font-family="Helvetica-Light" font-size="28.0" fill="#000000" transform="matrix(1.00, 0.00, -0.00, -1.00, 320.3, 126.0)">a</text><text xml:space="preserve" font-family="Helvetica-Light" font-size="28.0" fill="#000000" transform="matrix(1.00, 0.00, -0.00, -1.00, 335.8, 126.0)">l</text><text xml:space="preserve" font-family="Helvetica-Light" font-size="28.0" fill="#000000" transform="matrix(1.00, 0.00, -0.00, -1.00, 342.1, 126.0)"> </text><text xml:space="preserve" font-family="Helvetica-Light" font-size="28.0" fill="#000000" transform="matrix(1.00, 0.00, -0.00, -1.00, 349.8, 126.0)">B</text><text xml:space="preserve" font-family="Helvetica-Light" font-size="28.0" fill="#000000" transform="matrix(1.00, 0.00, -0.00, -1.00, 368.5, 126.0)">i</text><text xml:space="preserve" font-family="Helvetica-Light" font-size="28.0" fill="#000000" transform="matrix(1.00, 0.00, -0.00, -1.00, 374.7, 126.0)">o</text><text xml:space="preserve" font-family="Helvetica-Light" font-size="28.0" fill="#000000" transform="matrix(1.00, 0.00, -0.00, -1.00, 390.3, 126.0)">l</text><text xml:space="preserve" font-family="Helvetica-Light" font-size="28.0" fill="#000000" transform="matrix(1.00, 0.00, -0.00, -1.00, 396.5, 126.0)">o</text><text xml:space="preserve" font-family="Helvetica-Light" font-size="28.0" fill="#000000" transform="matrix(1.00, 0.00, -0.00, -1.00, 412.1, 126.0)">g</text><text xml:space="preserve" font-family="Helvetica-Light" font-size="28.0" fill="#000000" transform="matrix(1.00, 0.00, -0.00, -1.00, 429.2, 126.0)">y</text><text xml:space="preserve" font-family="Helvetica-Light" font-size="36.0" fill="#000000" transform="matrix(1.00, 0.00, -0.00, -1.00, 623.0, 162.0)">M</text><text xml:space="preserve" font-family="Helvetica-Light" font-size="36.0" fill="#000000" transform="matrix(1.00, 0.00, -0.00, -1.00, 653.0, 162.0)">a</text><text xml:space="preserve" font-family="Helvetica-Light" font-size="36.0" fill="#000000" transform="matrix(1.00, 0.00, -0.00, -1.00, 673.0, 162.0)">l</text><text xml:space="preserve" font-family="Helvetica-Light" font-size="36.0" fill="#000000" transform="matrix(1.00, 0.00, -0.00, -1.00, 681.0, 162.0)">i</text><text xml:space="preserve" font-family="Helvetica-Light" font-size="36.0" fill="#000000" transform="matrix(1.00, 0.00, -0.00, -1.00, 689.0, 162.0)">n</text><text xml:space="preserve" font-family="Helvetica-Light" font-size="36.0" fill="#000000" transform="matrix(1.00, 0.00, -0.00, -1.00, 709.0, 162.0)"> </text><text xml:space="preserve" font-family="Helvetica-Light" font-size="36.0" fill="#000000" transform="matrix(1.00, 0.00, -0.00, -1.00, 719.0, 162.0)">P</text><text xml:space="preserve" font-family="Helvetica-Light" font-size="36.0" fill="#000000" transform="matrix(1.00, 0.00, -0.00, -1.00, 741.0, 162.0)">i</text><text xml:space="preserve" font-family="Helvetica-Light" font-size="36.0" fill="#000000" transform="matrix(1.00, 0.00, -0.00, -1.00, 749.0, 162.0)">n</text><text xml:space="preserve" font-family="Helvetica-Light" font-size="36.0" fill="#000000" transform="matrix(1.00, 0.00, -0.00, -1.00, 769.0, 162.0)">s</text><text xml:space="preserve" font-family="Helvetica-Light" font-size="36.0" fill="#000000" transform="matrix(1.00, 0.00, -0.00, -1.00, 787.0, 162.0)">k</text><text xml:space="preserve" font-family="Helvetica-Light" font-size="36.0" fill="#000000" transform="matrix(1.00, 0.00, -0.00, -1.00, 805.0, 162.0)">y</text><text xml:space="preserve" font-family="Helvetica-Light" font-size="36.0" fill="#000000" transform="matrix(1.00, 0.00, -0.00, -1.00, 823.0, 162.0)"> </text><text xml:space="preserve" font-family="Helvetica-Light" font-size="28.0" fill="#000000" transform="matrix(1.00, 0.00, -0.00, -1.00, 603.0, 126.0)">A</text><text xml:space="preserve" font-family="Helvetica-Light" font-size="28.0" fill="#000000" transform="matrix(1.00, 0.00, -0.00, -1.00, 621.7, 126.0)">s</text><text xml:space="preserve" font-family="Helvetica-Light" font-size="28.0" fill="#000000" transform="matrix(1.00, 0.00, -0.00, -1.00, 635.7, 126.0)">s</text><text xml:space="preserve" font-family="Helvetica-Light" font-size="28.0" fill="#000000" transform="matrix(1.00, 0.00, -0.00, -1.00, 649.7, 126.0)">i</text><text xml:space="preserve" font-family="Helvetica-Light" font-size="28.0" fill="#000000" transform="matrix(1.00, 0.00, -0.00, -1.00, 655.9, 126.0)">s</text><text xml:space="preserve" font-family="Helvetica-Light" font-size="28.0" fill="#000000" transform="matrix(1.00, 0.00, -0.00, -1.00, 669.9, 126.0)">t</text><text xml:space="preserve" font-family="Helvetica-Light" font-size="28.0" fill="#000000" transform="matrix(1.00, 0.00, -0.00, -1.00, 677.7, 126.0)">a</text><text xml:space="preserve" font-family="Helvetica-Light" font-size="28.0" fill="#000000" transform="matrix(1.00, 0.00, -0.00, -1.00, 693.2, 126.0)">n</text><text xml:space="preserve" font-family="Helvetica-Light" font-size="28.0" fill="#000000" transform="matrix(1.00, 0.00, -0.00, -1.00, 708.8, 126.0)">t</text><text xml:space="preserve" font-family="Helvetica-Light" font-size="28.0" fill="#000000" transform="matrix(1.00, 0.00, -0.00, -1.00, 716.6, 126.0)"> </text><text xml:space="preserve" font-family="Helvetica-Light" font-size="28.0" fill="#000000" transform="matrix(1.00, 0.00, -0.00, -1.00, 724.4, 126.0)">P</text><text xml:space="preserve" font-family="Helvetica-Light" font-size="28.0" fill="#000000" transform="matrix(1.00, 0.00, -0.00, -1.00, 741.5, 126.0)">r</text><text xml:space="preserve" font-family="Helvetica-Light" font-size="28.0" fill="#000000" transform="matrix(1.00, 0.00, -0.00, -1.00, 750.3, 126.0)">o</text><text xml:space="preserve" font-family="Helvetica-Light" font-size="28.0" fill="#000000" transform="matrix(1.00, 0.00, -0.00, -1.00, 765.9, 126.0)">f</text><text xml:space="preserve" font-family="Helvetica-Light" font-size="28.0" fill="#000000" transform="matrix(1.00, 0.00, -0.00, -1.00, 773.7, 126.0)">e</text><text xml:space="preserve" font-family="Helvetica-Light" font-size="28.0" fill="#000000" transform="matrix(1.00, 0.00, -0.00, -1.00, 789.2, 126.0)">s</text><text xml:space="preserve" font-family="Helvetica-Light" font-size="28.0" fill="#000000" transform="matrix(1.00, 0.00, -0.00, -1.00, 803.2, 126.0)">s</text><text xml:space="preserve" font-family="Helvetica-Light" font-size="28.0" fill="#000000" transform="matrix(1.00, 0.00, -0.00, -1.00, 817.2, 126.0)">o</text><text xml:space="preserve" font-family="Helvetica-Light" font-size="28.0" fill="#000000" transform="matrix(1.00, 0.00, -0.00, -1.00, 832.8, 126.0)">r</text><text xml:space="preserve" font-family="Helvetica-Light" font-size="28.0" fill="#000000" transform="matrix(1.00, 0.00, -0.00, -1.00, 842.1, 126.0)"> </text><image xlink:href="FE38CA657374B18E02C91670F50CA42D.png" width="67.00" height="63.00" transform="matrix(0.99, 0.00, -0.00, -1.00, 268.0, 103.0)"></image><g><clipPath id="clip-799"><path d="M 695.0 97.0 L 751.0 97.0 L 751.0 46.0 L 695.0 46.0 Z M 694.7 97.2 "></path></clipPath><g clip-path="url(#clip-799)"><image xlink:href="40D906E9761894E7D33B0D8BFD9BD3C2.png" width="57.00" height="51.00" transform="matrix(0.98, 0.00, -0.00, -1.00, 695.0, 97.0)"></image></g></g></g></svg>