<?xml version="1.0" encoding="UTF-8" standalone="no"?><svg xmlns="http://www.w3.org/2000/svg" xmlns:xlink="http://www.w3.org/1999/xlink" clip-rule="evenodd" stroke-miterlimit="4.00" viewBox="0 0 1024 768"><desc>SVG generated by Keynote</desc><defs></defs><g transform="matrix(1.00, 0.00, -0.00, -1.00, 0.0, 768.0)"><path d="M 0.0 768.0 L 1024.0 768.0 L 1024.0 0.0 L 0.0 0.0 Z M 0.0 768.0 " fill="#FEFFFF"></path><path d="M 0.0 0.0 L 747.8 0.0 " fill="none" stroke="#52575F" stroke-width="5.00" transform="matrix(1.00, 0.00, 0.00, -1.00, 138.1, 150.7)"></path><text xml:space="preserve" font-family="Helvetica-Light" font-size="36.0" fill="#52575F" transform="matrix(1.00, 0.00, -0.00, -1.00, 460.0, 101.0)">S</text><text xml:space="preserve" font-family="Helvetica-Light" font-size="36.0" fill="#52575F" transform="matrix(1.00, 0.00, -0.00, -1.00, 482.0, 101.0)">p</text><text xml:space="preserve" font-family="Helvetica-Light" font-size="36.0" fill="#52575F" transform="matrix(1.00, 0.00, -0.00, -1.00, 504.0, 101.0)">a</text><text xml:space="preserve" font-family="Helvetica-Light" font-size="36.0" fill="#52575F" transform="matrix(1.00, 0.00, -0.00, -1.00, 524.0, 101.0)">c</text><text xml:space="preserve" font-family="Helvetica-Light" font-size="36.0" fill="#52575F" transform="matrix(1.00, 0.00, -0.00, -1.00, 544.0, 101.0)">e</text><path d="M 167.3 348.5 L 257.8 348.5 L 257.8 161.9 L 167.3 161.9 Z M 167.3 348.5 " fill="#6B71C4"></path><g><clipPath id="clip-1166"><path d="M 278.0 610.0 L 349.0 610.0 L 349.0 498.0 L 278.0 498.0 Z M 277.9 609.7 "></path></clipPath><g clip-path="url(#clip-1166)"><image xlink:href="../../5BE603F9-4064-4796-92A3-A77236E9B1B9/assets/C822E1790F789BD9C769DB683A3A5561.png" width="174.00" height="203.00" transform="matrix(0.72, 0.00, -0.00, -0.72, 251.0, 610.0)"></image></g></g><path d="M 355.0 348.5 L 445.5 348.5 L 445.5 161.9 L 355.0 161.9 Z M 355.0 348.5 " fill="#6B71C4"></path><path d="M 556.1 348.5 L 646.5 348.5 L 646.5 161.9 L 556.1 161.9 Z M 556.1 348.5 " fill="#6B71C4"></path><path d="M 757.2 348.5 L 847.6 348.5 L 847.6 161.9 L 757.2 161.9 Z M 757.2 348.5 " fill="#6B71C4"></path><g><clipPath id="clip-1167"><path d="M 278.0 516.0 L 349.0 516.0 L 349.0 405.0 L 278.0 405.0 Z M 277.9 516.0 "></path></clipPath><g clip-path="url(#clip-1167)"><image xlink:href="../../5BE603F9-4064-4796-92A3-A77236E9B1B9/assets/C822E1790F789BD9C769DB683A3A5561.png" width="174.00" height="203.00" transform="matrix(0.72, 0.00, -0.00, -0.71, 251.0, 516.0)"></image></g></g><g><clipPath id="clip-1168"><path d="M 472.0 610.0 L 543.0 610.0 L 543.0 498.0 L 472.0 498.0 Z M 471.7 609.7 "></path></clipPath><g clip-path="url(#clip-1168)"><image xlink:href="../../5BE603F9-4064-4796-92A3-A77236E9B1B9/assets/C822E1790F789BD9C769DB683A3A5561.png" width="174.00" height="203.00" transform="matrix(0.72, 0.00, -0.00, -0.72, 445.0, 610.0)"></image></g></g><g><clipPath id="clip-1169"><path d="M 471.0 516.0 L 542.0 516.0 L 542.0 405.0 L 471.0 405.0 Z M 470.9 516.0 "></path></clipPath><g clip-path="url(#clip-1169)"><image xlink:href="../../5BE603F9-4064-4796-92A3-A77236E9B1B9/assets/C822E1790F789BD9C769DB683A3A5561.png" width="174.00" height="203.00" transform="matrix(0.72, 0.00, -0.00, -0.71, 444.0, 516.0)"></image></g></g><g><clipPath id="clip-1170"><path d="M 664.0 610.0 L 735.0 610.0 L 735.0 498.0 L 664.0 498.0 Z M 663.8 609.7 "></path></clipPath><g clip-path="url(#clip-1170)"><image xlink:href="../../5BE603F9-4064-4796-92A3-A77236E9B1B9/assets/C822E1790F789BD9C769DB683A3A5561.png" width="174.00" height="203.00" transform="matrix(0.72, 0.00, -0.00, -0.72, 637.0, 610.0)"></image></g></g><g><clipPath id="clip-1171"><path d="M 669.0 516.0 L 741.0 516.0 L 741.0 405.0 L 669.0 405.0 Z M 669.2 516.0 "></path></clipPath><g clip-path="url(#clip-1171)"><image xlink:href="../../5BE603F9-4064-4796-92A3-A77236E9B1B9/assets/C822E1790F789BD9C769DB683A3A5561.png" width="174.00" height="203.00" transform="matrix(0.71, 0.00, -0.00, -0.71, 643.0, 516.0)"></image></g></g><text xml:space="preserve" font-family="Helvetica-Light" font-size="71.2" fill="#000000" transform="matrix(1.00, 0.00, -0.00, -1.00, 83.0, 621.0)">H</text><text xml:space="preserve" font-family="Helvetica-Light" font-size="71.2" fill="#000000" transform="matrix(1.00, 0.00, -0.00, -1.00, 134.4, 621.0)">a</text><text xml:space="preserve" font-family="Helvetica-Light" font-size="71.2" fill="#000000" transform="matrix(1.00, 0.00, -0.00, -1.00, 174.0, 621.0)">r</text><text xml:space="preserve" font-family="Helvetica-Light" font-size="71.2" fill="#000000" transform="matrix(1.00, 0.00, -0.00, -1.00, 197.7, 621.0)">v</text><text xml:space="preserve" font-family="Helvetica-Light" font-size="71.2" fill="#000000" transform="matrix(1.00, 0.00, -0.00, -1.00, 233.3, 621.0)">e</text><text xml:space="preserve" font-family="Helvetica-Light" font-size="71.2" fill="#000000" transform="matrix(1.00, 0.00, -0.00, -1.00, 272.9, 621.0)">s</text><text xml:space="preserve" font-family="Helvetica-Light" font-size="71.2" fill="#000000" transform="matrix(1.00, 0.00, -0.00, -1.00, 308.5, 621.0)">t</text><text xml:space="preserve" font-family="Helvetica-Light" font-size="71.2" fill="#000000" transform="matrix(1.00, 0.00, -0.00, -1.00, 328.3, 621.0)"> </text><text xml:space="preserve" font-family="Helvetica-Light" font-size="71.2" fill="#000000" transform="matrix(1.00, 0.00, -0.00, -1.00, 348.1, 621.0)">d</text><text xml:space="preserve" font-family="Helvetica-Light" font-size="71.2" fill="#000000" transform="matrix(1.00, 0.00, -0.00, -1.00, 391.6, 621.0)">i</text><text xml:space="preserve" font-family="Helvetica-Light" font-size="71.2" fill="#000000" transform="matrix(1.00, 0.00, -0.00, -1.00, 407.4, 621.0)">s</text><text xml:space="preserve" font-family="Helvetica-Light" font-size="71.2" fill="#000000" transform="matrix(1.00, 0.00, -0.00, -1.00, 443.0, 621.0)">p</text><text xml:space="preserve" font-family="Helvetica-Light" font-size="71.2" fill="#000000" transform="matrix(1.00, 0.00, -0.00, -1.00, 486.5, 621.0)">l</text><text xml:space="preserve" font-family="Helvetica-Light" font-size="71.2" fill="#000000" transform="matrix(1.00, 0.00, -0.00, -1.00, 502.3, 621.0)">a</text><text xml:space="preserve" font-family="Helvetica-Light" font-size="71.2" fill="#000000" transform="matrix(1.00, 0.00, -0.00, -1.00, 541.9, 621.0)">c</text><text xml:space="preserve" font-family="Helvetica-Light" font-size="71.2" fill="#000000" transform="matrix(1.00, 0.00, -0.00, -1.00, 581.5, 621.0)">e</text><text xml:space="preserve" font-family="Helvetica-Light" font-size="71.2" fill="#000000" transform="matrix(1.00, 0.00, -0.00, -1.00, 621.1, 621.0)">d</text><text xml:space="preserve" font-family="Helvetica-Light" font-size="71.2" fill="#000000" transform="matrix(1.00, 0.00, -0.00, -1.00, 664.6, 621.0)"> </text><text xml:space="preserve" font-family="Helvetica-Light" font-size="71.2" fill="#000000" transform="matrix(1.00, 0.00, -0.00, -1.00, 684.4, 621.0)">b</text><text xml:space="preserve" font-family="Helvetica-Light" font-size="71.2" fill="#000000" transform="matrix(1.00, 0.00, -0.00, -1.00, 727.9, 621.0)">y</text><text xml:space="preserve" font-family="Helvetica-Light" font-size="71.2" fill="#000000" transform="matrix(1.00, 0.00, -0.00, -1.00, 763.5, 621.0)"> </text><text xml:space="preserve" font-family="Helvetica-Light" font-size="71.2" fill="#000000" transform="matrix(1.00, 0.00, -0.00, -1.00, 783.3, 621.0)">P</text><text xml:space="preserve" font-family="Helvetica-Light" font-size="71.2" fill="#000000" transform="matrix(1.00, 0.00, -0.00, -1.00, 821.5, 621.0)">A</text><text xml:space="preserve" font-family="Helvetica-Light" font-size="71.2" fill="#000000" transform="matrix(1.00, 0.00, -0.00, -1.00, 869.0, 621.0)">s</text><text xml:space="preserve" font-family="Helvetica-Light" font-size="71.2" fill="#000000" transform="matrix(1.00, 0.00, -0.00, -1.00, 904.6, 621.0)">?</text><text xml:space="preserve" font-family="Helvetica-Light" font-size="20.0" fill="#000000" transform="matrix(1.00, 0.00, -0.00, -1.00, 842.0, 31.0)">F</text><text xml:space="preserve" font-family="Helvetica-Light" font-size="20.0" fill="#000000" transform="matrix(1.00, 0.00, -0.00, -1.00, 853.1, 31.0)">u</text><text xml:space="preserve" font-family="Helvetica-Light" font-size="20.0" fill="#000000" transform="matrix(1.00, 0.00, -0.00, -1.00, 864.2, 31.0)">l</text><text xml:space="preserve" font-family="Helvetica-Light" font-size="20.0" fill="#000000" transform="matrix(1.00, 0.00, -0.00, -1.00, 868.7, 31.0)">l</text><text xml:space="preserve" font-family="Helvetica-Light" font-size="20.0" fill="#000000" transform="matrix(1.00, 0.00, -0.00, -1.00, 873.1, 31.0)">e</text><text xml:space="preserve" font-family="Helvetica-Light" font-size="20.0" fill="#000000" transform="matrix(1.00, 0.00, -0.00, -1.00, 884.2, 31.0)">r</text><text xml:space="preserve" font-family="Helvetica-Light" font-size="20.0" fill="#000000" transform="matrix(1.00, 0.00, -0.00, -1.00, 890.9, 31.0)"> </text><text xml:space="preserve" font-family="Helvetica-Light" font-size="20.0" fill="#000000" transform="matrix(1.00, 0.00, -0.00, -1.00, 896.5, 31.0)">e</text><text xml:space="preserve" font-family="Helvetica-Light" font-size="20.0" fill="#000000" transform="matrix(1.00, 0.00, -0.00, -1.00, 907.6, 31.0)">t</text><text xml:space="preserve" font-family="Helvetica-Light" font-size="20.0" fill="#000000" transform="matrix(1.00, 0.00, -0.00, -1.00, 913.1, 31.0)"> </text><text xml:space="preserve" font-family="Helvetica-Light" font-size="20.0" fill="#000000" transform="matrix(1.00, 0.00, -0.00, -1.00, 918.7, 31.0)">a</text><text xml:space="preserve" font-family="Helvetica-Light" font-size="20.0" fill="#000000" transform="matrix(1.00, 0.00, -0.00, -1.00, 929.8, 31.0)">l</text><text xml:space="preserve" font-family="Helvetica-Light" font-size="20.0" fill="#000000" transform="matrix(1.00, 0.00, -0.00, -1.00, 934.3, 31.0)">.</text><text xml:space="preserve" font-family="Helvetica-Light" font-size="20.0" fill="#000000" transform="matrix(1.00, 0.00, -0.00, -1.00, 939.8, 31.0)"> </text><text xml:space="preserve" font-family="Helvetica-Light" font-size="20.0" fill="#000000" transform="matrix(1.00, 0.00, -0.00, -1.00, 945.4, 31.0)">(</text><text xml:space="preserve" font-family="Helvetica-Light" font-size="20.0" fill="#000000" transform="matrix(1.00, 0.00, -0.00, -1.00, 952.0, 31.0)">2</text><text xml:space="preserve" font-family="Helvetica-Light" font-size="20.0" fill="#000000" transform="matrix(1.00, 0.00, -0.00, -1.00, 963.2, 31.0)">0</text><text xml:space="preserve" font-family="Helvetica-Light" font-size="20.0" fill="#000000" transform="matrix(1.00, 0.00, -0.00, -1.00, 974.3, 31.0)">1</text><text xml:space="preserve" font-family="Helvetica-Light" font-size="20.0" fill="#000000" transform="matrix(1.00, 0.00, -0.00, -1.00, 985.4, 31.0)">5</text><text xml:space="preserve" font-family="Helvetica-Light" font-size="20.0" fill="#000000" transform="matrix(1.00, 0.00, -0.00, -1.00, 996.5, 31.0)">)</text></g></svg>