<?xml version="1.0" encoding="UTF-8" standalone="no"?><svg xmlns="http://www.w3.org/2000/svg" xmlns:xlink="http://www.w3.org/1999/xlink" clip-rule="evenodd" stroke-miterlimit="4.00" viewBox="0 0 1024 768"><desc>SVG generated by Keynote</desc><defs></defs><g transform="matrix(1.00, 0.00, -0.00, -1.00, 0.0, 768.0)"><path d="M 0.0 768.0 L 1024.0 768.0 L 1024.0 0.0 L 0.0 0.0 Z M 0.0 768.0 " fill="#FEFFFF"></path><path d="M 0.0 0.0 L 747.8 0.0 " fill="none" stroke="#52575F" stroke-width="5.00" transform="matrix(1.00, 0.00, 0.00, -1.00, 138.1, 150.7)"></path><text xml:space="preserve" font-family="Helvetica-Light" font-size="36.0" fill="#52575F" transform="matrix(1.00, 0.00, -0.00, -1.00, 460.0, 101.0)">S</text><text xml:space="preserve" font-family="Helvetica-Light" font-size="36.0" fill="#52575F" transform="matrix(1.00, 0.00, -0.00, -1.00, 482.0, 101.0)">p</text><text xml:space="preserve" font-family="Helvetica-Light" font-size="36.0" fill="#52575F" transform="matrix(1.00, 0.00, -0.00, -1.00, 504.0, 101.0)">a</text><text xml:space="preserve" font-family="Helvetica-Light" font-size="36.0" fill="#52575F" transform="matrix(1.00, 0.00, -0.00, -1.00, 524.0, 101.0)">c</text><text xml:space="preserve" font-family="Helvetica-Light" font-size="36.0" fill="#52575F" transform="matrix(1.00, 0.00, -0.00, -1.00, 544.0, 101.0)">e</text><path d="M 180.9 204.3 L 421.5 204.3 L 421.5 162.9 L 180.9 162.9 Z M 180.9 204.3 " fill="#258BD1"></path><g><clipPath id="clip-802"><path d="M 251.0 578.0 L 351.0 578.0 L 351.0 423.0 L 251.0 423.0 Z M 251.4 578.1 "></path></clipPath><g clip-path="url(#clip-802)"><image xlink:href="C822E1790F789BD9C769DB683A3A5561.png" width="174.00" height="203.00" transform="matrix(1.00, 0.00, -0.00, -1.00, 214.0, 578.0)"></image></g></g><g><clipPath id="clip-803"><path d="M 227.0 373.0 L 375.0 373.0 L 375.0 273.0 L 227.0 273.0 Z M 227.2 372.7 "></path></clipPath><g clip-path="url(#clip-803)"><g><clipPath id="clip-804"><path d="M 227.2 272.7 L 375.3 272.7 L 375.3 372.7 L 227.2 372.7 Z M 227.2 272.7 "></path></clipPath><g clip-path="url(#clip-804)"><image xlink:href="4BCA957DFB5FA1BDB55531B0C8C0A389.png" width="176.00" height="206.00" transform="matrix(1.00, 0.00, -0.00, -1.00, 213.0, 411.0)"></image></g></g></g></g><g><clipPath id="clip-805"><path d="M 318.1 306.3 L 359.9 306.3 L 359.9 348.1 L 318.1 348.1 Z M 318.1 306.3 "></path></clipPath><g clip-path="url(#clip-805)"><path d="M 353.1 341.2 C 360.8 333.5 360.8 320.9 353.1 313.1 C 345.3 305.3 332.7 305.3 324.9 313.1 C 317.2 320.9 317.2 333.5 324.9 341.2 C 332.7 349.0 345.3 349.0 353.1 341.2 Z M 353.1 341.2 " fill="#000000"></path></g></g><g><clipPath id="clip-806"><path d="M 338.2 325.0 L 348.1 325.0 L 348.1 334.5 L 338.2 334.5 Z M 338.2 325.0 "></path></clipPath><g clip-path="url(#clip-806)"><path d="M 345.9 332.4 C 347.4 331.0 347.4 328.6 345.9 327.1 C 344.4 325.6 341.9 325.6 340.3 327.1 C 338.8 328.6 338.8 331.0 340.3 332.4 C 341.9 333.9 344.4 333.9 345.9 332.4 Z M 345.9 332.4 " fill="#FEFFFE"></path></g></g><text xml:space="preserve" font-family="Helvetica-Light" font-size="72.8" fill="#000000" transform="matrix(1.00, 0.00, -0.00, -1.00, 84.0, 621.0)">R</text><text xml:space="preserve" font-family="Helvetica-Light" font-size="72.8" fill="#000000" transform="matrix(1.00, 0.00, -0.00, -1.00, 132.6, 621.0)">a</text><text xml:space="preserve" font-family="Helvetica-Light" font-size="72.8" fill="#000000" transform="matrix(1.00, 0.00, -0.00, -1.00, 173.0, 621.0)">n</text><text xml:space="preserve" font-family="Helvetica-Light" font-size="72.8" fill="#000000" transform="matrix(1.00, 0.00, -0.00, -1.00, 213.5, 621.0)">g</text><text xml:space="preserve" font-family="Helvetica-Light" font-size="72.8" fill="#000000" transform="matrix(1.00, 0.00, -0.00, -1.00, 258.0, 621.0)">e</text><text xml:space="preserve" font-family="Helvetica-Light" font-size="72.8" fill="#000000" transform="matrix(1.00, 0.00, -0.00, -1.00, 298.5, 621.0)"> </text><text xml:space="preserve" font-family="Helvetica-Light" font-size="72.8" fill="#000000" transform="matrix(1.00, 0.00, -0.00, -1.00, 318.7, 621.0)">s</text><text xml:space="preserve" font-family="Helvetica-Light" font-size="72.8" fill="#000000" transform="matrix(1.00, 0.00, -0.00, -1.00, 355.1, 621.0)">h</text><text xml:space="preserve" font-family="Helvetica-Light" font-size="72.8" fill="#000000" transform="matrix(1.00, 0.00, -0.00, -1.00, 395.6, 621.0)">i</text><text xml:space="preserve" font-family="Helvetica-Light" font-size="72.8" fill="#000000" transform="matrix(1.00, 0.00, -0.00, -1.00, 411.7, 621.0)">f</text><text xml:space="preserve" font-family="Helvetica-Light" font-size="72.8" fill="#000000" transform="matrix(1.00, 0.00, -0.00, -1.00, 432.0, 621.0)">t</text><text xml:space="preserve" font-family="Helvetica-Light" font-size="72.8" fill="#000000" transform="matrix(1.00, 0.00, -0.00, -1.00, 452.2, 621.0)">s</text><text xml:space="preserve" font-family="Helvetica-Light" font-size="72.8" fill="#000000" transform="matrix(1.00, 0.00, -0.00, -1.00, 488.6, 621.0)"> </text><text xml:space="preserve" font-family="Helvetica-Light" font-size="72.8" fill="#000000" transform="matrix(1.00, 0.00, -0.00, -1.00, 508.9, 621.0)">+</text><text xml:space="preserve" font-family="Helvetica-Light" font-size="72.8" fill="#000000" transform="matrix(1.00, 0.00, -0.00, -1.00, 556.9, 621.0)"> </text><text xml:space="preserve" font-family="Helvetica-Light" font-size="72.8" fill="#000000" transform="matrix(1.00, 0.00, -0.00, -1.00, 577.1, 621.0)">h</text><text xml:space="preserve" font-family="Helvetica-Light" font-size="72.8" fill="#000000" transform="matrix(1.00, 0.00, -0.00, -1.00, 617.6, 621.0)">a</text><text xml:space="preserve" font-family="Helvetica-Light" font-size="72.8" fill="#000000" transform="matrix(1.00, 0.00, -0.00, -1.00, 658.1, 621.0)">r</text><text xml:space="preserve" font-family="Helvetica-Light" font-size="72.8" fill="#000000" transform="matrix(1.00, 0.00, -0.00, -1.00, 682.3, 621.0)">v</text><text xml:space="preserve" font-family="Helvetica-Light" font-size="72.8" fill="#000000" transform="matrix(1.00, 0.00, -0.00, -1.00, 718.7, 621.0)">e</text><text xml:space="preserve" font-family="Helvetica-Light" font-size="72.8" fill="#000000" transform="matrix(1.00, 0.00, -0.00, -1.00, 759.2, 621.0)">s</text><text xml:space="preserve" font-family="Helvetica-Light" font-size="72.8" fill="#000000" transform="matrix(1.00, 0.00, -0.00, -1.00, 795.6, 621.0)">t</text><text xml:space="preserve" font-family="Helvetica-Light" font-size="72.8" fill="#000000" transform="matrix(1.00, 0.00, -0.00, -1.00, 815.9, 621.0)"> </text><text xml:space="preserve" font-family="Helvetica-Light" font-size="72.8" fill="#000000" transform="matrix(1.00, 0.00, -0.00, -1.00, 836.1, 621.0)">=</text><text xml:space="preserve" font-family="Helvetica-Light" font-size="72.8" fill="#000000" transform="matrix(1.00, 0.00, -0.00, -1.00, 884.1, 621.0)"> </text><text xml:space="preserve" font-family="Helvetica-Light" font-size="72.8" fill="#000000" transform="matrix(1.00, 0.00, -0.00, -1.00, 904.4, 621.0)">?</text><text xml:space="preserve" font-family="Helvetica-Light" font-size="20.0" fill="#000000" transform="matrix(1.00, 0.00, -0.00, -1.00, 842.0, 31.0)">F</text><text xml:space="preserve" font-family="Helvetica-Light" font-size="20.0" fill="#000000" transform="matrix(1.00, 0.00, -0.00, -1.00, 853.1, 31.0)">u</text><text xml:space="preserve" font-family="Helvetica-Light" font-size="20.0" fill="#000000" transform="matrix(1.00, 0.00, -0.00, -1.00, 864.2, 31.0)">l</text><text xml:space="preserve" font-family="Helvetica-Light" font-size="20.0" fill="#000000" transform="matrix(1.00, 0.00, -0.00, -1.00, 868.7, 31.0)">l</text><text xml:space="preserve" font-family="Helvetica-Light" font-size="20.0" fill="#000000" transform="matrix(1.00, 0.00, -0.00, -1.00, 873.1, 31.0)">e</text><text xml:space="preserve" font-family="Helvetica-Light" font-size="20.0" fill="#000000" transform="matrix(1.00, 0.00, -0.00, -1.00, 884.2, 31.0)">r</text><text xml:space="preserve" font-family="Helvetica-Light" font-size="20.0" fill="#000000" transform="matrix(1.00, 0.00, -0.00, -1.00, 890.9, 31.0)"> </text><text xml:space="preserve" font-family="Helvetica-Light" font-size="20.0" fill="#000000" transform="matrix(1.00, 0.00, -0.00, -1.00, 896.5, 31.0)">e</text><text xml:space="preserve" font-family="Helvetica-Light" font-size="20.0" fill="#000000" transform="matrix(1.00, 0.00, -0.00, -1.00, 907.6, 31.0)">t</text><text xml:space="preserve" font-family="Helvetica-Light" font-size="20.0" fill="#000000" transform="matrix(1.00, 0.00, -0.00, -1.00, 913.1, 31.0)"> </text><text xml:space="preserve" font-family="Helvetica-Light" font-size="20.0" fill="#000000" transform="matrix(1.00, 0.00, -0.00, -1.00, 918.7, 31.0)">a</text><text xml:space="preserve" font-family="Helvetica-Light" font-size="20.0" fill="#000000" transform="matrix(1.00, 0.00, -0.00, -1.00, 929.8, 31.0)">l</text><text xml:space="preserve" font-family="Helvetica-Light" font-size="20.0" fill="#000000" transform="matrix(1.00, 0.00, -0.00, -1.00, 934.3, 31.0)">.</text><text xml:space="preserve" font-family="Helvetica-Light" font-size="20.0" fill="#000000" transform="matrix(1.00, 0.00, -0.00, -1.00, 939.8, 31.0)"> </text><text xml:space="preserve" font-family="Helvetica-Light" font-size="20.0" fill="#000000" transform="matrix(1.00, 0.00, -0.00, -1.00, 945.4, 31.0)">(</text><text xml:space="preserve" font-family="Helvetica-Light" font-size="20.0" fill="#000000" transform="matrix(1.00, 0.00, -0.00, -1.00, 952.0, 31.0)">2</text><text xml:space="preserve" font-family="Helvetica-Light" font-size="20.0" fill="#000000" transform="matrix(1.00, 0.00, -0.00, -1.00, 963.2, 31.0)">0</text><text xml:space="preserve" font-family="Helvetica-Light" font-size="20.0" fill="#000000" transform="matrix(1.00, 0.00, -0.00, -1.00, 974.3, 31.0)">1</text><text xml:space="preserve" font-family="Helvetica-Light" font-size="20.0" fill="#000000" transform="matrix(1.00, 0.00, -0.00, -1.00, 985.4, 31.0)">5</text><text xml:space="preserve" font-family="Helvetica-Light" font-size="20.0" fill="#000000" transform="matrix(1.00, 0.00, -0.00, -1.00, 996.5, 31.0)">)</text></g></svg>