<?xml version="1.0" encoding="UTF-8" standalone="no"?><svg xmlns="http://www.w3.org/2000/svg" xmlns:xlink="http://www.w3.org/1999/xlink" clip-rule="evenodd" stroke-miterlimit="4.00" viewBox="0 0 1024 768"><desc>SVG generated by Keynote</desc><defs></defs><g transform="matrix(1.00, 0.00, -0.00, -1.00, 0.0, 768.0)"><path d="M 0.0 768.0 L 1024.0 768.0 L 1024.0 0.0 L 0.0 0.0 Z M 0.0 768.0 " fill="#FEFFFF"></path><g><clipPath id="clip-1041"><path d="M 77.0 475.0 L 572.0 475.0 L 572.0 131.0 L 77.0 131.0 Z M 76.9 474.6 "></path></clipPath><g clip-path="url(#clip-1041)"><g><clipPath id="clip-1042"><path d="M 76.9 131.0 L 572.0 131.0 L 572.0 474.6 L 76.9 474.6 Z M 76.9 131.0 "></path></clipPath><g clip-path="url(#clip-1042)"><path d="M 55.0 475.0 L 572.0 475.0 L 572.0 131.0 L 55.0 131.0 Z M 55.0 475.0 " fill="#FEFFFF" fill-opacity="0.00"></path></g></g></g></g><g><clipPath id="clip-1043"><path d="M 77.0 475.0 L 572.0 475.0 L 572.0 131.0 L 77.0 131.0 Z M 76.9 474.6 "></path></clipPath><g clip-path="url(#clip-1043)"><g><clipPath id="clip-1044"><path d="M 56.2 475.0 L 572.0 475.0 L 572.0 131.0 L 56.2 131.0 Z M 56.2 475.0 "></path></clipPath><g clip-path="url(#clip-1044)"><g><clipPath id="clip-1045"><path d="M 76.9 131.0 L 572.0 131.0 L 572.0 474.6 L 76.9 474.6 Z M 76.9 131.0 "></path></clipPath><g clip-path="url(#clip-1045)"><text xml:space="preserve" font-family="Cambria" font-size="50.0" fill="#000000" transform="matrix(0.66, 0.00, -0.00, -0.66, -10.8, -1365.9)">!</text></g></g></g></g></g></g><g><clipPath id="clip-1046"><path d="M 77.0 475.0 L 572.0 475.0 L 572.0 131.0 L 77.0 131.0 Z M 76.9 474.6 "></path></clipPath><g clip-path="url(#clip-1046)"><g><clipPath id="clip-1047"><path d="M 56.2 475.0 L 572.0 475.0 L 572.0 131.0 L 56.2 131.0 Z M 56.2 475.0 "></path></clipPath><g clip-path="url(#clip-1047)"><g><clipPath id="clip-1048"><path d="M 0.0 0.0 L 0.0 0.0 L 0.0 0.0 L 0.0 0.0 Z M 0.0 0.0 "></path></clipPath><g clip-path="url(#clip-1048)"><text xml:space="preserve" font-family="Cambria" font-size="50.0" fill="#000000" transform="matrix(0.66, 0.00, -0.00, -0.66, 1248.2, -1366.6)">3</text><text xml:space="preserve" font-family="Cambria" font-size="50.0" fill="#000000" transform="matrix(0.66, 0.00, -0.00, -0.66, 1266.6, -1366.6)">2</text><text xml:space="preserve" font-family="Cambria" font-size="50.0" fill="#000000" transform="matrix(0.66, 0.00, -0.00, -0.66, 1285.0, -1366.6)">!</text></g></g></g></g></g></g><g><clipPath id="clip-1049"><path d="M 77.0 475.0 L 572.0 475.0 L 572.0 131.0 L 77.0 131.0 Z M 76.9 474.6 "></path></clipPath><g clip-path="url(#clip-1049)"><g><clipPath id="clip-1050"><path d="M 56.2 475.0 L 572.0 475.0 L 572.0 131.0 L 56.2 131.0 Z M 56.2 475.0 "></path></clipPath><g clip-path="url(#clip-1050)"><g><clipPath id="clip-1051"><path d="M 76.9 131.0 L 572.0 131.0 L 572.0 474.6 L 76.9 474.6 Z M 76.9 131.0 "></path></clipPath><g clip-path="url(#clip-1051)"><text xml:space="preserve" font-family="TimesNewRomanPSMT" font-size="50.0" fill="#000000" transform="matrix(0.66, 0.00, -0.00, -0.66, 1284.8, -776.0)"> </text><text xml:space="preserve" font-family="Cambria" font-size="50.0" fill="#000000" transform="matrix(0.66, 0.00, -0.00, -0.66, -115.8, -776.0)">6</text><text xml:space="preserve" font-family="Cambria" font-size="50.0" fill="#000000" transform="matrix(0.66, 0.00, -0.00, -0.66, -97.2, -776.0)">5</text><text xml:space="preserve" font-family="Cambria" font-size="50.0" fill="#000000" transform="matrix(0.66, 0.00, -0.00, -0.66, -78.6, -776.0)">3</text><text xml:space="preserve" font-family="Cambria" font-size="50.0" fill="#000000" transform="matrix(0.66, 0.00, -0.00, -0.66, -60.6, -776.0)">!</text><text xml:space="preserve" font-family="TimesNewRomanPSMT" font-size="50.0" fill="#000000" transform="matrix(0.66, 0.00, -0.00, -0.66, -10.8, -872.3)">F</text><text xml:space="preserve" font-family="TimesNewRomanPSMT" font-size="50.0" fill="#000000" transform="matrix(0.66, 0.00, -0.00, -0.66, 7.7, -872.3)">i</text><text xml:space="preserve" font-family="TimesNewRomanPSMT" font-size="50.0" fill="#000000" transform="matrix(0.66, 0.00, -0.00, -0.66, 16.9, -872.3)">g</text><text xml:space="preserve" font-family="TimesNewRomanPSMT" font-size="50.0" fill="#000000" transform="matrix(0.66, 0.00, -0.00, -0.66, 33.5, -872.3)">u</text><text xml:space="preserve" font-family="TimesNewRomanPSMT" font-size="50.0" fill="#000000" transform="matrix(0.66, 0.00, -0.00, -0.66, 50.1, -872.3)">r</text><text xml:space="preserve" font-family="TimesNewRomanPSMT" font-size="50.0" fill="#000000" transform="matrix(0.66, 0.00, -0.00, -0.66, 61.2, -872.3)">e</text><text xml:space="preserve" font-family="TimesNewRomanPSMT" font-size="50.0" fill="#000000" transform="matrix(0.66, 0.00, -0.00, -0.66, 75.9, -872.3)"> </text><text xml:space="preserve" font-family="TimesNewRomanPSMT" font-size="50.0" fill="#000000" transform="matrix(0.66, 0.00, -0.00, -0.66, 84.2, -872.3)">3</text><text xml:space="preserve" font-family="TimesNewRomanPSMT" font-size="50.0" fill="#000000" transform="matrix(0.66, 0.00, -0.00, -0.66, 100.9, -872.3)"> </text><text xml:space="preserve" font-family="Cambria" font-size="50.0" fill="#000000" transform="matrix(0.66, 0.00, -0.00, -0.66, -115.8, -872.3)">6</text><text xml:space="preserve" font-family="Cambria" font-size="50.0" fill="#000000" transform="matrix(0.66, 0.00, -0.00, -0.66, -97.2, -872.3)">5</text><text xml:space="preserve" font-family="Cambria" font-size="50.0" fill="#000000" transform="matrix(0.66, 0.00, -0.00, -0.66, -78.6, -872.3)">4</text><text xml:space="preserve" font-family="Cambria" font-size="50.0" fill="#000000" transform="matrix(0.66, 0.00, -0.00, -0.66, -60.6, -872.3)">!</text></g></g></g></g></g></g><g><clipPath id="clip-1052"><path d="M 77.0 475.0 L 572.0 475.0 L 572.0 131.0 L 77.0 131.0 Z M 76.9 474.6 "></path></clipPath><g clip-path="url(#clip-1052)"><g><clipPath id="clip-1053"><path d="M 56.2 475.0 L 572.0 475.0 L 572.0 131.0 L 56.2 131.0 Z M 56.2 475.0 "></path></clipPath><g clip-path="url(#clip-1053)"><g><clipPath id="clip-1054"><path d="M -10.8 519.4 L 1284.8 519.4 L 1284.8 -776.0 L -10.8 -776.0 Z M -10.8 519.4 "></path></clipPath><g clip-path="url(#clip-1054)"><g><clipPath id="clip-1055"><path d="M 76.9 131.0 L 572.0 131.0 L 572.0 474.6 L 76.9 474.6 Z M 76.9 131.0 "></path></clipPath><g clip-path="url(#clip-1055)"><image xlink:href="../../C424D849-8908-4A5C-81B2-DF74E22B34CE/assets/2F85893813181C7C7A844D177F9D71C2.png" width="2400.00" height="2400.00" transform="matrix(0.54, 0.00, -0.00, -0.54, -10.8, 519.4)"></image></g></g></g></g></g></g></g></g><g><clipPath id="clip-1056"><path d="M 558.0 465.0 L 949.0 465.0 L 949.0 189.0 L 558.0 189.0 Z M 557.8 465.4 "></path></clipPath><g clip-path="url(#clip-1056)"><g><clipPath id="clip-1057"><path d="M 555.3 186.5 L 951.2 186.5 L 951.2 467.9 L 555.3 467.9 Z M 555.3 186.5 "></path></clipPath><g clip-path="url(#clip-1057)"><text xml:space="preserve" font-family="Cambria" font-size="50.0" fill="#000000" transform="matrix(0.68, 0.00, -0.00, -0.68, 371.0, -987.2)">!</text></g></g></g></g><g><clipPath id="clip-1058"><path d="M 558.0 465.0 L 949.0 465.0 L 949.0 189.0 L 558.0 189.0 Z M 557.8 465.4 "></path></clipPath><g clip-path="url(#clip-1058)"><g><clipPath id="clip-1059"><path d="M 0.0 0.0 L 0.0 0.0 L 0.0 0.0 L 0.0 0.0 Z M 0.0 0.0 "></path></clipPath><g clip-path="url(#clip-1059)"><text xml:space="preserve" font-family="Cambria" font-size="50.0" fill="#000000" transform="matrix(0.68, 0.00, -0.00, -0.68, 1663.1, -987.8)">3</text><text xml:space="preserve" font-family="Cambria" font-size="50.0" fill="#000000" transform="matrix(0.68, 0.00, -0.00, -0.68, 1682.0, -987.8)">2</text><text xml:space="preserve" font-family="Cambria" font-size="50.0" fill="#000000" transform="matrix(0.68, 0.00, -0.00, -0.68, 1700.9, -987.8)">!</text></g></g></g></g><g><clipPath id="clip-1060"><path d="M 558.0 465.0 L 949.0 465.0 L 949.0 189.0 L 558.0 189.0 Z M 557.8 465.4 "></path></clipPath><g clip-path="url(#clip-1060)"><g><clipPath id="clip-1061"><path d="M 555.3 186.5 L 951.2 186.5 L 951.2 467.9 L 555.3 467.9 Z M 555.3 186.5 "></path></clipPath><g clip-path="url(#clip-1061)"><text xml:space="preserve" font-family="TimesNewRomanPSMT" font-size="50.0" fill="#000000" transform="matrix(0.68, 0.00, -0.00, -0.68, 1700.6, -382.1)"> </text><text xml:space="preserve" font-family="Cambria" font-size="50.0" fill="#000000" transform="matrix(0.68, 0.00, -0.00, -0.68, 263.3, -382.1)">6</text><text xml:space="preserve" font-family="Cambria" font-size="50.0" fill="#000000" transform="matrix(0.68, 0.00, -0.00, -0.68, 282.4, -382.1)">5</text><text xml:space="preserve" font-family="Cambria" font-size="50.0" fill="#000000" transform="matrix(0.68, 0.00, -0.00, -0.68, 301.5, -382.1)">3</text><text xml:space="preserve" font-family="Cambria" font-size="50.0" fill="#000000" transform="matrix(0.68, 0.00, -0.00, -0.68, 319.9, -382.1)">!</text><text xml:space="preserve" font-family="TimesNewRomanPSMT" font-size="50.0" fill="#000000" transform="matrix(0.68, 0.00, -0.00, -0.68, 371.0, -480.9)">F</text><text xml:space="preserve" font-family="TimesNewRomanPSMT" font-size="50.0" fill="#000000" transform="matrix(0.68, 0.00, -0.00, -0.68, 390.0, -480.9)">i</text><text xml:space="preserve" font-family="TimesNewRomanPSMT" font-size="50.0" fill="#000000" transform="matrix(0.68, 0.00, -0.00, -0.68, 399.5, -480.9)">g</text><text xml:space="preserve" font-family="TimesNewRomanPSMT" font-size="50.0" fill="#000000" transform="matrix(0.68, 0.00, -0.00, -0.68, 416.5, -480.9)">u</text><text xml:space="preserve" font-family="TimesNewRomanPSMT" font-size="50.0" fill="#000000" transform="matrix(0.68, 0.00, -0.00, -0.68, 433.6, -480.9)">r</text><text xml:space="preserve" font-family="TimesNewRomanPSMT" font-size="50.0" fill="#000000" transform="matrix(0.68, 0.00, -0.00, -0.68, 444.9, -480.9)">e</text><text xml:space="preserve" font-family="TimesNewRomanPSMT" font-size="50.0" fill="#000000" transform="matrix(0.68, 0.00, -0.00, -0.68, 460.0, -480.9)"> </text><text xml:space="preserve" font-family="TimesNewRomanPSMT" font-size="50.0" fill="#000000" transform="matrix(0.68, 0.00, -0.00, -0.68, 468.6, -480.9)">3</text><text xml:space="preserve" font-family="TimesNewRomanPSMT" font-size="50.0" fill="#000000" transform="matrix(0.68, 0.00, -0.00, -0.68, 485.6, -480.9)"> </text><text xml:space="preserve" font-family="Cambria" font-size="50.0" fill="#000000" transform="matrix(0.68, 0.00, -0.00, -0.68, 263.3, -480.9)">6</text><text xml:space="preserve" font-family="Cambria" font-size="50.0" fill="#000000" transform="matrix(0.68, 0.00, -0.00, -0.68, 282.4, -480.9)">5</text><text xml:space="preserve" font-family="Cambria" font-size="50.0" fill="#000000" transform="matrix(0.68, 0.00, -0.00, -0.68, 301.5, -480.9)">4</text><text xml:space="preserve" font-family="Cambria" font-size="50.0" fill="#000000" transform="matrix(0.68, 0.00, -0.00, -0.68, 319.9, -480.9)">!</text></g></g></g></g><g><clipPath id="clip-1062"><path d="M 558.0 465.0 L 949.0 465.0 L 949.0 189.0 L 558.0 189.0 Z M 557.8 465.4 "></path></clipPath><g clip-path="url(#clip-1062)"><g><clipPath id="clip-1063"><path d="M 371.0 946.7 L 1700.6 946.7 L 1700.6 -382.1 L 371.0 -382.1 Z M 371.0 946.7 "></path></clipPath><g clip-path="url(#clip-1063)"><g><clipPath id="clip-1064"><path d="M 555.3 186.5 L 951.2 186.5 L 951.2 467.9 L 555.3 467.9 Z M 555.3 186.5 "></path></clipPath><g clip-path="url(#clip-1064)"><image xlink:href="../../C424D849-8908-4A5C-81B2-DF74E22B34CE/assets/2F85893813181C7C7A844D177F9D71C2.png" width="2400.00" height="2400.00" transform="matrix(0.55, 0.00, -0.00, -0.55, 371.0, 946.7)"></image></g></g></g></g></g></g><g><clipPath id="clip-1065"><path d="M 555.3 186.5 L 951.2 186.5 L 951.2 467.9 L 555.3 467.9 Z M 555.3 186.5 "></path></clipPath><g clip-path="url(#clip-1065)"><path d="M 0.0 0.0 L 0.0 276.4 L 390.9 276.4 L 390.9 0.0 L 0.0 0.0 Z M 0.0 0.0 " fill="none" stroke="#FEFFFE" stroke-width="5.00" transform="matrix(1.00, 0.00, 0.00, -1.00, 557.8, 465.4)"></path></g></g><g><clipPath id="clip-1066"><path d="M 612.0 181.0 L 951.0 181.0 L 951.0 139.0 L 612.0 139.0 Z M 612.0 180.8 "></path></clipPath><g clip-path="url(#clip-1066)"><g><clipPath id="clip-1067"><path d="M 609.5 136.2 L 953.3 136.2 L 953.3 183.3 L 609.5 183.3 Z M 609.5 136.2 "></path></clipPath><g clip-path="url(#clip-1067)"><text xml:space="preserve" font-family="Cambria" font-size="50.0" fill="#000000" transform="matrix(0.67, 0.00, -0.00, -0.67, 371.1, -956.9)">!</text></g></g></g></g><g><clipPath id="clip-1068"><path d="M 612.0 181.0 L 951.0 181.0 L 951.0 139.0 L 612.0 139.0 Z M 612.0 180.8 "></path></clipPath><g clip-path="url(#clip-1068)"><g><clipPath id="clip-1069"><path d="M 0.0 0.0 L 0.0 0.0 L 0.0 0.0 L 0.0 0.0 Z M 0.0 0.0 "></path></clipPath><g clip-path="url(#clip-1069)"><text xml:space="preserve" font-family="Cambria" font-size="50.0" fill="#000000" transform="matrix(0.67, 0.00, -0.00, -0.67, 1632.9, -957.6)">3</text><text xml:space="preserve" font-family="Cambria" font-size="50.0" fill="#000000" transform="matrix(0.67, 0.00, -0.00, -0.67, 1651.3, -957.6)">2</text><text xml:space="preserve" font-family="Cambria" font-size="50.0" fill="#000000" transform="matrix(0.67, 0.00, -0.00, -0.67, 1669.7, -957.6)">!</text></g></g></g></g><g><clipPath id="clip-1070"><path d="M 612.0 181.0 L 951.0 181.0 L 951.0 139.0 L 612.0 139.0 Z M 612.0 180.8 "></path></clipPath><g clip-path="url(#clip-1070)"><g><clipPath id="clip-1071"><path d="M 609.5 136.2 L 953.3 136.2 L 953.3 183.3 L 609.5 183.3 Z M 609.5 136.2 "></path></clipPath><g clip-path="url(#clip-1071)"><text xml:space="preserve" font-family="TimesNewRomanPSMT" font-size="50.0" fill="#000000" transform="matrix(0.67, 0.00, -0.00, -0.67, 1669.5, -365.5)"> </text><text xml:space="preserve" font-family="Cambria" font-size="50.0" fill="#000000" transform="matrix(0.67, 0.00, -0.00, -0.67, 265.8, -365.5)">6</text><text xml:space="preserve" font-family="Cambria" font-size="50.0" fill="#000000" transform="matrix(0.67, 0.00, -0.00, -0.67, 284.5, -365.5)">5</text><text xml:space="preserve" font-family="Cambria" font-size="50.0" fill="#000000" transform="matrix(0.67, 0.00, -0.00, -0.67, 303.1, -365.5)">3</text><text xml:space="preserve" font-family="Cambria" font-size="50.0" fill="#000000" transform="matrix(0.67, 0.00, -0.00, -0.67, 321.1, -365.5)">!</text><text xml:space="preserve" font-family="TimesNewRomanPSMT" font-size="50.0" fill="#000000" transform="matrix(0.67, 0.00, -0.00, -0.67, 371.1, -462.1)">F</text><text xml:space="preserve" font-family="TimesNewRomanPSMT" font-size="50.0" fill="#000000" transform="matrix(0.67, 0.00, -0.00, -0.67, 389.6, -462.1)">i</text><text xml:space="preserve" font-family="TimesNewRomanPSMT" font-size="50.0" fill="#000000" transform="matrix(0.67, 0.00, -0.00, -0.67, 398.8, -462.1)">g</text><text xml:space="preserve" font-family="TimesNewRomanPSMT" font-size="50.0" fill="#000000" transform="matrix(0.67, 0.00, -0.00, -0.67, 415.5, -462.1)">u</text><text xml:space="preserve" font-family="TimesNewRomanPSMT" font-size="50.0" fill="#000000" transform="matrix(0.67, 0.00, -0.00, -0.67, 432.1, -462.1)">r</text><text xml:space="preserve" font-family="TimesNewRomanPSMT" font-size="50.0" fill="#000000" transform="matrix(0.67, 0.00, -0.00, -0.67, 443.2, -462.1)">e</text><text xml:space="preserve" font-family="TimesNewRomanPSMT" font-size="50.0" fill="#000000" transform="matrix(0.67, 0.00, -0.00, -0.67, 458.0, -462.1)"> </text><text xml:space="preserve" font-family="TimesNewRomanPSMT" font-size="50.0" fill="#000000" transform="matrix(0.67, 0.00, -0.00, -0.67, 466.3, -462.1)">3</text><text xml:space="preserve" font-family="TimesNewRomanPSMT" font-size="50.0" fill="#000000" transform="matrix(0.67, 0.00, -0.00, -0.67, 482.9, -462.1)"> </text><text xml:space="preserve" font-family="Cambria" font-size="50.0" fill="#000000" transform="matrix(0.67, 0.00, -0.00, -0.67, 265.8, -462.1)">6</text><text xml:space="preserve" font-family="Cambria" font-size="50.0" fill="#000000" transform="matrix(0.67, 0.00, -0.00, -0.67, 284.5, -462.1)">5</text><text xml:space="preserve" font-family="Cambria" font-size="50.0" fill="#000000" transform="matrix(0.67, 0.00, -0.00, -0.67, 303.1, -462.1)">4</text><text xml:space="preserve" font-family="Cambria" font-size="50.0" fill="#000000" transform="matrix(0.67, 0.00, -0.00, -0.67, 321.1, -462.1)">!</text></g></g></g></g><g><clipPath id="clip-1072"><path d="M 612.0 181.0 L 951.0 181.0 L 951.0 139.0 L 612.0 139.0 Z M 612.0 180.8 "></path></clipPath><g clip-path="url(#clip-1072)"><g><clipPath id="clip-1073"><path d="M 371.1 933.2 L 1669.5 933.2 L 1669.5 -365.5 L 371.1 -365.5 Z M 371.1 933.2 "></path></clipPath><g clip-path="url(#clip-1073)"><g><clipPath id="clip-1074"><path d="M 609.5 136.2 L 953.3 136.2 L 953.3 183.3 L 609.5 183.3 Z M 609.5 136.2 "></path></clipPath><g clip-path="url(#clip-1074)"><image xlink:href="../../C424D849-8908-4A5C-81B2-DF74E22B34CE/assets/2F85893813181C7C7A844D177F9D71C2.png" width="2400.00" height="2400.00" transform="matrix(0.54, 0.00, -0.00, -0.54, 371.1, 933.2)"></image></g></g></g></g></g></g><g><clipPath id="clip-1075"><path d="M 609.5 136.2 L 953.3 136.2 L 953.3 183.3 L 609.5 183.3 Z M 609.5 136.2 "></path></clipPath><g clip-path="url(#clip-1075)"><path d="M 0.0 0.0 L 0.0 42.1 L 338.8 42.1 L 338.8 0.0 L 0.0 0.0 Z M 0.0 0.0 " fill="none" stroke="#FEFFFE" stroke-width="5.00" transform="matrix(1.00, 0.00, 0.00, -1.00, 612.0, 180.8)"></path></g></g><text xml:space="preserve" font-family="Helvetica-Light" font-size="36.0" fill="#000000" transform="matrix(1.00, 0.00, -0.00, -1.00, 591.0, 506.0)">W</text><text xml:space="preserve" font-family="Helvetica-Light" font-size="36.0" fill="#000000" transform="matrix(1.00, 0.00, -0.00, -1.00, 623.0, 506.0)">i</text><text xml:space="preserve" font-family="Helvetica-Light" font-size="36.0" fill="#000000" transform="matrix(1.00, 0.00, -0.00, -1.00, 631.0, 506.0)">t</text><text xml:space="preserve" font-family="Helvetica-Light" font-size="36.0" fill="#000000" transform="matrix(1.00, 0.00, -0.00, -1.00, 641.0, 506.0)">h</text><text xml:space="preserve" font-family="Helvetica-Light" font-size="36.0" fill="#000000" transform="matrix(1.00, 0.00, -0.00, -1.00, 661.0, 506.0)"> </text><text xml:space="preserve" font-family="Helvetica-Light" font-size="36.0" fill="#000000" transform="matrix(1.00, 0.00, -0.00, -1.00, 671.0, 506.0)">p</text><text xml:space="preserve" font-family="Helvetica-Light" font-size="36.0" fill="#000000" transform="matrix(1.00, 0.00, -0.00, -1.00, 693.0, 506.0)">r</text><text xml:space="preserve" font-family="Helvetica-Light" font-size="36.0" fill="#000000" transform="matrix(1.00, 0.00, -0.00, -1.00, 704.4, 506.0)">o</text><text xml:space="preserve" font-family="Helvetica-Light" font-size="36.0" fill="#000000" transform="matrix(1.00, 0.00, -0.00, -1.00, 724.4, 506.0)">t</text><text xml:space="preserve" font-family="Helvetica-Light" font-size="36.0" fill="#000000" transform="matrix(1.00, 0.00, -0.00, -1.00, 734.4, 506.0)">e</text><text xml:space="preserve" font-family="Helvetica-Light" font-size="36.0" fill="#000000" transform="matrix(1.00, 0.00, -0.00, -1.00, 754.4, 506.0)">c</text><text xml:space="preserve" font-family="Helvetica-Light" font-size="36.0" fill="#000000" transform="matrix(1.00, 0.00, -0.00, -1.00, 774.4, 506.0)">t</text><text xml:space="preserve" font-family="Helvetica-Light" font-size="36.0" fill="#000000" transform="matrix(1.00, 0.00, -0.00, -1.00, 784.4, 506.0)">e</text><text xml:space="preserve" font-family="Helvetica-Light" font-size="36.0" fill="#000000" transform="matrix(1.00, 0.00, -0.00, -1.00, 804.4, 506.0)">d</text><text xml:space="preserve" font-family="Helvetica-Light" font-size="36.0" fill="#000000" transform="matrix(1.00, 0.00, -0.00, -1.00, 826.4, 506.0)"> </text><text xml:space="preserve" font-family="Helvetica-Light" font-size="36.0" fill="#000000" transform="matrix(1.00, 0.00, -0.00, -1.00, 836.4, 506.0)">a</text><text xml:space="preserve" font-family="Helvetica-Light" font-size="36.0" fill="#000000" transform="matrix(1.00, 0.00, -0.00, -1.00, 856.5, 506.0)">r</text><text xml:space="preserve" font-family="Helvetica-Light" font-size="36.0" fill="#000000" transform="matrix(1.00, 0.00, -0.00, -1.00, 867.8, 506.0)">e</text><text xml:space="preserve" font-family="Helvetica-Light" font-size="36.0" fill="#000000" transform="matrix(1.00, 0.00, -0.00, -1.00, 887.8, 506.0)">a</text><text xml:space="preserve" font-family="Helvetica-Light" font-size="36.0" fill="#000000" transform="matrix(1.00, 0.00, -0.00, -1.00, 907.8, 506.0)">s</text><text xml:space="preserve" font-family="Helvetica-Light" font-size="36.0" fill="#000000" transform="matrix(1.00, 0.00, -0.00, -1.00, 429.0, 68.0)">C</text><text xml:space="preserve" font-family="Helvetica-Light" font-size="36.0" fill="#000000" transform="matrix(1.00, 0.00, -0.00, -1.00, 455.0, 68.0)">l</text><text xml:space="preserve" font-family="Helvetica-Light" font-size="36.0" fill="#000000" transform="matrix(1.00, 0.00, -0.00, -1.00, 463.0, 68.0)">i</text><text xml:space="preserve" font-family="Helvetica-Light" font-size="36.0" fill="#000000" transform="matrix(1.00, 0.00, -0.00, -1.00, 471.0, 68.0)">m</text><text xml:space="preserve" font-family="Helvetica-Light" font-size="36.0" fill="#000000" transform="matrix(1.00, 0.00, -0.00, -1.00, 501.0, 68.0)">a</text><text xml:space="preserve" font-family="Helvetica-Light" font-size="36.0" fill="#000000" transform="matrix(1.00, 0.00, -0.00, -1.00, 521.0, 68.0)">t</text><text xml:space="preserve" font-family="Helvetica-Light" font-size="36.0" fill="#000000" transform="matrix(1.00, 0.00, -0.00, -1.00, 531.0, 68.0)">e</text><text xml:space="preserve" font-family="Helvetica-Light" font-size="36.0" fill="#000000" transform="matrix(1.00, 0.00, -0.00, -1.00, 551.0, 68.0)"> </text><text xml:space="preserve" font-family="Helvetica-Light" font-size="36.0" fill="#000000" transform="matrix(1.00, 0.00, -0.00, -1.00, 561.0, 68.0)">v</text><text xml:space="preserve" font-family="Helvetica-Light" font-size="36.0" fill="#000000" transform="matrix(1.00, 0.00, -0.00, -1.00, 579.0, 68.0)">e</text><text xml:space="preserve" font-family="Helvetica-Light" font-size="36.0" fill="#000000" transform="matrix(1.00, 0.00, -0.00, -1.00, 599.0, 68.0)">l</text><text xml:space="preserve" font-family="Helvetica-Light" font-size="36.0" fill="#000000" transform="matrix(1.00, 0.00, -0.00, -1.00, 607.0, 68.0)">o</text><text xml:space="preserve" font-family="Helvetica-Light" font-size="36.0" fill="#000000" transform="matrix(1.00, 0.00, -0.00, -1.00, 627.0, 68.0)">c</text><text xml:space="preserve" font-family="Helvetica-Light" font-size="36.0" fill="#000000" transform="matrix(1.00, 0.00, -0.00, -1.00, 647.1, 68.0)">i</text><text xml:space="preserve" font-family="Helvetica-Light" font-size="36.0" fill="#000000" transform="matrix(1.00, 0.00, -0.00, -1.00, 655.0, 68.0)">t</text><text xml:space="preserve" font-family="Helvetica-Light" font-size="36.0" fill="#000000" transform="matrix(1.00, 0.00, -0.00, -1.00, 665.1, 68.0)">y</text><text xml:space="preserve" font-family="Helvetica-Light" font-size="36.0" fill="#000000" transform="matrix(0.00, 1.00, 1.00, -0.00, 52.0, 205.0)">H</text><text xml:space="preserve" font-family="Helvetica-Light" font-size="36.0" fill="#000000" transform="matrix(0.00, 1.00, 1.00, -0.00, 52.0, 231.0)">a</text><text xml:space="preserve" font-family="Helvetica-Light" font-size="36.0" fill="#000000" transform="matrix(0.00, 1.00, 1.00, -0.00, 52.0, 251.0)">r</text><text xml:space="preserve" font-family="Helvetica-Light" font-size="36.0" fill="#000000" transform="matrix(0.00, 1.00, 1.00, -0.00, 52.0, 263.0)">v</text><text xml:space="preserve" font-family="Helvetica-Light" font-size="36.0" fill="#000000" transform="matrix(0.00, 1.00, 1.00, -0.00, 52.0, 281.0)">e</text><text xml:space="preserve" font-family="Helvetica-Light" font-size="36.0" fill="#000000" transform="matrix(0.00, 1.00, 1.00, -0.00, 52.0, 301.0)">s</text><text xml:space="preserve" font-family="Helvetica-Light" font-size="36.0" fill="#000000" transform="matrix(0.00, 1.00, 1.00, -0.00, 52.0, 319.0)">t</text><text xml:space="preserve" font-family="Helvetica-Light" font-size="36.0" fill="#000000" transform="matrix(0.00, 1.00, 1.00, -0.00, 52.0, 329.0)"> </text><text xml:space="preserve" font-family="Helvetica-Light" font-size="36.0" fill="#000000" transform="matrix(0.00, 1.00, 1.00, -0.00, 52.0, 339.0)">r</text><text xml:space="preserve" font-family="Helvetica-Light" font-size="36.0" fill="#000000" transform="matrix(0.00, 1.00, 1.00, -0.00, 52.0, 351.0)">a</text><text xml:space="preserve" font-family="Helvetica-Light" font-size="36.0" fill="#000000" transform="matrix(0.00, 1.00, 1.00, -0.00, 52.0, 371.0)">t</text><text xml:space="preserve" font-family="Helvetica-Light" font-size="36.0" fill="#000000" transform="matrix(0.00, 1.00, 1.00, -0.00, 52.0, 381.0)">e</text><text xml:space="preserve" font-family="Helvetica-Light" font-size="68.8" fill="#000000" transform="matrix(1.00, 0.00, -0.00, -1.00, 81.0, 622.0)">P</text><text xml:space="preserve" font-family="Helvetica-Light" font-size="68.8" fill="#000000" transform="matrix(1.00, 0.00, -0.00, -1.00, 117.9, 622.0)">A</text><text xml:space="preserve" font-family="Helvetica-Light" font-size="68.8" fill="#000000" transform="matrix(1.00, 0.00, -0.00, -1.00, 163.8, 622.0)">s</text><text xml:space="preserve" font-family="Helvetica-Light" font-size="68.8" fill="#000000" transform="matrix(1.00, 0.00, -0.00, -1.00, 198.2, 622.0)"> </text><text xml:space="preserve" font-family="Helvetica-Light" font-size="68.8" fill="#000000" transform="matrix(1.00, 0.00, -0.00, -1.00, 217.4, 622.0)">r</text><text xml:space="preserve" font-family="Helvetica-Light" font-size="68.8" fill="#000000" transform="matrix(1.00, 0.00, -0.00, -1.00, 239.0, 622.0)">e</text><text xml:space="preserve" font-family="Helvetica-Light" font-size="68.8" fill="#000000" transform="matrix(1.00, 0.00, -0.00, -1.00, 277.3, 622.0)">d</text><text xml:space="preserve" font-family="Helvetica-Light" font-size="68.8" fill="#000000" transform="matrix(1.00, 0.00, -0.00, -1.00, 319.3, 622.0)">u</text><text xml:space="preserve" font-family="Helvetica-Light" font-size="68.8" fill="#000000" transform="matrix(1.00, 0.00, -0.00, -1.00, 357.6, 622.0)">c</text><text xml:space="preserve" font-family="Helvetica-Light" font-size="68.8" fill="#000000" transform="matrix(1.00, 0.00, -0.00, -1.00, 395.8, 622.0)">e</text><text xml:space="preserve" font-family="Helvetica-Light" font-size="68.8" fill="#000000" transform="matrix(1.00, 0.00, -0.00, -1.00, 434.1, 622.0)"> </text><text xml:space="preserve" font-family="Helvetica-Light" font-size="68.8" fill="#000000" transform="matrix(1.00, 0.00, -0.00, -1.00, 453.2, 622.0)">h</text><text xml:space="preserve" font-family="Helvetica-Light" font-size="68.8" fill="#000000" transform="matrix(1.00, 0.00, -0.00, -1.00, 491.5, 622.0)">a</text><text xml:space="preserve" font-family="Helvetica-Light" font-size="68.8" fill="#000000" transform="matrix(1.00, 0.00, -0.00, -1.00, 529.7, 622.0)">r</text><text xml:space="preserve" font-family="Helvetica-Light" font-size="68.8" fill="#000000" transform="matrix(1.00, 0.00, -0.00, -1.00, 552.6, 622.0)">v</text><text xml:space="preserve" font-family="Helvetica-Light" font-size="68.8" fill="#000000" transform="matrix(1.00, 0.00, -0.00, -1.00, 587.0, 622.0)">e</text><text xml:space="preserve" font-family="Helvetica-Light" font-size="68.8" fill="#000000" transform="matrix(1.00, 0.00, -0.00, -1.00, 625.3, 622.0)">s</text><text xml:space="preserve" font-family="Helvetica-Light" font-size="68.8" fill="#000000" transform="matrix(1.00, 0.00, -0.00, -1.00, 659.7, 622.0)">t</text><text xml:space="preserve" font-family="Helvetica-Light" font-size="68.8" fill="#000000" transform="matrix(1.00, 0.00, -0.00, -1.00, 678.8, 622.0)"> </text><text xml:space="preserve" font-family="Helvetica-Light" font-size="68.8" fill="#000000" transform="matrix(1.00, 0.00, -0.00, -1.00, 697.9, 622.0)">i</text><text xml:space="preserve" font-family="Helvetica-Light" font-size="68.8" fill="#000000" transform="matrix(1.00, 0.00, -0.00, -1.00, 713.2, 622.0)">m</text><text xml:space="preserve" font-family="Helvetica-Light" font-size="68.8" fill="#000000" transform="matrix(1.00, 0.00, -0.00, -1.00, 770.5, 622.0)">p</text><text xml:space="preserve" font-family="Helvetica-Light" font-size="68.8" fill="#000000" transform="matrix(1.00, 0.00, -0.00, -1.00, 812.6, 622.0)">a</text><text xml:space="preserve" font-family="Helvetica-Light" font-size="68.8" fill="#000000" transform="matrix(1.00, 0.00, -0.00, -1.00, 850.8, 622.0)">c</text><text xml:space="preserve" font-family="Helvetica-Light" font-size="68.8" fill="#000000" transform="matrix(1.00, 0.00, -0.00, -1.00, 889.1, 622.0)">t</text><text xml:space="preserve" font-family="Helvetica-Light" font-size="68.8" fill="#000000" transform="matrix(1.00, 0.00, -0.00, -1.00, 908.2, 622.0)">s</text><text xml:space="preserve" font-family="Helvetica-Light" font-size="36.0" fill="#000000" transform="matrix(1.00, 0.00, -0.00, -1.00, 138.0, 510.0)">W</text><text xml:space="preserve" font-family="Helvetica-Light" font-size="36.0" fill="#000000" transform="matrix(1.00, 0.00, -0.00, -1.00, 170.0, 510.0)">i</text><text xml:space="preserve" font-family="Helvetica-Light" font-size="36.0" fill="#000000" transform="matrix(1.00, 0.00, -0.00, -1.00, 178.0, 510.0)">t</text><text xml:space="preserve" font-family="Helvetica-Light" font-size="36.0" fill="#000000" transform="matrix(1.00, 0.00, -0.00, -1.00, 188.0, 510.0)">h</text><text xml:space="preserve" font-family="Helvetica-Light" font-size="36.0" fill="#000000" transform="matrix(1.00, 0.00, -0.00, -1.00, 208.0, 510.0)">o</text><text xml:space="preserve" font-family="Helvetica-Light" font-size="36.0" fill="#000000" transform="matrix(1.00, 0.00, -0.00, -1.00, 228.0, 510.0)">u</text><text xml:space="preserve" font-family="Helvetica-Light" font-size="36.0" fill="#000000" transform="matrix(1.00, 0.00, -0.00, -1.00, 248.1, 510.0)">t</text><text xml:space="preserve" font-family="Helvetica-Light" font-size="36.0" fill="#000000" transform="matrix(1.00, 0.00, -0.00, -1.00, 258.1, 510.0)"> </text><text xml:space="preserve" font-family="Helvetica-Light" font-size="36.0" fill="#000000" transform="matrix(1.00, 0.00, -0.00, -1.00, 268.1, 510.0)">p</text><text xml:space="preserve" font-family="Helvetica-Light" font-size="36.0" fill="#000000" transform="matrix(1.00, 0.00, -0.00, -1.00, 290.1, 510.0)">r</text><text xml:space="preserve" font-family="Helvetica-Light" font-size="36.0" fill="#000000" transform="matrix(1.00, 0.00, -0.00, -1.00, 301.4, 510.0)">o</text><text xml:space="preserve" font-family="Helvetica-Light" font-size="36.0" fill="#000000" transform="matrix(1.00, 0.00, -0.00, -1.00, 321.4, 510.0)">t</text><text xml:space="preserve" font-family="Helvetica-Light" font-size="36.0" fill="#000000" transform="matrix(1.00, 0.00, -0.00, -1.00, 331.4, 510.0)">e</text><text xml:space="preserve" font-family="Helvetica-Light" font-size="36.0" fill="#000000" transform="matrix(1.00, 0.00, -0.00, -1.00, 351.4, 510.0)">c</text><text xml:space="preserve" font-family="Helvetica-Light" font-size="36.0" fill="#000000" transform="matrix(1.00, 0.00, -0.00, -1.00, 371.5, 510.0)">t</text><text xml:space="preserve" font-family="Helvetica-Light" font-size="36.0" fill="#000000" transform="matrix(1.00, 0.00, -0.00, -1.00, 381.5, 510.0)">e</text><text xml:space="preserve" font-family="Helvetica-Light" font-size="36.0" fill="#000000" transform="matrix(1.00, 0.00, -0.00, -1.00, 401.5, 510.0)">d</text><text xml:space="preserve" font-family="Helvetica-Light" font-size="36.0" fill="#000000" transform="matrix(1.00, 0.00, -0.00, -1.00, 423.5, 510.0)"> </text><text xml:space="preserve" font-family="Helvetica-Light" font-size="36.0" fill="#000000" transform="matrix(1.00, 0.00, -0.00, -1.00, 433.5, 510.0)">a</text><text xml:space="preserve" font-family="Helvetica-Light" font-size="36.0" fill="#000000" transform="matrix(1.00, 0.00, -0.00, -1.00, 453.5, 510.0)">r</text><text xml:space="preserve" font-family="Helvetica-Light" font-size="36.0" fill="#000000" transform="matrix(1.00, 0.00, -0.00, -1.00, 464.8, 510.0)">e</text><text xml:space="preserve" font-family="Helvetica-Light" font-size="36.0" fill="#000000" transform="matrix(1.00, 0.00, -0.00, -1.00, 484.9, 510.0)">a</text><text xml:space="preserve" font-family="Helvetica-Light" font-size="36.0" fill="#000000" transform="matrix(1.00, 0.00, -0.00, -1.00, 504.9, 510.0)">s</text><text xml:space="preserve" font-family="Helvetica-Light" font-size="20.0" fill="#000000" transform="matrix(1.00, 0.00, -0.00, -1.00, 842.0, 31.0)">F</text><text xml:space="preserve" font-family="Helvetica-Light" font-size="20.0" fill="#000000" transform="matrix(1.00, 0.00, -0.00, -1.00, 853.1, 31.0)">u</text><text xml:space="preserve" font-family="Helvetica-Light" font-size="20.0" fill="#000000" transform="matrix(1.00, 0.00, -0.00, -1.00, 864.2, 31.0)">l</text><text xml:space="preserve" font-family="Helvetica-Light" font-size="20.0" fill="#000000" transform="matrix(1.00, 0.00, -0.00, -1.00, 868.7, 31.0)">l</text><text xml:space="preserve" font-family="Helvetica-Light" font-size="20.0" fill="#000000" transform="matrix(1.00, 0.00, -0.00, -1.00, 873.1, 31.0)">e</text><text xml:space="preserve" font-family="Helvetica-Light" font-size="20.0" fill="#000000" transform="matrix(1.00, 0.00, -0.00, -1.00, 884.2, 31.0)">r</text><text xml:space="preserve" font-family="Helvetica-Light" font-size="20.0" fill="#000000" transform="matrix(1.00, 0.00, -0.00, -1.00, 890.9, 31.0)"> </text><text xml:space="preserve" font-family="Helvetica-Light" font-size="20.0" fill="#000000" transform="matrix(1.00, 0.00, -0.00, -1.00, 896.5, 31.0)">e</text><text xml:space="preserve" font-family="Helvetica-Light" font-size="20.0" fill="#000000" transform="matrix(1.00, 0.00, -0.00, -1.00, 907.6, 31.0)">t</text><text xml:space="preserve" font-family="Helvetica-Light" font-size="20.0" fill="#000000" transform="matrix(1.00, 0.00, -0.00, -1.00, 913.1, 31.0)"> </text><text xml:space="preserve" font-family="Helvetica-Light" font-size="20.0" fill="#000000" transform="matrix(1.00, 0.00, -0.00, -1.00, 918.7, 31.0)">a</text><text xml:space="preserve" font-family="Helvetica-Light" font-size="20.0" fill="#000000" transform="matrix(1.00, 0.00, -0.00, -1.00, 929.8, 31.0)">l</text><text xml:space="preserve" font-family="Helvetica-Light" font-size="20.0" fill="#000000" transform="matrix(1.00, 0.00, -0.00, -1.00, 934.3, 31.0)">.</text><text xml:space="preserve" font-family="Helvetica-Light" font-size="20.0" fill="#000000" transform="matrix(1.00, 0.00, -0.00, -1.00, 939.8, 31.0)"> </text><text xml:space="preserve" font-family="Helvetica-Light" font-size="20.0" fill="#000000" transform="matrix(1.00, 0.00, -0.00, -1.00, 945.4, 31.0)">(</text><text xml:space="preserve" font-family="Helvetica-Light" font-size="20.0" fill="#000000" transform="matrix(1.00, 0.00, -0.00, -1.00, 952.0, 31.0)">2</text><text xml:space="preserve" font-family="Helvetica-Light" font-size="20.0" fill="#000000" transform="matrix(1.00, 0.00, -0.00, -1.00, 963.2, 31.0)">0</text><text xml:space="preserve" font-family="Helvetica-Light" font-size="20.0" fill="#000000" transform="matrix(1.00, 0.00, -0.00, -1.00, 974.3, 31.0)">1</text><text xml:space="preserve" font-family="Helvetica-Light" font-size="20.0" fill="#000000" transform="matrix(1.00, 0.00, -0.00, -1.00, 985.4, 31.0)">5</text><text xml:space="preserve" font-family="Helvetica-Light" font-size="20.0" fill="#000000" transform="matrix(1.00, 0.00, -0.00, -1.00, 996.5, 31.0)">)</text></g></svg>