<?xml version="1.0" encoding="UTF-8" standalone="no"?><svg xmlns="http://www.w3.org/2000/svg" xmlns:xlink="http://www.w3.org/1999/xlink" clip-rule="evenodd" stroke-miterlimit="4.00" viewBox="0 0 1024 768"><desc>SVG generated by Keynote</desc><defs></defs><g transform="matrix(1.00, 0.00, -0.00, -1.00, 0.0, 768.0)"><path d="M 0.0 768.0 L 1024.0 768.0 L 1024.0 0.0 L 0.0 0.0 Z M 0.0 768.0 " fill="#FEFFFF"></path><path d="M 0.0 0.0 L 747.8 0.0 " fill="none" stroke="#52575F" stroke-width="5.00" transform="matrix(1.00, 0.00, 0.00, -1.00, 138.1, 150.7)"></path><text xml:space="preserve" font-family="Helvetica-Light" font-size="36.0" fill="#52575F" transform="matrix(1.00, 0.00, -0.00, -1.00, 460.0, 101.0)">S</text><text xml:space="preserve" font-family="Helvetica-Light" font-size="36.0" fill="#52575F" transform="matrix(1.00, 0.00, -0.00, -1.00, 482.0, 101.0)">p</text><text xml:space="preserve" font-family="Helvetica-Light" font-size="36.0" fill="#52575F" transform="matrix(1.00, 0.00, -0.00, -1.00, 504.0, 101.0)">a</text><text xml:space="preserve" font-family="Helvetica-Light" font-size="36.0" fill="#52575F" transform="matrix(1.00, 0.00, -0.00, -1.00, 524.0, 101.0)">c</text><text xml:space="preserve" font-family="Helvetica-Light" font-size="36.0" fill="#52575F" transform="matrix(1.00, 0.00, -0.00, -1.00, 544.0, 101.0)">e</text><path d="M 167.3 348.5 L 257.8 348.5 L 257.8 161.9 L 167.3 161.9 Z M 167.3 348.5 " fill="#6B71C4"></path><path d="M 355.0 348.5 L 445.5 348.5 L 445.5 161.9 L 355.0 161.9 Z M 355.0 348.5 " fill="#6B71C4"></path><path d="M 556.1 348.5 L 646.5 348.5 L 646.5 161.9 L 556.1 161.9 Z M 556.1 348.5 " fill="#6B71C4"></path><path d="M 757.2 348.5 L 847.6 348.5 L 847.6 161.9 L 757.2 161.9 Z M 757.2 348.5 " fill="#6B71C4"></path><g><clipPath id="clip-950"><path d="M 278.0 516.0 L 349.0 516.0 L 349.0 405.0 L 278.0 405.0 Z M 277.9 516.0 "></path></clipPath><g clip-path="url(#clip-950)"><image xlink:href="../../5BE603F9-4064-4796-92A3-A77236E9B1B9/assets/C822E1790F789BD9C769DB683A3A5561.png" width="174.00" height="203.00" transform="matrix(0.72, 0.00, -0.00, -0.71, 251.0, 516.0)"></image></g></g><g><clipPath id="clip-951"><path d="M 471.0 516.0 L 542.0 516.0 L 542.0 405.0 L 471.0 405.0 Z M 470.9 516.0 "></path></clipPath><g clip-path="url(#clip-951)"><image xlink:href="../../5BE603F9-4064-4796-92A3-A77236E9B1B9/assets/C822E1790F789BD9C769DB683A3A5561.png" width="174.00" height="203.00" transform="matrix(0.72, 0.00, -0.00, -0.71, 444.0, 516.0)"></image></g></g><g><clipPath id="clip-952"><path d="M 669.0 516.0 L 741.0 516.0 L 741.0 405.0 L 669.0 405.0 Z M 669.2 516.0 "></path></clipPath><g clip-path="url(#clip-952)"><image xlink:href="../../5BE603F9-4064-4796-92A3-A77236E9B1B9/assets/C822E1790F789BD9C769DB683A3A5561.png" width="174.00" height="203.00" transform="matrix(0.71, 0.00, -0.00, -0.71, 643.0, 516.0)"></image></g></g><path d="M 0.0 0.0 L 96.2 0.0 " fill="none" stroke="#DC312E" stroke-width="5.00" transform="matrix(0.71, 0.71, 0.71, -0.71, 184.9, 404.8)"></path><path d="M 0.0 0.0 L 85.6 0.0 " fill="none" stroke="#DC312E" stroke-width="5.00" transform="matrix(-0.61, 0.79, 0.79, 0.61, 244.9, 404.8)"></path><path d="M 0.0 0.0 L 96.2 0.0 " fill="none" stroke="#DC312E" stroke-width="5.00" transform="matrix(0.71, 0.71, 0.71, -0.71, 372.1, 404.8)"></path><path d="M 0.0 0.0 L 85.6 0.0 " fill="none" stroke="#DC312E" stroke-width="5.00" transform="matrix(-0.61, 0.79, 0.79, 0.61, 432.1, 404.8)"></path><path d="M 0.0 0.0 L 96.2 0.0 " fill="none" stroke="#DC312E" stroke-width="5.00" transform="matrix(0.71, 0.71, 0.71, -0.71, 567.3, 404.8)"></path><path d="M 0.0 0.0 L 85.6 0.0 " fill="none" stroke="#DC312E" stroke-width="5.00" transform="matrix(-0.61, 0.79, 0.79, 0.61, 627.3, 404.8)"></path><path d="M 0.0 0.0 L 96.2 0.0 " fill="none" stroke="#DC312E" stroke-width="5.00" transform="matrix(0.71, 0.71, 0.71, -0.71, 756.8, 404.8)"></path><path d="M 0.0 0.0 L 85.6 0.0 " fill="none" stroke="#DC312E" stroke-width="5.00" transform="matrix(-0.61, 0.79, 0.79, 0.61, 816.7, 404.8)"></path><text xml:space="preserve" font-family="Helvetica-Light" font-size="73.6" fill="#000000" transform="matrix(1.00, 0.00, -0.00, -1.00, 82.0, 620.0)">S</text><text xml:space="preserve" font-family="Helvetica-Light" font-size="73.6" fill="#000000" transform="matrix(1.00, 0.00, -0.00, -1.00, 127.0, 620.0)">o</text><text xml:space="preserve" font-family="Helvetica-Light" font-size="73.6" fill="#000000" transform="matrix(1.00, 0.00, -0.00, -1.00, 167.9, 620.0)">l</text><text xml:space="preserve" font-family="Helvetica-Light" font-size="73.6" fill="#000000" transform="matrix(1.00, 0.00, -0.00, -1.00, 184.2, 620.0)">u</text><text xml:space="preserve" font-family="Helvetica-Light" font-size="73.6" fill="#000000" transform="matrix(1.00, 0.00, -0.00, -1.00, 225.2, 620.0)">t</text><text xml:space="preserve" font-family="Helvetica-Light" font-size="73.6" fill="#000000" transform="matrix(1.00, 0.00, -0.00, -1.00, 245.6, 620.0)">i</text><text xml:space="preserve" font-family="Helvetica-Light" font-size="73.6" fill="#000000" transform="matrix(1.00, 0.00, -0.00, -1.00, 262.0, 620.0)">o</text><text xml:space="preserve" font-family="Helvetica-Light" font-size="73.6" fill="#000000" transform="matrix(1.00, 0.00, -0.00, -1.00, 302.9, 620.0)">n</text><text xml:space="preserve" font-family="Helvetica-Light" font-size="73.6" fill="#000000" transform="matrix(1.00, 0.00, -0.00, -1.00, 343.8, 620.0)">:</text><text xml:space="preserve" font-family="Helvetica-Light" font-size="73.6" fill="#000000" transform="matrix(1.00, 0.00, -0.00, -1.00, 364.3, 620.0)"> </text><text xml:space="preserve" font-family="Helvetica-Light" font-size="73.6" fill="#000000" transform="matrix(1.00, 0.00, -0.00, -1.00, 384.7, 620.0)">p</text><text xml:space="preserve" font-family="Helvetica-Light" font-size="73.6" fill="#000000" transform="matrix(1.00, 0.00, -0.00, -1.00, 429.7, 620.0)">r</text><text xml:space="preserve" font-family="Helvetica-Light" font-size="73.6" fill="#000000" transform="matrix(1.00, 0.00, -0.00, -1.00, 452.9, 620.0)">o</text><text xml:space="preserve" font-family="Helvetica-Light" font-size="73.6" fill="#000000" transform="matrix(1.00, 0.00, -0.00, -1.00, 493.8, 620.0)">t</text><text xml:space="preserve" font-family="Helvetica-Light" font-size="73.6" fill="#000000" transform="matrix(1.00, 0.00, -0.00, -1.00, 514.3, 620.0)">e</text><text xml:space="preserve" font-family="Helvetica-Light" font-size="73.6" fill="#000000" transform="matrix(1.00, 0.00, -0.00, -1.00, 555.2, 620.0)">c</text><text xml:space="preserve" font-family="Helvetica-Light" font-size="73.6" fill="#000000" transform="matrix(1.00, 0.00, -0.00, -1.00, 596.1, 620.0)">t</text><text xml:space="preserve" font-family="Helvetica-Light" font-size="73.6" fill="#000000" transform="matrix(1.00, 0.00, -0.00, -1.00, 616.6, 620.0)">e</text><text xml:space="preserve" font-family="Helvetica-Light" font-size="73.6" fill="#000000" transform="matrix(1.00, 0.00, -0.00, -1.00, 657.5, 620.0)">d</text><text xml:space="preserve" font-family="Helvetica-Light" font-size="73.6" fill="#000000" transform="matrix(1.00, 0.00, -0.00, -1.00, 702.4, 620.0)"> </text><text xml:space="preserve" font-family="Helvetica-Light" font-size="73.6" fill="#000000" transform="matrix(1.00, 0.00, -0.00, -1.00, 722.9, 620.0)">a</text><text xml:space="preserve" font-family="Helvetica-Light" font-size="73.6" fill="#000000" transform="matrix(1.00, 0.00, -0.00, -1.00, 763.8, 620.0)">r</text><text xml:space="preserve" font-family="Helvetica-Light" font-size="73.6" fill="#000000" transform="matrix(1.00, 0.00, -0.00, -1.00, 787.0, 620.0)">e</text><text xml:space="preserve" font-family="Helvetica-Light" font-size="73.6" fill="#000000" transform="matrix(1.00, 0.00, -0.00, -1.00, 827.9, 620.0)">a</text><text xml:space="preserve" font-family="Helvetica-Light" font-size="73.6" fill="#000000" transform="matrix(1.00, 0.00, -0.00, -1.00, 868.9, 620.0)">s</text><text xml:space="preserve" font-family="Helvetica-Light" font-size="73.6" fill="#000000" transform="matrix(1.00, 0.00, -0.00, -1.00, 905.7, 620.0)">?</text><text xml:space="preserve" font-family="Helvetica-Light" font-size="20.0" fill="#000000" transform="matrix(1.00, 0.00, -0.00, -1.00, 842.0, 31.0)">F</text><text xml:space="preserve" font-family="Helvetica-Light" font-size="20.0" fill="#000000" transform="matrix(1.00, 0.00, -0.00, -1.00, 853.1, 31.0)">u</text><text xml:space="preserve" font-family="Helvetica-Light" font-size="20.0" fill="#000000" transform="matrix(1.00, 0.00, -0.00, -1.00, 864.2, 31.0)">l</text><text xml:space="preserve" font-family="Helvetica-Light" font-size="20.0" fill="#000000" transform="matrix(1.00, 0.00, -0.00, -1.00, 868.7, 31.0)">l</text><text xml:space="preserve" font-family="Helvetica-Light" font-size="20.0" fill="#000000" transform="matrix(1.00, 0.00, -0.00, -1.00, 873.1, 31.0)">e</text><text xml:space="preserve" font-family="Helvetica-Light" font-size="20.0" fill="#000000" transform="matrix(1.00, 0.00, -0.00, -1.00, 884.2, 31.0)">r</text><text xml:space="preserve" font-family="Helvetica-Light" font-size="20.0" fill="#000000" transform="matrix(1.00, 0.00, -0.00, -1.00, 890.9, 31.0)"> </text><text xml:space="preserve" font-family="Helvetica-Light" font-size="20.0" fill="#000000" transform="matrix(1.00, 0.00, -0.00, -1.00, 896.5, 31.0)">e</text><text xml:space="preserve" font-family="Helvetica-Light" font-size="20.0" fill="#000000" transform="matrix(1.00, 0.00, -0.00, -1.00, 907.6, 31.0)">t</text><text xml:space="preserve" font-family="Helvetica-Light" font-size="20.0" fill="#000000" transform="matrix(1.00, 0.00, -0.00, -1.00, 913.1, 31.0)"> </text><text xml:space="preserve" font-family="Helvetica-Light" font-size="20.0" fill="#000000" transform="matrix(1.00, 0.00, -0.00, -1.00, 918.7, 31.0)">a</text><text xml:space="preserve" font-family="Helvetica-Light" font-size="20.0" fill="#000000" transform="matrix(1.00, 0.00, -0.00, -1.00, 929.8, 31.0)">l</text><text xml:space="preserve" font-family="Helvetica-Light" font-size="20.0" fill="#000000" transform="matrix(1.00, 0.00, -0.00, -1.00, 934.3, 31.0)">.</text><text xml:space="preserve" font-family="Helvetica-Light" font-size="20.0" fill="#000000" transform="matrix(1.00, 0.00, -0.00, -1.00, 939.8, 31.0)"> </text><text xml:space="preserve" font-family="Helvetica-Light" font-size="20.0" fill="#000000" transform="matrix(1.00, 0.00, -0.00, -1.00, 945.4, 31.0)">(</text><text xml:space="preserve" font-family="Helvetica-Light" font-size="20.0" fill="#000000" transform="matrix(1.00, 0.00, -0.00, -1.00, 952.0, 31.0)">2</text><text xml:space="preserve" font-family="Helvetica-Light" font-size="20.0" fill="#000000" transform="matrix(1.00, 0.00, -0.00, -1.00, 963.2, 31.0)">0</text><text xml:space="preserve" font-family="Helvetica-Light" font-size="20.0" fill="#000000" transform="matrix(1.00, 0.00, -0.00, -1.00, 974.3, 31.0)">1</text><text xml:space="preserve" font-family="Helvetica-Light" font-size="20.0" fill="#000000" transform="matrix(1.00, 0.00, -0.00, -1.00, 985.4, 31.0)">5</text><text xml:space="preserve" font-family="Helvetica-Light" font-size="20.0" fill="#000000" transform="matrix(1.00, 0.00, -0.00, -1.00, 996.5, 31.0)">)</text></g></svg>